# MagicaVoxel @ Ephtracy

# group
o 

# material
mtllib CR_RRoad.mtl
usemtl palette

# normals
vn -1 0 0
vn 1 0 0
vn 0 0 1
vn 0 0 -1
vn 0 -1 0
vn 0 1 0

# texcoords
vt 0.298828 0.5
vt 0.537109 0.5
vt 0.560547 0.5
vt 0.970703 0.5
vt 0.986328 0.5

# verts
v 0 0.1 0
v 0 0.1 -0.1
v 0 0.1 -0.2
v 0 0.1 -0.3
v 0 0.2 -0.2
v 0 0.2 -0.3
v 0 1.2 -0.2
v 0 1.2 -0.3
v 0 1.3 -0.2
v 0 1.3 -0.3
v 0 2.3 -0.2
v 0 2.3 -0.3
v 0 2.4 -0.2
v 0 2.4 -0.3
v 0 3.4 -0.2
v 0 3.4 -0.3
v 0 3.5 -0.2
v 0 3.5 -0.3
v 0 4.5 -0.2
v 0 4.5 -0.3
v 0 4.6 -0.2
v 0 4.6 -0.3
v 0 5.6 -0.2
v 0 5.6 -0.3
v 0 5.7 -0.2
v 0 5.7 -0.3
v 0 6.7 -0.2
v 0 6.7 -0.3
v 0 6.8 -0.2
v 0 6.8 -0.3
v 0 7.8 -0.2
v 0 7.8 -0.3
v 0 7.9 -0.2
v 0 7.9 -0.3
v 0 8.9 -0.2
v 0 8.9 -0.3
v 0 9 -0.2
v 0 9 -0.3
v 0 10 0
v 0 10 -0.1
v 0 10 -0.2
v 0.2 0.1 -0.3
v 0.2 0.1 -0.4
v 0.2 0.2 -0.3
v 0.2 1.2 -0.3
v 0.2 1.3 -0.3
v 0.2 2.3 -0.3
v 0.2 2.4 -0.3
v 0.2 3.4 -0.3
v 0.2 3.5 -0.3
v 0.2 4.5 -0.3
v 0.2 4.6 -0.3
v 0.2 5.5 -0.3
v 0.2 5.5 -0.4
v 0.2 5.6 -0.3
v 0.2 5.6 -0.4
v 0.2 5.7 -0.3
v 0.2 6.7 -0.3
v 0.2 6.8 -0.3
v 0.2 7.8 -0.3
v 0.2 7.9 -0.3
v 0.2 8.9 -0.3
v 0.2 9 -0.3
v 0.2 10 -0.3
v 0.2 10 -0.4
v 0.8 0.1 -0.3
v 0.8 0.1 -0.4
v 0.8 0.2 -0.3
v 0.8 1.2 -0.3
v 0.8 1.3 -0.3
v 0.8 2.3 -0.3
v 0.8 2.4 -0.3
v 0.8 3.4 -0.3
v 0.8 3.5 -0.3
v 0.8 4.5 -0.3
v 0.8 4.6 -0.3
v 0.8 5.6 -0.3
v 0.8 5.7 -0.3
v 0.8 6.7 -0.3
v 0.8 6.8 -0.3
v 0.8 7.8 -0.3
v 0.8 7.9 -0.3
v 0.8 8.9 -0.3
v 0.8 9 -0.3
v 0.8 10 -0.3
v 0.8 10 -0.4
v 0.3 0.1 -0.3
v 0.3 0.1 -0.4
v 0.3 0.2 -0.3
v 0.3 1.2 -0.3
v 0.3 1.3 -0.3
v 0.3 2.3 -0.3
v 0.3 2.4 -0.3
v 0.3 3.4 -0.3
v 0.3 3.5 -0.3
v 0.3 4.5 -0.3
v 0.3 4.6 -0.3
v 0.3 5.5 -0.3
v 0.3 5.5 -0.4
v 0.3 5.6 -0.3
v 0.3 5.6 -0.4
v 0.3 5.7 -0.3
v 0.3 6.7 -0.3
v 0.3 6.8 -0.3
v 0.3 7.8 -0.3
v 0.3 7.9 -0.3
v 0.3 8.9 -0.3
v 0.3 9 -0.3
v 0.3 10 -0.3
v 0.3 10 -0.4
v 0.9 0.1 -0.3
v 0.9 0.1 -0.4
v 0.9 0.2 -0.3
v 0.9 1.2 -0.3
v 0.9 1.3 -0.3
v 0.9 2.3 -0.3
v 0.9 2.4 -0.3
v 0.9 3.4 -0.3
v 0.9 3.5 -0.3
v 0.9 4.5 -0.3
v 0.9 4.6 -0.3
v 0.9 5.6 -0.3
v 0.9 5.7 -0.3
v 0.9 6.7 -0.3
v 0.9 6.8 -0.3
v 0.9 7.8 -0.3
v 0.9 7.9 -0.3
v 0.9 8.9 -0.3
v 0.9 9 -0.3
v 0.9 10 -0.3
v 0.9 10 -0.4
v 1.1 0.1 0
v 1.1 0.1 -0.1
v 1.1 0.1 -0.2
v 1.1 0.1 -0.3
v 1.1 0.2 -0.2
v 1.1 0.2 -0.3
v 1.1 1.2 -0.2
v 1.1 1.2 -0.3
v 1.1 1.3 -0.2
v 1.1 1.3 -0.3
v 1.1 2.3 -0.2
v 1.1 2.3 -0.3
v 1.1 2.4 -0.2
v 1.1 2.4 -0.3
v 1.1 3.4 -0.2
v 1.1 3.4 -0.3
v 1.1 3.5 -0.2
v 1.1 3.5 -0.3
v 1.1 4.5 -0.2
v 1.1 4.5 -0.3
v 1.1 4.6 -0.2
v 1.1 4.6 -0.3
v 1.1 5.6 -0.2
v 1.1 5.6 -0.3
v 1.1 5.7 -0.2
v 1.1 5.7 -0.3
v 1.1 6.7 -0.2
v 1.1 6.7 -0.3
v 1.1 6.8 -0.2
v 1.1 6.8 -0.3
v 1.1 7.8 -0.2
v 1.1 7.8 -0.3
v 1.1 7.9 -0.2
v 1.1 7.9 -0.3
v 1.1 8.9 -0.2
v 1.1 8.9 -0.3
v 1.1 9 -0.2
v 1.1 9 -0.3
v 1.1 10 0
v 1.1 10 -0.1
v 1.1 10 -0.2
v 0 0.1 0
v 0 10 0
v 1.1 0.1 0
v 1.1 10 0
v 0.2 0.2 -0.3
v 0.2 1.2 -0.3
v 0.2 1.3 -0.3
v 0.2 2.3 -0.3
v 0.2 2.4 -0.3
v 0.2 3.4 -0.3
v 0.2 3.5 -0.3
v 0.2 4.5 -0.3
v 0.2 4.6 -0.3
v 0.2 5.5 -0.3
v 0.2 5.6 -0.3
v 0.2 5.7 -0.3
v 0.2 6.7 -0.3
v 0.2 6.8 -0.3
v 0.2 7.8 -0.3
v 0.2 7.9 -0.3
v 0.2 8.9 -0.3
v 0.2 9 -0.3
v 0.2 10 -0.3
v 0.3 0.2 -0.3
v 0.3 1.2 -0.3
v 0.3 1.3 -0.3
v 0.3 2.3 -0.3
v 0.3 2.4 -0.3
v 0.3 3.4 -0.3
v 0.3 3.5 -0.3
v 0.3 4.5 -0.3
v 0.3 4.6 -0.3
v 0.3 5.5 -0.3
v 0.3 5.6 -0.3
v 0.3 5.7 -0.3
v 0.3 6.7 -0.3
v 0.3 6.8 -0.3
v 0.3 7.8 -0.3
v 0.3 7.9 -0.3
v 0.3 8.9 -0.3
v 0.3 9 -0.3
v 0.3 10 -0.3
v 0.8 0.2 -0.3
v 0.8 1.2 -0.3
v 0.8 1.3 -0.3
v 0.8 2.3 -0.3
v 0.8 2.4 -0.3
v 0.8 3.4 -0.3
v 0.8 3.5 -0.3
v 0.8 4.5 -0.3
v 0.8 4.6 -0.3
v 0.8 5.6 -0.3
v 0.8 5.7 -0.3
v 0.8 6.7 -0.3
v 0.8 6.8 -0.3
v 0.8 7.8 -0.3
v 0.8 7.9 -0.3
v 0.8 8.9 -0.3
v 0.8 9 -0.3
v 0.8 10 -0.3
v 0.9 0.2 -0.3
v 0.9 1.2 -0.3
v 0.9 1.3 -0.3
v 0.9 2.3 -0.3
v 0.9 2.4 -0.3
v 0.9 3.4 -0.3
v 0.9 3.5 -0.3
v 0.9 4.5 -0.3
v 0.9 4.6 -0.3
v 0.9 5.6 -0.3
v 0.9 5.7 -0.3
v 0.9 6.7 -0.3
v 0.9 6.8 -0.3
v 0.9 7.8 -0.3
v 0.9 7.9 -0.3
v 0.9 8.9 -0.3
v 0.9 9 -0.3
v 0.9 10 -0.3
v 0 0.2 -0.2
v 0 1.2 -0.2
v 0 1.3 -0.2
v 0 2.3 -0.2
v 0 2.4 -0.2
v 0 3.4 -0.2
v 0 3.5 -0.2
v 0 4.5 -0.2
v 0 4.6 -0.2
v 0 5.6 -0.2
v 0 5.7 -0.2
v 0 6.7 -0.2
v 0 6.8 -0.2
v 0 7.8 -0.2
v 0 7.9 -0.2
v 0 8.9 -0.2
v 0 9 -0.2
v 0 10 -0.2
v 1.1 0.2 -0.2
v 1.1 1.2 -0.2
v 1.1 1.3 -0.2
v 1.1 2.3 -0.2
v 1.1 2.4 -0.2
v 1.1 3.4 -0.2
v 1.1 3.5 -0.2
v 1.1 4.5 -0.2
v 1.1 4.6 -0.2
v 1.1 5.6 -0.2
v 1.1 5.7 -0.2
v 1.1 6.7 -0.2
v 1.1 6.8 -0.2
v 1.1 7.8 -0.2
v 1.1 7.9 -0.2
v 1.1 8.9 -0.2
v 1.1 9 -0.2
v 1.1 10 -0.2
v 0 0.1 -0.3
v 0 0.2 -0.3
v 0 1.2 -0.3
v 0 1.3 -0.3
v 0 2.3 -0.3
v 0 2.4 -0.3
v 0 3.4 -0.3
v 0 3.5 -0.3
v 0 4.5 -0.3
v 0 4.6 -0.3
v 0 5.6 -0.3
v 0 5.7 -0.3
v 0 6.7 -0.3
v 0 6.8 -0.3
v 0 7.8 -0.3
v 0 7.9 -0.3
v 0 8.9 -0.3
v 0 9 -0.3
v 0.2 0.1 -0.3
v 0.2 0.2 -0.3
v 0.2 1.2 -0.3
v 0.2 1.3 -0.3
v 0.2 2.3 -0.3
v 0.2 2.4 -0.3
v 0.2 3.4 -0.3
v 0.2 3.5 -0.3
v 0.2 4.5 -0.3
v 0.2 4.6 -0.3
v 0.2 5.6 -0.3
v 0.2 5.7 -0.3
v 0.2 6.7 -0.3
v 0.2 6.8 -0.3
v 0.2 7.8 -0.3
v 0.2 7.9 -0.3
v 0.2 8.9 -0.3
v 0.2 9 -0.3
v 0.3 0.1 -0.3
v 0.3 0.2 -0.3
v 0.3 1.2 -0.3
v 0.3 1.3 -0.3
v 0.3 2.3 -0.3
v 0.3 2.4 -0.3
v 0.3 3.4 -0.3
v 0.3 3.5 -0.3
v 0.3 4.5 -0.3
v 0.3 4.6 -0.3
v 0.3 5.6 -0.3
v 0.3 5.7 -0.3
v 0.3 6.7 -0.3
v 0.3 6.8 -0.3
v 0.3 7.8 -0.3
v 0.3 7.9 -0.3
v 0.3 8.9 -0.3
v 0.3 9 -0.3
v 0.8 0.1 -0.3
v 0.8 0.2 -0.3
v 0.8 1.2 -0.3
v 0.8 1.3 -0.3
v 0.8 2.3 -0.3
v 0.8 2.4 -0.3
v 0.8 3.4 -0.3
v 0.8 3.5 -0.3
v 0.8 4.5 -0.3
v 0.8 4.6 -0.3
v 0.8 5.6 -0.3
v 0.8 5.7 -0.3
v 0.8 6.7 -0.3
v 0.8 6.8 -0.3
v 0.8 7.8 -0.3
v 0.8 7.9 -0.3
v 0.8 8.9 -0.3
v 0.8 9 -0.3
v 0.9 0.1 -0.3
v 0.9 0.2 -0.3
v 0.9 1.2 -0.3
v 0.9 1.3 -0.3
v 0.9 2.3 -0.3
v 0.9 2.4 -0.3
v 0.9 3.4 -0.3
v 0.9 3.5 -0.3
v 0.9 4.5 -0.3
v 0.9 4.6 -0.3
v 0.9 5.6 -0.3
v 0.9 5.7 -0.3
v 0.9 6.7 -0.3
v 0.9 6.8 -0.3
v 0.9 7.8 -0.3
v 0.9 7.9 -0.3
v 0.9 8.9 -0.3
v 0.9 9 -0.3
v 1.1 0.1 -0.3
v 1.1 0.2 -0.3
v 1.1 1.2 -0.3
v 1.1 1.3 -0.3
v 1.1 2.3 -0.3
v 1.1 2.4 -0.3
v 1.1 3.4 -0.3
v 1.1 3.5 -0.3
v 1.1 4.5 -0.3
v 1.1 4.6 -0.3
v 1.1 5.6 -0.3
v 1.1 5.7 -0.3
v 1.1 6.7 -0.3
v 1.1 6.8 -0.3
v 1.1 7.8 -0.3
v 1.1 7.9 -0.3
v 1.1 8.9 -0.3
v 1.1 9 -0.3
v 0.2 0.1 -0.4
v 0.2 5.5 -0.4
v 0.2 5.6 -0.4
v 0.2 10 -0.4
v 0.3 0.1 -0.4
v 0.3 5.5 -0.4
v 0.3 5.6 -0.4
v 0.3 10 -0.4
v 0.8 0.1 -0.4
v 0.8 10 -0.4
v 0.9 0.1 -0.4
v 0.9 10 -0.4
v 0 0.1 0
v 1.1 0.1 0
v 0 0.1 -0.1
v 1.1 0.1 -0.1
v 0 0.1 -0.2
v 1.1 0.1 -0.2
v 0 0.1 -0.3
v 0.2 0.1 -0.3
v 0.3 0.1 -0.3
v 0.8 0.1 -0.3
v 0.9 0.1 -0.3
v 1.1 0.1 -0.3
v 0.2 0.1 -0.4
v 0.3 0.1 -0.4
v 0.8 0.1 -0.4
v 0.9 0.1 -0.4
v 0 1.2 -0.2
v 1.1 1.2 -0.2
v 0 1.2 -0.3
v 0.2 1.2 -0.3
v 0.3 1.2 -0.3
v 0.8 1.2 -0.3
v 0.9 1.2 -0.3
v 1.1 1.2 -0.3
v 0 2.3 -0.2
v 1.1 2.3 -0.2
v 0 2.3 -0.3
v 0.2 2.3 -0.3
v 0.3 2.3 -0.3
v 0.8 2.3 -0.3
v 0.9 2.3 -0.3
v 1.1 2.3 -0.3
v 0 3.4 -0.2
v 1.1 3.4 -0.2
v 0 3.4 -0.3
v 0.2 3.4 -0.3
v 0.3 3.4 -0.3
v 0.8 3.4 -0.3
v 0.9 3.4 -0.3
v 1.1 3.4 -0.3
v 0 4.5 -0.2
v 1.1 4.5 -0.2
v 0 4.5 -0.3
v 0.2 4.5 -0.3
v 0.3 4.5 -0.3
v 0.8 4.5 -0.3
v 0.9 4.5 -0.3
v 1.1 4.5 -0.3
v 0 5.6 -0.2
v 1.1 5.6 -0.2
v 0 5.6 -0.3
v 0.2 5.6 -0.3
v 0.3 5.6 -0.3
v 0.8 5.6 -0.3
v 0.9 5.6 -0.3
v 1.1 5.6 -0.3
v 0 6.7 -0.2
v 1.1 6.7 -0.2
v 0 6.7 -0.3
v 0.2 6.7 -0.3
v 0.3 6.7 -0.3
v 0.8 6.7 -0.3
v 0.9 6.7 -0.3
v 1.1 6.7 -0.3
v 0 7.8 -0.2
v 1.1 7.8 -0.2
v 0 7.8 -0.3
v 0.2 7.8 -0.3
v 0.3 7.8 -0.3
v 0.8 7.8 -0.3
v 0.9 7.8 -0.3
v 1.1 7.8 -0.3
v 0 8.9 -0.2
v 1.1 8.9 -0.2
v 0 8.9 -0.3
v 0.2 8.9 -0.3
v 0.3 8.9 -0.3
v 0.8 8.9 -0.3
v 0.9 8.9 -0.3
v 1.1 8.9 -0.3
v 0 0.2 -0.2
v 1.1 0.2 -0.2
v 0 0.2 -0.3
v 0.2 0.2 -0.3
v 0.3 0.2 -0.3
v 0.8 0.2 -0.3
v 0.9 0.2 -0.3
v 1.1 0.2 -0.3
v 0 1.3 -0.2
v 1.1 1.3 -0.2
v 0 1.3 -0.3
v 0.2 1.3 -0.3
v 0.3 1.3 -0.3
v 0.8 1.3 -0.3
v 0.9 1.3 -0.3
v 1.1 1.3 -0.3
v 0 2.4 -0.2
v 1.1 2.4 -0.2
v 0 2.4 -0.3
v 0.2 2.4 -0.3
v 0.3 2.4 -0.3
v 0.8 2.4 -0.3
v 0.9 2.4 -0.3
v 1.1 2.4 -0.3
v 0 3.5 -0.2
v 1.1 3.5 -0.2
v 0 3.5 -0.3
v 0.2 3.5 -0.3
v 0.3 3.5 -0.3
v 0.8 3.5 -0.3
v 0.9 3.5 -0.3
v 1.1 3.5 -0.3
v 0 4.6 -0.2
v 1.1 4.6 -0.2
v 0 4.6 -0.3
v 0.2 4.6 -0.3
v 0.3 4.6 -0.3
v 0.8 4.6 -0.3
v 0.9 4.6 -0.3
v 1.1 4.6 -0.3
v 0 5.7 -0.2
v 1.1 5.7 -0.2
v 0 5.7 -0.3
v 0.2 5.7 -0.3
v 0.3 5.7 -0.3
v 0.8 5.7 -0.3
v 0.9 5.7 -0.3
v 1.1 5.7 -0.3
v 0 6.8 -0.2
v 1.1 6.8 -0.2
v 0 6.8 -0.3
v 0.2 6.8 -0.3
v 0.3 6.8 -0.3
v 0.8 6.8 -0.3
v 0.9 6.8 -0.3
v 1.1 6.8 -0.3
v 0 7.9 -0.2
v 1.1 7.9 -0.2
v 0 7.9 -0.3
v 0.2 7.9 -0.3
v 0.3 7.9 -0.3
v 0.8 7.9 -0.3
v 0.9 7.9 -0.3
v 1.1 7.9 -0.3
v 0 9 -0.2
v 1.1 9 -0.2
v 0 9 -0.3
v 0.2 9 -0.3
v 0.3 9 -0.3
v 0.8 9 -0.3
v 0.9 9 -0.3
v 1.1 9 -0.3
v 0 10 0
v 1.1 10 0
v 0 10 -0.1
v 1.1 10 -0.1
v 0 10 -0.2
v 1.1 10 -0.2
v 0.2 10 -0.3
v 0.3 10 -0.3
v 0.8 10 -0.3
v 0.9 10 -0.3
v 0.2 10 -0.4
v 0.3 10 -0.4
v 0.8 10 -0.4
v 0.9 10 -0.4

# faces
f 5/5/1 3/5/1 2/5/1
f 5/3/1 4/3/1 3/3/1
f 6/3/1 4/3/1 5/3/1
f 7/5/1 5/5/1 2/5/1
f 9/5/1 7/5/1 2/5/1
f 9/3/1 8/3/1 7/3/1
f 10/3/1 8/3/1 9/3/1
f 11/5/1 9/5/1 2/5/1
f 13/5/1 11/5/1 2/5/1
f 13/3/1 12/3/1 11/3/1
f 14/3/1 12/3/1 13/3/1
f 15/5/1 13/5/1 2/5/1
f 17/5/1 15/5/1 2/5/1
f 17/3/1 16/3/1 15/3/1
f 18/3/1 16/3/1 17/3/1
f 19/5/1 17/5/1 2/5/1
f 21/5/1 19/5/1 2/5/1
f 21/3/1 20/3/1 19/3/1
f 22/3/1 20/3/1 21/3/1
f 23/5/1 21/5/1 2/5/1
f 25/5/1 23/5/1 2/5/1
f 25/3/1 24/3/1 23/3/1
f 26/3/1 24/3/1 25/3/1
f 27/5/1 25/5/1 2/5/1
f 29/5/1 27/5/1 2/5/1
f 29/3/1 28/3/1 27/3/1
f 30/3/1 28/3/1 29/3/1
f 31/5/1 29/5/1 2/5/1
f 33/5/1 31/5/1 2/5/1
f 33/3/1 32/3/1 31/3/1
f 34/3/1 32/3/1 33/3/1
f 35/5/1 33/5/1 2/5/1
f 37/5/1 35/5/1 2/5/1
f 37/3/1 36/3/1 35/3/1
f 38/3/1 36/3/1 37/3/1
f 39/2/1 2/2/1 1/2/1
f 40/5/1 37/5/1 2/5/1
f 40/2/1 2/2/1 39/2/1
f 41/5/1 37/5/1 40/5/1
f 44/4/1 43/4/1 42/4/1
f 45/4/1 43/4/1 44/4/1
f 46/4/1 43/4/1 45/4/1
f 47/4/1 43/4/1 46/4/1
f 48/4/1 43/4/1 47/4/1
f 49/4/1 43/4/1 48/4/1
f 50/4/1 43/4/1 49/4/1
f 51/4/1 43/4/1 50/4/1
f 52/4/1 43/4/1 51/4/1
f 53/4/1 43/4/1 52/4/1
f 54/4/1 43/4/1 53/4/1
f 55/1/1 54/1/1 53/1/1
f 56/1/1 54/1/1 55/1/1
f 57/4/1 56/4/1 55/4/1
f 58/4/1 56/4/1 57/4/1
f 59/4/1 56/4/1 58/4/1
f 60/4/1 56/4/1 59/4/1
f 61/4/1 56/4/1 60/4/1
f 62/4/1 56/4/1 61/4/1
f 63/4/1 56/4/1 62/4/1
f 64/4/1 56/4/1 63/4/1
f 65/4/1 56/4/1 64/4/1
f 68/4/1 67/4/1 66/4/1
f 69/4/1 67/4/1 68/4/1
f 70/4/1 67/4/1 69/4/1
f 71/4/1 67/4/1 70/4/1
f 72/4/1 67/4/1 71/4/1
f 73/4/1 67/4/1 72/4/1
f 74/4/1 67/4/1 73/4/1
f 75/4/1 67/4/1 74/4/1
f 76/4/1 67/4/1 75/4/1
f 77/4/1 67/4/1 76/4/1
f 78/4/1 67/4/1 77/4/1
f 79/4/1 67/4/1 78/4/1
f 80/4/1 67/4/1 79/4/1
f 81/4/1 67/4/1 80/4/1
f 82/4/1 67/4/1 81/4/1
f 83/4/1 67/4/1 82/4/1
f 84/4/1 67/4/1 83/4/1
f 85/4/1 67/4/1 84/4/1
f 86/4/1 67/4/1 85/4/1
f 87/4/2 88/4/2 89/4/2
f 89/4/2 88/4/2 90/4/2
f 90/4/2 88/4/2 91/4/2
f 91/4/2 88/4/2 92/4/2
f 92/4/2 88/4/2 93/4/2
f 93/4/2 88/4/2 94/4/2
f 94/4/2 88/4/2 95/4/2
f 95/4/2 88/4/2 96/4/2
f 96/4/2 88/4/2 97/4/2
f 97/4/2 88/4/2 98/4/2
f 98/4/2 88/4/2 99/4/2
f 98/1/2 99/1/2 100/1/2
f 100/1/2 99/1/2 101/1/2
f 100/4/2 101/4/2 102/4/2
f 102/4/2 101/4/2 103/4/2
f 103/4/2 101/4/2 104/4/2
f 104/4/2 101/4/2 105/4/2
f 105/4/2 101/4/2 106/4/2
f 106/4/2 101/4/2 107/4/2
f 107/4/2 101/4/2 108/4/2
f 108/4/2 101/4/2 109/4/2
f 109/4/2 101/4/2 110/4/2
f 111/4/2 112/4/2 113/4/2
f 113/4/2 112/4/2 114/4/2
f 114/4/2 112/4/2 115/4/2
f 115/4/2 112/4/2 116/4/2
f 116/4/2 112/4/2 117/4/2
f 117/4/2 112/4/2 118/4/2
f 118/4/2 112/4/2 119/4/2
f 119/4/2 112/4/2 120/4/2
f 120/4/2 112/4/2 121/4/2
f 121/4/2 112/4/2 122/4/2
f 122/4/2 112/4/2 123/4/2
f 123/4/2 112/4/2 124/4/2
f 124/4/2 112/4/2 125/4/2
f 125/4/2 112/4/2 126/4/2
f 126/4/2 112/4/2 127/4/2
f 127/4/2 112/4/2 128/4/2
f 128/4/2 112/4/2 129/4/2
f 129/4/2 112/4/2 130/4/2
f 130/4/2 112/4/2 131/4/2
f 133/5/2 134/5/2 136/5/2
f 134/3/2 135/3/2 136/3/2
f 136/3/2 135/3/2 137/3/2
f 133/5/2 136/5/2 138/5/2
f 133/5/2 138/5/2 140/5/2
f 138/3/2 139/3/2 140/3/2
f 140/3/2 139/3/2 141/3/2
f 133/5/2 140/5/2 142/5/2
f 133/5/2 142/5/2 144/5/2
f 142/3/2 143/3/2 144/3/2
f 144/3/2 143/3/2 145/3/2
f 133/5/2 144/5/2 146/5/2
f 133/5/2 146/5/2 148/5/2
f 146/3/2 147/3/2 148/3/2
f 148/3/2 147/3/2 149/3/2
f 133/5/2 148/5/2 150/5/2
f 133/5/2 150/5/2 152/5/2
f 150/3/2 151/3/2 152/3/2
f 152/3/2 151/3/2 153/3/2
f 133/5/2 152/5/2 154/5/2
f 133/5/2 154/5/2 156/5/2
f 154/3/2 155/3/2 156/3/2
f 156/3/2 155/3/2 157/3/2
f 133/5/2 156/5/2 158/5/2
f 133/5/2 158/5/2 160/5/2
f 158/3/2 159/3/2 160/3/2
f 160/3/2 159/3/2 161/3/2
f 133/5/2 160/5/2 162/5/2
f 133/5/2 162/5/2 164/5/2
f 162/3/2 163/3/2 164/3/2
f 164/3/2 163/3/2 165/3/2
f 133/5/2 164/5/2 166/5/2
f 133/5/2 166/5/2 168/5/2
f 166/3/2 167/3/2 168/3/2
f 168/3/2 167/3/2 169/3/2
f 132/2/2 133/2/2 170/2/2
f 133/5/2 168/5/2 171/5/2
f 170/2/2 133/2/2 171/2/2
f 171/5/2 168/5/2 172/5/2
f 175/2/3 174/2/3 173/2/3
f 176/2/3 174/2/3 175/2/3
f 196/4/3 178/4/3 177/4/3
f 197/4/3 178/4/3 196/4/3
f 198/4/3 180/4/3 179/4/3
f 199/4/3 180/4/3 198/4/3
f 200/4/3 182/4/3 181/4/3
f 201/4/3 182/4/3 200/4/3
f 202/4/3 184/4/3 183/4/3
f 203/4/3 184/4/3 202/4/3
f 204/4/3 186/4/3 185/4/3
f 205/1/3 187/1/3 186/1/3
f 205/4/3 186/4/3 204/4/3
f 206/1/3 187/1/3 205/1/3
f 207/4/3 189/4/3 188/4/3
f 208/4/3 189/4/3 207/4/3
f 209/4/3 191/4/3 190/4/3
f 210/4/3 191/4/3 209/4/3
f 211/4/3 193/4/3 192/4/3
f 212/4/3 193/4/3 211/4/3
f 213/4/3 195/4/3 194/4/3
f 214/4/3 195/4/3 213/4/3
f 233/4/3 216/4/3 215/4/3
f 234/4/3 216/4/3 233/4/3
f 235/4/3 218/4/3 217/4/3
f 236/4/3 218/4/3 235/4/3
f 237/4/3 220/4/3 219/4/3
f 238/4/3 220/4/3 237/4/3
f 239/4/3 222/4/3 221/4/3
f 240/4/3 222/4/3 239/4/3
f 241/4/3 224/4/3 223/4/3
f 242/4/3 224/4/3 241/4/3
f 243/4/3 226/4/3 225/4/3
f 244/4/3 226/4/3 243/4/3
f 245/4/3 228/4/3 227/4/3
f 246/4/3 228/4/3 245/4/3
f 247/4/3 230/4/3 229/4/3
f 248/4/3 230/4/3 247/4/3
f 249/4/3 232/4/3 231/4/3
f 250/4/3 232/4/3 249/4/3
f 251/5/4 252/5/4 269/5/4
f 269/5/4 252/5/4 270/5/4
f 253/5/4 254/5/4 271/5/4
f 271/5/4 254/5/4 272/5/4
f 255/5/4 256/5/4 273/5/4
f 273/5/4 256/5/4 274/5/4
f 257/5/4 258/5/4 275/5/4
f 275/5/4 258/5/4 276/5/4
f 259/5/4 260/5/4 277/5/4
f 277/5/4 260/5/4 278/5/4
f 261/5/4 262/5/4 279/5/4
f 279/5/4 262/5/4 280/5/4
f 263/5/4 264/5/4 281/5/4
f 281/5/4 264/5/4 282/5/4
f 265/5/4 266/5/4 283/5/4
f 283/5/4 266/5/4 284/5/4
f 267/5/4 268/5/4 285/5/4
f 285/5/4 268/5/4 286/5/4
f 287/3/4 288/3/4 305/3/4
f 305/3/4 288/3/4 306/3/4
f 289/3/4 290/3/4 307/3/4
f 307/3/4 290/3/4 308/3/4
f 291/3/4 292/3/4 309/3/4
f 309/3/4 292/3/4 310/3/4
f 293/3/4 294/3/4 311/3/4
f 311/3/4 294/3/4 312/3/4
f 295/3/4 296/3/4 313/3/4
f 313/3/4 296/3/4 314/3/4
f 297/3/4 298/3/4 315/3/4
f 315/3/4 298/3/4 316/3/4
f 299/3/4 300/3/4 317/3/4
f 317/3/4 300/3/4 318/3/4
f 301/3/4 302/3/4 319/3/4
f 319/3/4 302/3/4 320/3/4
f 303/3/4 304/3/4 321/3/4
f 321/3/4 304/3/4 322/3/4
f 323/3/4 324/3/4 341/3/4
f 341/3/4 324/3/4 342/3/4
f 325/3/4 326/3/4 343/3/4
f 343/3/4 326/3/4 344/3/4
f 327/3/4 328/3/4 345/3/4
f 345/3/4 328/3/4 346/3/4
f 329/3/4 330/3/4 347/3/4
f 347/3/4 330/3/4 348/3/4
f 331/3/4 332/3/4 349/3/4
f 349/3/4 332/3/4 350/3/4
f 333/3/4 334/3/4 351/3/4
f 351/3/4 334/3/4 352/3/4
f 335/3/4 336/3/4 353/3/4
f 353/3/4 336/3/4 354/3/4
f 337/3/4 338/3/4 355/3/4
f 355/3/4 338/3/4 356/3/4
f 339/3/4 340/3/4 357/3/4
f 357/3/4 340/3/4 358/3/4
f 359/3/4 360/3/4 377/3/4
f 377/3/4 360/3/4 378/3/4
f 361/3/4 362/3/4 379/3/4
f 379/3/4 362/3/4 380/3/4
f 363/3/4 364/3/4 381/3/4
f 381/3/4 364/3/4 382/3/4
f 365/3/4 366/3/4 383/3/4
f 383/3/4 366/3/4 384/3/4
f 367/3/4 368/3/4 385/3/4
f 385/3/4 368/3/4 386/3/4
f 369/3/4 370/3/4 387/3/4
f 387/3/4 370/3/4 388/3/4
f 371/3/4 372/3/4 389/3/4
f 389/3/4 372/3/4 390/3/4
f 373/3/4 374/3/4 391/3/4
f 391/3/4 374/3/4 392/3/4
f 375/3/4 376/3/4 393/3/4
f 393/3/4 376/3/4 394/3/4
f 395/4/4 396/4/4 399/4/4
f 396/1/4 397/1/4 400/1/4
f 399/4/4 396/4/4 400/4/4
f 397/4/4 398/4/4 401/4/4
f 400/1/4 397/1/4 401/1/4
f 401/4/4 398/4/4 402/4/4
f 403/4/4 404/4/4 405/4/4
f 405/4/4 404/4/4 406/4/4
f 409/2/5 408/2/5 407/2/5
f 410/2/5 408/2/5 409/2/5
f 411/5/5 410/5/5 409/5/5
f 412/5/5 410/5/5 411/5/5
f 413/3/5 412/3/5 411/3/5
f 414/3/5 412/3/5 413/3/5
f 415/3/5 412/3/5 414/3/5
f 416/3/5 412/3/5 415/3/5
f 417/3/5 412/3/5 416/3/5
f 418/3/5 412/3/5 417/3/5
f 419/4/5 415/4/5 414/4/5
f 420/4/5 415/4/5 419/4/5
f 421/4/5 417/4/5 416/4/5
f 422/4/5 417/4/5 421/4/5
f 425/3/5 424/3/5 423/3/5
f 426/3/5 424/3/5 425/3/5
f 427/3/5 424/3/5 426/3/5
f 428/3/5 424/3/5 427/3/5
f 429/3/5 424/3/5 428/3/5
f 430/3/5 424/3/5 429/3/5
f 433/3/5 432/3/5 431/3/5
f 434/3/5 432/3/5 433/3/5
f 435/3/5 432/3/5 434/3/5
f 436/3/5 432/3/5 435/3/5
f 437/3/5 432/3/5 436/3/5
f 438/3/5 432/3/5 437/3/5
f 441/3/5 440/3/5 439/3/5
f 442/3/5 440/3/5 441/3/5
f 443/3/5 440/3/5 442/3/5
f 444/3/5 440/3/5 443/3/5
f 445/3/5 440/3/5 444/3/5
f 446/3/5 440/3/5 445/3/5
f 449/3/5 448/3/5 447/3/5
f 450/3/5 448/3/5 449/3/5
f 451/3/5 448/3/5 450/3/5
f 452/3/5 448/3/5 451/3/5
f 453/3/5 448/3/5 452/3/5
f 454/3/5 448/3/5 453/3/5
f 457/3/5 456/3/5 455/3/5
f 458/3/5 456/3/5 457/3/5
f 459/3/5 456/3/5 458/3/5
f 460/3/5 456/3/5 459/3/5
f 461/3/5 456/3/5 460/3/5
f 462/3/5 456/3/5 461/3/5
f 465/3/5 464/3/5 463/3/5
f 466/3/5 464/3/5 465/3/5
f 467/3/5 464/3/5 466/3/5
f 468/3/5 464/3/5 467/3/5
f 469/3/5 464/3/5 468/3/5
f 470/3/5 464/3/5 469/3/5
f 473/3/5 472/3/5 471/3/5
f 474/3/5 472/3/5 473/3/5
f 475/3/5 472/3/5 474/3/5
f 476/3/5 472/3/5 475/3/5
f 477/3/5 472/3/5 476/3/5
f 478/3/5 472/3/5 477/3/5
f 481/3/5 480/3/5 479/3/5
f 482/3/5 480/3/5 481/3/5
f 483/3/5 480/3/5 482/3/5
f 484/3/5 480/3/5 483/3/5
f 485/3/5 480/3/5 484/3/5
f 486/3/5 480/3/5 485/3/5
f 487/3/6 488/3/6 489/3/6
f 489/3/6 488/3/6 490/3/6
f 490/3/6 488/3/6 491/3/6
f 491/3/6 488/3/6 492/3/6
f 492/3/6 488/3/6 493/3/6
f 493/3/6 488/3/6 494/3/6
f 495/3/6 496/3/6 497/3/6
f 497/3/6 496/3/6 498/3/6
f 498/3/6 496/3/6 499/3/6
f 499/3/6 496/3/6 500/3/6
f 500/3/6 496/3/6 501/3/6
f 501/3/6 496/3/6 502/3/6
f 503/3/6 504/3/6 505/3/6
f 505/3/6 504/3/6 506/3/6
f 506/3/6 504/3/6 507/3/6
f 507/3/6 504/3/6 508/3/6
f 508/3/6 504/3/6 509/3/6
f 509/3/6 504/3/6 510/3/6
f 511/3/6 512/3/6 513/3/6
f 513/3/6 512/3/6 514/3/6
f 514/3/6 512/3/6 515/3/6
f 515/3/6 512/3/6 516/3/6
f 516/3/6 512/3/6 517/3/6
f 517/3/6 512/3/6 518/3/6
f 519/3/6 520/3/6 521/3/6
f 521/3/6 520/3/6 522/3/6
f 522/3/6 520/3/6 523/3/6
f 523/3/6 520/3/6 524/3/6
f 524/3/6 520/3/6 525/3/6
f 525/3/6 520/3/6 526/3/6
f 527/3/6 528/3/6 529/3/6
f 529/3/6 528/3/6 530/3/6
f 530/3/6 528/3/6 531/3/6
f 531/3/6 528/3/6 532/3/6
f 532/3/6 528/3/6 533/3/6
f 533/3/6 528/3/6 534/3/6
f 535/3/6 536/3/6 537/3/6
f 537/3/6 536/3/6 538/3/6
f 538/3/6 536/3/6 539/3/6
f 539/3/6 536/3/6 540/3/6
f 540/3/6 536/3/6 541/3/6
f 541/3/6 536/3/6 542/3/6
f 543/3/6 544/3/6 545/3/6
f 545/3/6 544/3/6 546/3/6
f 546/3/6 544/3/6 547/3/6
f 547/3/6 544/3/6 548/3/6
f 548/3/6 544/3/6 549/3/6
f 549/3/6 544/3/6 550/3/6
f 551/3/6 552/3/6 553/3/6
f 553/3/6 552/3/6 554/3/6
f 554/3/6 552/3/6 555/3/6
f 555/3/6 552/3/6 556/3/6
f 556/3/6 552/3/6 557/3/6
f 557/3/6 552/3/6 558/3/6
f 559/2/6 560/2/6 561/2/6
f 561/2/6 560/2/6 562/2/6
f 561/5/6 562/5/6 563/5/6
f 563/5/6 562/5/6 564/5/6
f 565/4/6 566/4/6 569/4/6
f 569/4/6 566/4/6 570/4/6
f 567/4/6 568/4/6 571/4/6
f 571/4/6 568/4/6 572/4/6
