# MagicaVoxel @ Ephtracy

# group
o 

# material
mtllib CR_RRoad.mtl
usemtl palette

# normals
vn -1 0 0
vn 1 0 0
vn 0 0 1
vn 0 0 -1
vn 0 -1 0
vn 0 1 0

# texcoords
vt 0.298828 0.5
vt 0.537109 0.5
vt 0.560547 0.5
vt 0.970703 0.5
vt 0.986328 0.5

# verts
v 0 0.1 0
v 0 0.1 -9.9
v 0 0.2 0
v 0 0.2 -9.9
v 0 0.3 0
v 0 0.3 -1
v 0 0.3 -1.1
v 0 0.3 -2.1
v 0 0.3 -2.2
v 0 0.3 -3.2
v 0 0.3 -3.3
v 0 0.3 -4.3
v 0 0.3 -4.4
v 0 0.3 -5.4
v 0 0.3 -5.5
v 0 0.3 -6.5
v 0 0.3 -6.6
v 0 0.3 -7.6
v 0 0.3 -7.7
v 0 0.3 -8.7
v 0 0.3 -8.8
v 0 0.3 -9.8
v 0 0.3 -9.9
v 0 0.4 -1
v 0 0.4 -1.1
v 0 0.4 -2.1
v 0 0.4 -2.2
v 0 0.4 -3.2
v 0 0.4 -3.3
v 0 0.4 -4.3
v 0 0.4 -4.4
v 0 0.4 -5.4
v 0 0.4 -5.5
v 0 0.4 -6.5
v 0 0.4 -6.6
v 0 0.4 -7.6
v 0 0.4 -7.7
v 0 0.4 -8.7
v 0 0.4 -8.8
v 0 0.4 -9.8
v 0 0.4 -9.9
v 0.2 0.4 0
v 0.2 0.4 -1
v 0.2 0.4 -1.1
v 0.2 0.4 -2.1
v 0.2 0.4 -2.2
v 0.2 0.4 -3.2
v 0.2 0.4 -3.3
v 0.2 0.4 -4.3
v 0.2 0.4 -4.4
v 0.2 0.4 -4.5
v 0.2 0.4 -5.4
v 0.2 0.4 -5.5
v 0.2 0.4 -6.5
v 0.2 0.4 -6.6
v 0.2 0.4 -7.6
v 0.2 0.4 -7.7
v 0.2 0.4 -8.7
v 0.2 0.4 -8.8
v 0.2 0.4 -9.8
v 0.2 0.4 -9.9
v 0.2 0.5 0
v 0.2 0.5 -4.4
v 0.2 0.5 -4.5
v 0.2 0.5 -9.9
v 0.8 0.4 0
v 0.8 0.4 -1
v 0.8 0.4 -1.1
v 0.8 0.4 -2.1
v 0.8 0.4 -2.2
v 0.8 0.4 -3.2
v 0.8 0.4 -3.3
v 0.8 0.4 -4.3
v 0.8 0.4 -4.4
v 0.8 0.4 -5.4
v 0.8 0.4 -5.5
v 0.8 0.4 -6.5
v 0.8 0.4 -6.6
v 0.8 0.4 -7.6
v 0.8 0.4 -7.7
v 0.8 0.4 -8.7
v 0.8 0.4 -8.8
v 0.8 0.4 -9.8
v 0.8 0.4 -9.9
v 0.8 0.5 0
v 0.8 0.5 -9.9
v 0.3 0.4 0
v 0.3 0.4 -1
v 0.3 0.4 -1.1
v 0.3 0.4 -2.1
v 0.3 0.4 -2.2
v 0.3 0.4 -3.2
v 0.3 0.4 -3.3
v 0.3 0.4 -4.3
v 0.3 0.4 -4.4
v 0.3 0.4 -4.5
v 0.3 0.4 -5.4
v 0.3 0.4 -5.5
v 0.3 0.4 -6.5
v 0.3 0.4 -6.6
v 0.3 0.4 -7.6
v 0.3 0.4 -7.7
v 0.3 0.4 -8.7
v 0.3 0.4 -8.8
v 0.3 0.4 -9.8
v 0.3 0.4 -9.9
v 0.3 0.5 0
v 0.3 0.5 -4.4
v 0.3 0.5 -4.5
v 0.3 0.5 -9.9
v 0.9 0.4 0
v 0.9 0.4 -1
v 0.9 0.4 -1.1
v 0.9 0.4 -2.1
v 0.9 0.4 -2.2
v 0.9 0.4 -3.2
v 0.9 0.4 -3.3
v 0.9 0.4 -4.3
v 0.9 0.4 -4.4
v 0.9 0.4 -5.4
v 0.9 0.4 -5.5
v 0.9 0.4 -6.5
v 0.9 0.4 -6.6
v 0.9 0.4 -7.6
v 0.9 0.4 -7.7
v 0.9 0.4 -8.7
v 0.9 0.4 -8.8
v 0.9 0.4 -9.8
v 0.9 0.4 -9.9
v 0.9 0.5 0
v 0.9 0.5 -9.9
v 1.1 0.1 0
v 1.1 0.1 -9.9
v 1.1 0.2 0
v 1.1 0.2 -9.9
v 1.1 0.3 0
v 1.1 0.3 -1
v 1.1 0.3 -1.1
v 1.1 0.3 -2.1
v 1.1 0.3 -2.2
v 1.1 0.3 -3.2
v 1.1 0.3 -3.3
v 1.1 0.3 -4.3
v 1.1 0.3 -4.4
v 1.1 0.3 -5.4
v 1.1 0.3 -5.5
v 1.1 0.3 -6.5
v 1.1 0.3 -6.6
v 1.1 0.3 -7.6
v 1.1 0.3 -7.7
v 1.1 0.3 -8.7
v 1.1 0.3 -8.8
v 1.1 0.3 -9.8
v 1.1 0.3 -9.9
v 1.1 0.4 -1
v 1.1 0.4 -1.1
v 1.1 0.4 -2.1
v 1.1 0.4 -2.2
v 1.1 0.4 -3.2
v 1.1 0.4 -3.3
v 1.1 0.4 -4.3
v 1.1 0.4 -4.4
v 1.1 0.4 -5.4
v 1.1 0.4 -5.5
v 1.1 0.4 -6.5
v 1.1 0.4 -6.6
v 1.1 0.4 -7.6
v 1.1 0.4 -7.7
v 1.1 0.4 -8.7
v 1.1 0.4 -8.8
v 1.1 0.4 -9.8
v 1.1 0.4 -9.9
v 0 0.1 0
v 0 0.2 0
v 0 0.3 0
v 0.2 0.4 0
v 0.2 0.5 0
v 0.3 0.4 0
v 0.3 0.5 0
v 0.8 0.4 0
v 0.8 0.5 0
v 0.9 0.4 0
v 0.9 0.5 0
v 1.1 0.1 0
v 1.1 0.2 0
v 1.1 0.3 0
v 0 0.3 -1
v 0 0.4 -1
v 0.2 0.4 -1
v 0.3 0.4 -1
v 0.8 0.4 -1
v 0.9 0.4 -1
v 1.1 0.3 -1
v 1.1 0.4 -1
v 0 0.3 -2.1
v 0 0.4 -2.1
v 0.2 0.4 -2.1
v 0.3 0.4 -2.1
v 0.8 0.4 -2.1
v 0.9 0.4 -2.1
v 1.1 0.3 -2.1
v 1.1 0.4 -2.1
v 0 0.3 -3.2
v 0 0.4 -3.2
v 0.2 0.4 -3.2
v 0.3 0.4 -3.2
v 0.8 0.4 -3.2
v 0.9 0.4 -3.2
v 1.1 0.3 -3.2
v 1.1 0.4 -3.2
v 0 0.3 -4.3
v 0 0.4 -4.3
v 0.2 0.4 -4.3
v 0.3 0.4 -4.3
v 0.8 0.4 -4.3
v 0.9 0.4 -4.3
v 1.1 0.3 -4.3
v 1.1 0.4 -4.3
v 0 0.3 -5.4
v 0 0.4 -5.4
v 0.2 0.4 -5.4
v 0.3 0.4 -5.4
v 0.8 0.4 -5.4
v 0.9 0.4 -5.4
v 1.1 0.3 -5.4
v 1.1 0.4 -5.4
v 0 0.3 -6.5
v 0 0.4 -6.5
v 0.2 0.4 -6.5
v 0.3 0.4 -6.5
v 0.8 0.4 -6.5
v 0.9 0.4 -6.5
v 1.1 0.3 -6.5
v 1.1 0.4 -6.5
v 0 0.3 -7.6
v 0 0.4 -7.6
v 0.2 0.4 -7.6
v 0.3 0.4 -7.6
v 0.8 0.4 -7.6
v 0.9 0.4 -7.6
v 1.1 0.3 -7.6
v 1.1 0.4 -7.6
v 0 0.3 -8.7
v 0 0.4 -8.7
v 0.2 0.4 -8.7
v 0.3 0.4 -8.7
v 0.8 0.4 -8.7
v 0.9 0.4 -8.7
v 1.1 0.3 -8.7
v 1.1 0.4 -8.7
v 0 0.3 -9.8
v 0 0.4 -9.8
v 0.2 0.4 -9.8
v 0.3 0.4 -9.8
v 0.8 0.4 -9.8
v 0.9 0.4 -9.8
v 1.1 0.3 -9.8
v 1.1 0.4 -9.8
v 0 0.3 -1.1
v 0 0.4 -1.1
v 0.2 0.4 -1.1
v 0.3 0.4 -1.1
v 0.8 0.4 -1.1
v 0.9 0.4 -1.1
v 1.1 0.3 -1.1
v 1.1 0.4 -1.1
v 0 0.3 -2.2
v 0 0.4 -2.2
v 0.2 0.4 -2.2
v 0.3 0.4 -2.2
v 0.8 0.4 -2.2
v 0.9 0.4 -2.2
v 1.1 0.3 -2.2
v 1.1 0.4 -2.2
v 0 0.3 -3.3
v 0 0.4 -3.3
v 0.2 0.4 -3.3
v 0.3 0.4 -3.3
v 0.8 0.4 -3.3
v 0.9 0.4 -3.3
v 1.1 0.3 -3.3
v 1.1 0.4 -3.3
v 0 0.3 -4.4
v 0 0.4 -4.4
v 0.2 0.4 -4.4
v 0.3 0.4 -4.4
v 0.8 0.4 -4.4
v 0.9 0.4 -4.4
v 1.1 0.3 -4.4
v 1.1 0.4 -4.4
v 0 0.3 -5.5
v 0 0.4 -5.5
v 0.2 0.4 -5.5
v 0.3 0.4 -5.5
v 0.8 0.4 -5.5
v 0.9 0.4 -5.5
v 1.1 0.3 -5.5
v 1.1 0.4 -5.5
v 0 0.3 -6.6
v 0 0.4 -6.6
v 0.2 0.4 -6.6
v 0.3 0.4 -6.6
v 0.8 0.4 -6.6
v 0.9 0.4 -6.6
v 1.1 0.3 -6.6
v 1.1 0.4 -6.6
v 0 0.3 -7.7
v 0 0.4 -7.7
v 0.2 0.4 -7.7
v 0.3 0.4 -7.7
v 0.8 0.4 -7.7
v 0.9 0.4 -7.7
v 1.1 0.3 -7.7
v 1.1 0.4 -7.7
v 0 0.3 -8.8
v 0 0.4 -8.8
v 0.2 0.4 -8.8
v 0.3 0.4 -8.8
v 0.8 0.4 -8.8
v 0.9 0.4 -8.8
v 1.1 0.3 -8.8
v 1.1 0.4 -8.8
v 0 0.1 -9.9
v 0 0.2 -9.9
v 0 0.3 -9.9
v 0 0.4 -9.9
v 0.2 0.4 -9.9
v 0.2 0.5 -9.9
v 0.3 0.4 -9.9
v 0.3 0.5 -9.9
v 0.8 0.4 -9.9
v 0.8 0.5 -9.9
v 0.9 0.4 -9.9
v 0.9 0.5 -9.9
v 1.1 0.1 -9.9
v 1.1 0.2 -9.9
v 1.1 0.3 -9.9
v 1.1 0.4 -9.9
v 0 0.1 0
v 1.1 0.1 0
v 0 0.1 -9.9
v 1.1 0.1 -9.9
v 0.2 0.4 0
v 0.3 0.4 0
v 0.8 0.4 0
v 0.9 0.4 0
v 0.2 0.4 -1
v 0.3 0.4 -1
v 0.8 0.4 -1
v 0.9 0.4 -1
v 0.2 0.4 -1.1
v 0.3 0.4 -1.1
v 0.8 0.4 -1.1
v 0.9 0.4 -1.1
v 0.2 0.4 -2.1
v 0.3 0.4 -2.1
v 0.8 0.4 -2.1
v 0.9 0.4 -2.1
v 0.2 0.4 -2.2
v 0.3 0.4 -2.2
v 0.8 0.4 -2.2
v 0.9 0.4 -2.2
v 0.2 0.4 -3.2
v 0.3 0.4 -3.2
v 0.8 0.4 -3.2
v 0.9 0.4 -3.2
v 0.2 0.4 -3.3
v 0.3 0.4 -3.3
v 0.8 0.4 -3.3
v 0.9 0.4 -3.3
v 0.2 0.4 -4.3
v 0.3 0.4 -4.3
v 0.8 0.4 -4.3
v 0.9 0.4 -4.3
v 0.2 0.4 -4.4
v 0.3 0.4 -4.4
v 0.8 0.4 -4.4
v 0.9 0.4 -4.4
v 0.2 0.4 -4.5
v 0.3 0.4 -4.5
v 0.2 0.4 -5.4
v 0.3 0.4 -5.4
v 0.8 0.4 -5.4
v 0.9 0.4 -5.4
v 0.2 0.4 -5.5
v 0.3 0.4 -5.5
v 0.8 0.4 -5.5
v 0.9 0.4 -5.5
v 0.2 0.4 -6.5
v 0.3 0.4 -6.5
v 0.8 0.4 -6.5
v 0.9 0.4 -6.5
v 0.2 0.4 -6.6
v 0.3 0.4 -6.6
v 0.8 0.4 -6.6
v 0.9 0.4 -6.6
v 0.2 0.4 -7.6
v 0.3 0.4 -7.6
v 0.8 0.4 -7.6
v 0.9 0.4 -7.6
v 0.2 0.4 -7.7
v 0.3 0.4 -7.7
v 0.8 0.4 -7.7
v 0.9 0.4 -7.7
v 0.2 0.4 -8.7
v 0.3 0.4 -8.7
v 0.8 0.4 -8.7
v 0.9 0.4 -8.7
v 0.2 0.4 -8.8
v 0.3 0.4 -8.8
v 0.8 0.4 -8.8
v 0.9 0.4 -8.8
v 0.2 0.4 -9.8
v 0.3 0.4 -9.8
v 0.8 0.4 -9.8
v 0.9 0.4 -9.8
v 0 0.3 0
v 1.1 0.3 0
v 0 0.3 -1
v 1.1 0.3 -1
v 0 0.3 -1.1
v 1.1 0.3 -1.1
v 0 0.3 -2.1
v 1.1 0.3 -2.1
v 0 0.3 -2.2
v 1.1 0.3 -2.2
v 0 0.3 -3.2
v 1.1 0.3 -3.2
v 0 0.3 -3.3
v 1.1 0.3 -3.3
v 0 0.3 -4.3
v 1.1 0.3 -4.3
v 0 0.3 -4.4
v 1.1 0.3 -4.4
v 0 0.3 -5.4
v 1.1 0.3 -5.4
v 0 0.3 -5.5
v 1.1 0.3 -5.5
v 0 0.3 -6.5
v 1.1 0.3 -6.5
v 0 0.3 -6.6
v 1.1 0.3 -6.6
v 0 0.3 -7.6
v 1.1 0.3 -7.6
v 0 0.3 -7.7
v 1.1 0.3 -7.7
v 0 0.3 -8.7
v 1.1 0.3 -8.7
v 0 0.3 -8.8
v 1.1 0.3 -8.8
v 0 0.3 -9.8
v 1.1 0.3 -9.8
v 0 0.4 -1
v 0.2 0.4 -1
v 0.3 0.4 -1
v 0.8 0.4 -1
v 0.9 0.4 -1
v 1.1 0.4 -1
v 0 0.4 -1.1
v 0.2 0.4 -1.1
v 0.3 0.4 -1.1
v 0.8 0.4 -1.1
v 0.9 0.4 -1.1
v 1.1 0.4 -1.1
v 0 0.4 -2.1
v 0.2 0.4 -2.1
v 0.3 0.4 -2.1
v 0.8 0.4 -2.1
v 0.9 0.4 -2.1
v 1.1 0.4 -2.1
v 0 0.4 -2.2
v 0.2 0.4 -2.2
v 0.3 0.4 -2.2
v 0.8 0.4 -2.2
v 0.9 0.4 -2.2
v 1.1 0.4 -2.2
v 0 0.4 -3.2
v 0.2 0.4 -3.2
v 0.3 0.4 -3.2
v 0.8 0.4 -3.2
v 0.9 0.4 -3.2
v 1.1 0.4 -3.2
v 0 0.4 -3.3
v 0.2 0.4 -3.3
v 0.3 0.4 -3.3
v 0.8 0.4 -3.3
v 0.9 0.4 -3.3
v 1.1 0.4 -3.3
v 0 0.4 -4.3
v 0.2 0.4 -4.3
v 0.3 0.4 -4.3
v 0.8 0.4 -4.3
v 0.9 0.4 -4.3
v 1.1 0.4 -4.3
v 0 0.4 -4.4
v 0.2 0.4 -4.4
v 0.3 0.4 -4.4
v 0.8 0.4 -4.4
v 0.9 0.4 -4.4
v 1.1 0.4 -4.4
v 0 0.4 -5.4
v 0.2 0.4 -5.4
v 0.3 0.4 -5.4
v 0.8 0.4 -5.4
v 0.9 0.4 -5.4
v 1.1 0.4 -5.4
v 0 0.4 -5.5
v 0.2 0.4 -5.5
v 0.3 0.4 -5.5
v 0.8 0.4 -5.5
v 0.9 0.4 -5.5
v 1.1 0.4 -5.5
v 0 0.4 -6.5
v 0.2 0.4 -6.5
v 0.3 0.4 -6.5
v 0.8 0.4 -6.5
v 0.9 0.4 -6.5
v 1.1 0.4 -6.5
v 0 0.4 -6.6
v 0.2 0.4 -6.6
v 0.3 0.4 -6.6
v 0.8 0.4 -6.6
v 0.9 0.4 -6.6
v 1.1 0.4 -6.6
v 0 0.4 -7.6
v 0.2 0.4 -7.6
v 0.3 0.4 -7.6
v 0.8 0.4 -7.6
v 0.9 0.4 -7.6
v 1.1 0.4 -7.6
v 0 0.4 -7.7
v 0.2 0.4 -7.7
v 0.3 0.4 -7.7
v 0.8 0.4 -7.7
v 0.9 0.4 -7.7
v 1.1 0.4 -7.7
v 0 0.4 -8.7
v 0.2 0.4 -8.7
v 0.3 0.4 -8.7
v 0.8 0.4 -8.7
v 0.9 0.4 -8.7
v 1.1 0.4 -8.7
v 0 0.4 -8.8
v 0.2 0.4 -8.8
v 0.3 0.4 -8.8
v 0.8 0.4 -8.8
v 0.9 0.4 -8.8
v 1.1 0.4 -8.8
v 0 0.4 -9.8
v 0.2 0.4 -9.8
v 0.3 0.4 -9.8
v 0.8 0.4 -9.8
v 0.9 0.4 -9.8
v 1.1 0.4 -9.8
v 0 0.4 -9.9
v 0.2 0.4 -9.9
v 0.3 0.4 -9.9
v 0.8 0.4 -9.9
v 0.9 0.4 -9.9
v 1.1 0.4 -9.9
v 0.2 0.5 0
v 0.3 0.5 0
v 0.8 0.5 0
v 0.9 0.5 0
v 0.2 0.5 -4.4
v 0.3 0.5 -4.4
v 0.2 0.5 -4.5
v 0.3 0.5 -4.5
v 0.2 0.5 -9.9
v 0.3 0.5 -9.9
v 0.8 0.5 -9.9
v 0.9 0.5 -9.9

# faces
f 3/2/1 2/2/1 1/2/1
f 4/2/1 2/2/1 3/2/1
f 5/5/1 4/5/1 3/5/1
f 6/5/1 4/5/1 5/5/1
f 7/5/1 4/5/1 6/5/1
f 8/5/1 4/5/1 7/5/1
f 9/5/1 4/5/1 8/5/1
f 10/5/1 4/5/1 9/5/1
f 11/5/1 4/5/1 10/5/1
f 12/5/1 4/5/1 11/5/1
f 13/5/1 4/5/1 12/5/1
f 14/5/1 4/5/1 13/5/1
f 15/5/1 4/5/1 14/5/1
f 16/5/1 4/5/1 15/5/1
f 17/5/1 4/5/1 16/5/1
f 18/5/1 4/5/1 17/5/1
f 19/5/1 4/5/1 18/5/1
f 20/5/1 4/5/1 19/5/1
f 21/5/1 4/5/1 20/5/1
f 22/5/1 4/5/1 21/5/1
f 23/5/1 4/5/1 22/5/1
f 24/3/1 7/3/1 6/3/1
f 25/3/1 7/3/1 24/3/1
f 26/3/1 9/3/1 8/3/1
f 27/3/1 9/3/1 26/3/1
f 28/3/1 11/3/1 10/3/1
f 29/3/1 11/3/1 28/3/1
f 30/3/1 13/3/1 12/3/1
f 31/3/1 13/3/1 30/3/1
f 32/3/1 15/3/1 14/3/1
f 33/3/1 15/3/1 32/3/1
f 34/3/1 17/3/1 16/3/1
f 35/3/1 17/3/1 34/3/1
f 36/3/1 19/3/1 18/3/1
f 37/3/1 19/3/1 36/3/1
f 38/3/1 21/3/1 20/3/1
f 39/3/1 21/3/1 38/3/1
f 40/3/1 23/3/1 22/3/1
f 41/3/1 23/3/1 40/3/1
f 62/4/1 43/4/1 42/4/1
f 62/4/1 44/4/1 43/4/1
f 62/4/1 45/4/1 44/4/1
f 62/4/1 46/4/1 45/4/1
f 62/4/1 47/4/1 46/4/1
f 62/4/1 48/4/1 47/4/1
f 62/4/1 49/4/1 48/4/1
f 62/4/1 50/4/1 49/4/1
f 63/1/1 51/1/1 50/1/1
f 63/4/1 50/4/1 62/4/1
f 64/4/1 61/4/1 60/4/1
f 64/1/1 51/1/1 63/1/1
f 64/4/1 60/4/1 59/4/1
f 64/4/1 53/4/1 52/4/1
f 64/4/1 52/4/1 51/4/1
f 64/4/1 59/4/1 58/4/1
f 64/4/1 54/4/1 53/4/1
f 64/4/1 55/4/1 54/4/1
f 64/4/1 56/4/1 55/4/1
f 64/4/1 57/4/1 56/4/1
f 64/4/1 58/4/1 57/4/1
f 65/4/1 61/4/1 64/4/1
f 85/4/1 67/4/1 66/4/1
f 85/4/1 84/4/1 83/4/1
f 85/4/1 83/4/1 82/4/1
f 85/4/1 82/4/1 81/4/1
f 85/4/1 81/4/1 80/4/1
f 85/4/1 80/4/1 79/4/1
f 85/4/1 79/4/1 78/4/1
f 85/4/1 78/4/1 77/4/1
f 85/4/1 77/4/1 76/4/1
f 85/4/1 76/4/1 75/4/1
f 85/4/1 75/4/1 74/4/1
f 85/4/1 74/4/1 73/4/1
f 85/4/1 73/4/1 72/4/1
f 85/4/1 72/4/1 71/4/1
f 85/4/1 71/4/1 70/4/1
f 85/4/1 70/4/1 69/4/1
f 85/4/1 69/4/1 68/4/1
f 85/4/1 68/4/1 67/4/1
f 86/4/1 84/4/1 85/4/1
f 87/4/2 88/4/2 107/4/2
f 88/4/2 89/4/2 107/4/2
f 89/4/2 90/4/2 107/4/2
f 90/4/2 91/4/2 107/4/2
f 91/4/2 92/4/2 107/4/2
f 92/4/2 93/4/2 107/4/2
f 93/4/2 94/4/2 107/4/2
f 94/4/2 95/4/2 107/4/2
f 95/1/2 96/1/2 108/1/2
f 107/4/2 95/4/2 108/4/2
f 105/4/2 106/4/2 109/4/2
f 108/1/2 96/1/2 109/1/2
f 104/4/2 105/4/2 109/4/2
f 97/4/2 98/4/2 109/4/2
f 96/4/2 97/4/2 109/4/2
f 103/4/2 104/4/2 109/4/2
f 98/4/2 99/4/2 109/4/2
f 99/4/2 100/4/2 109/4/2
f 100/4/2 101/4/2 109/4/2
f 101/4/2 102/4/2 109/4/2
f 102/4/2 103/4/2 109/4/2
f 109/4/2 106/4/2 110/4/2
f 111/4/2 112/4/2 130/4/2
f 128/4/2 129/4/2 130/4/2
f 127/4/2 128/4/2 130/4/2
f 126/4/2 127/4/2 130/4/2
f 125/4/2 126/4/2 130/4/2
f 124/4/2 125/4/2 130/4/2
f 123/4/2 124/4/2 130/4/2
f 122/4/2 123/4/2 130/4/2
f 121/4/2 122/4/2 130/4/2
f 120/4/2 121/4/2 130/4/2
f 119/4/2 120/4/2 130/4/2
f 118/4/2 119/4/2 130/4/2
f 117/4/2 118/4/2 130/4/2
f 116/4/2 117/4/2 130/4/2
f 115/4/2 116/4/2 130/4/2
f 114/4/2 115/4/2 130/4/2
f 113/4/2 114/4/2 130/4/2
f 112/4/2 113/4/2 130/4/2
f 130/4/2 129/4/2 131/4/2
f 132/2/2 133/2/2 134/2/2
f 134/2/2 133/2/2 135/2/2
f 134/5/2 135/5/2 136/5/2
f 136/5/2 135/5/2 137/5/2
f 137/5/2 135/5/2 138/5/2
f 138/5/2 135/5/2 139/5/2
f 139/5/2 135/5/2 140/5/2
f 140/5/2 135/5/2 141/5/2
f 141/5/2 135/5/2 142/5/2
f 142/5/2 135/5/2 143/5/2
f 143/5/2 135/5/2 144/5/2
f 144/5/2 135/5/2 145/5/2
f 145/5/2 135/5/2 146/5/2
f 146/5/2 135/5/2 147/5/2
f 147/5/2 135/5/2 148/5/2
f 148/5/2 135/5/2 149/5/2
f 149/5/2 135/5/2 150/5/2
f 150/5/2 135/5/2 151/5/2
f 151/5/2 135/5/2 152/5/2
f 152/5/2 135/5/2 153/5/2
f 153/5/2 135/5/2 154/5/2
f 137/3/2 138/3/2 155/3/2
f 155/3/2 138/3/2 156/3/2
f 139/3/2 140/3/2 157/3/2
f 157/3/2 140/3/2 158/3/2
f 141/3/2 142/3/2 159/3/2
f 159/3/2 142/3/2 160/3/2
f 143/3/2 144/3/2 161/3/2
f 161/3/2 144/3/2 162/3/2
f 145/3/2 146/3/2 163/3/2
f 163/3/2 146/3/2 164/3/2
f 147/3/2 148/3/2 165/3/2
f 165/3/2 148/3/2 166/3/2
f 149/3/2 150/3/2 167/3/2
f 167/3/2 150/3/2 168/3/2
f 151/3/2 152/3/2 169/3/2
f 169/3/2 152/3/2 170/3/2
f 153/3/2 154/3/2 171/3/2
f 171/3/2 154/3/2 172/3/2
f 178/4/3 177/4/3 176/4/3
f 179/4/3 177/4/3 178/4/3
f 182/4/3 181/4/3 180/4/3
f 183/4/3 181/4/3 182/4/3
f 184/2/3 174/2/3 173/2/3
f 185/5/3 175/5/3 174/5/3
f 185/2/3 174/2/3 184/2/3
f 186/5/3 175/5/3 185/5/3
f 189/3/3 188/3/3 187/3/3
f 190/3/3 189/3/3 187/3/3
f 191/3/3 190/3/3 187/3/3
f 192/3/3 191/3/3 187/3/3
f 193/3/3 192/3/3 187/3/3
f 194/3/3 192/3/3 193/3/3
f 197/3/3 196/3/3 195/3/3
f 198/3/3 197/3/3 195/3/3
f 199/3/3 198/3/3 195/3/3
f 200/3/3 199/3/3 195/3/3
f 201/3/3 200/3/3 195/3/3
f 202/3/3 200/3/3 201/3/3
f 205/3/3 204/3/3 203/3/3
f 206/3/3 205/3/3 203/3/3
f 207/3/3 206/3/3 203/3/3
f 208/3/3 207/3/3 203/3/3
f 209/3/3 208/3/3 203/3/3
f 210/3/3 208/3/3 209/3/3
f 213/3/3 212/3/3 211/3/3
f 214/3/3 213/3/3 211/3/3
f 215/3/3 214/3/3 211/3/3
f 216/3/3 215/3/3 211/3/3
f 217/3/3 216/3/3 211/3/3
f 218/3/3 216/3/3 217/3/3
f 221/3/3 220/3/3 219/3/3
f 222/3/3 221/3/3 219/3/3
f 223/3/3 222/3/3 219/3/3
f 224/3/3 223/3/3 219/3/3
f 225/3/3 224/3/3 219/3/3
f 226/3/3 224/3/3 225/3/3
f 229/3/3 228/3/3 227/3/3
f 230/3/3 229/3/3 227/3/3
f 231/3/3 230/3/3 227/3/3
f 232/3/3 231/3/3 227/3/3
f 233/3/3 232/3/3 227/3/3
f 234/3/3 232/3/3 233/3/3
f 237/3/3 236/3/3 235/3/3
f 238/3/3 237/3/3 235/3/3
f 239/3/3 238/3/3 235/3/3
f 240/3/3 239/3/3 235/3/3
f 241/3/3 240/3/3 235/3/3
f 242/3/3 240/3/3 241/3/3
f 245/3/3 244/3/3 243/3/3
f 246/3/3 245/3/3 243/3/3
f 247/3/3 246/3/3 243/3/3
f 248/3/3 247/3/3 243/3/3
f 249/3/3 248/3/3 243/3/3
f 250/3/3 248/3/3 249/3/3
f 253/3/3 252/3/3 251/3/3
f 254/3/3 253/3/3 251/3/3
f 255/3/3 254/3/3 251/3/3
f 256/3/3 255/3/3 251/3/3
f 257/3/3 256/3/3 251/3/3
f 258/3/3 256/3/3 257/3/3
f 259/3/4 260/3/4 261/3/4
f 259/3/4 261/3/4 262/3/4
f 259/3/4 262/3/4 263/3/4
f 259/3/4 263/3/4 264/3/4
f 259/3/4 264/3/4 265/3/4
f 265/3/4 264/3/4 266/3/4
f 267/3/4 268/3/4 269/3/4
f 267/3/4 269/3/4 270/3/4
f 267/3/4 270/3/4 271/3/4
f 267/3/4 271/3/4 272/3/4
f 267/3/4 272/3/4 273/3/4
f 273/3/4 272/3/4 274/3/4
f 275/3/4 276/3/4 277/3/4
f 275/3/4 277/3/4 278/3/4
f 275/3/4 278/3/4 279/3/4
f 275/3/4 279/3/4 280/3/4
f 275/3/4 280/3/4 281/3/4
f 281/3/4 280/3/4 282/3/4
f 283/3/4 284/3/4 285/3/4
f 283/3/4 285/3/4 286/3/4
f 283/3/4 286/3/4 287/3/4
f 283/3/4 287/3/4 288/3/4
f 283/3/4 288/3/4 289/3/4
f 289/3/4 288/3/4 290/3/4
f 291/3/4 292/3/4 293/3/4
f 291/3/4 293/3/4 294/3/4
f 291/3/4 294/3/4 295/3/4
f 291/3/4 295/3/4 296/3/4
f 291/3/4 296/3/4 297/3/4
f 297/3/4 296/3/4 298/3/4
f 299/3/4 300/3/4 301/3/4
f 299/3/4 301/3/4 302/3/4
f 299/3/4 302/3/4 303/3/4
f 299/3/4 303/3/4 304/3/4
f 299/3/4 304/3/4 305/3/4
f 305/3/4 304/3/4 306/3/4
f 307/3/4 308/3/4 309/3/4
f 307/3/4 309/3/4 310/3/4
f 307/3/4 310/3/4 311/3/4
f 307/3/4 311/3/4 312/3/4
f 307/3/4 312/3/4 313/3/4
f 313/3/4 312/3/4 314/3/4
f 315/3/4 316/3/4 317/3/4
f 315/3/4 317/3/4 318/3/4
f 315/3/4 318/3/4 319/3/4
f 315/3/4 319/3/4 320/3/4
f 315/3/4 320/3/4 321/3/4
f 321/3/4 320/3/4 322/3/4
f 325/3/4 326/3/4 327/3/4
f 325/3/4 327/3/4 329/3/4
f 327/4/4 328/4/4 329/4/4
f 329/4/4 328/4/4 330/4/4
f 325/3/4 329/3/4 331/3/4
f 325/3/4 331/3/4 333/3/4
f 331/4/4 332/4/4 333/4/4
f 333/4/4 332/4/4 334/4/4
f 323/2/4 324/2/4 335/2/4
f 324/5/4 325/5/4 336/5/4
f 335/2/4 324/2/4 336/2/4
f 325/3/4 333/3/4 337/3/4
f 336/5/4 325/5/4 337/5/4
f 337/3/4 333/3/4 338/3/4
f 341/2/5 340/2/5 339/2/5
f 342/2/5 340/2/5 341/2/5
f 347/4/5 344/4/5 343/4/5
f 348/4/5 344/4/5 347/4/5
f 349/4/5 346/4/5 345/4/5
f 350/4/5 346/4/5 349/4/5
f 355/4/5 352/4/5 351/4/5
f 356/4/5 352/4/5 355/4/5
f 357/4/5 354/4/5 353/4/5
f 358/4/5 354/4/5 357/4/5
f 363/4/5 360/4/5 359/4/5
f 364/4/5 360/4/5 363/4/5
f 365/4/5 362/4/5 361/4/5
f 366/4/5 362/4/5 365/4/5
f 371/4/5 368/4/5 367/4/5
f 372/4/5 368/4/5 371/4/5
f 373/4/5 370/4/5 369/4/5
f 374/4/5 370/4/5 373/4/5
f 379/1/5 376/1/5 375/1/5
f 380/1/5 376/1/5 379/1/5
f 381/4/5 380/4/5 379/4/5
f 382/4/5 380/4/5 381/4/5
f 383/4/5 378/4/5 377/4/5
f 384/4/5 378/4/5 383/4/5
f 389/4/5 386/4/5 385/4/5
f 390/4/5 386/4/5 389/4/5
f 391/4/5 388/4/5 387/4/5
f 392/4/5 388/4/5 391/4/5
f 397/4/5 394/4/5 393/4/5
f 398/4/5 394/4/5 397/4/5
f 399/4/5 396/4/5 395/4/5
f 400/4/5 396/4/5 399/4/5
f 405/4/5 402/4/5 401/4/5
f 406/4/5 402/4/5 405/4/5
f 407/4/5 404/4/5 403/4/5
f 408/4/5 404/4/5 407/4/5
f 413/4/5 410/4/5 409/4/5
f 414/4/5 410/4/5 413/4/5
f 415/4/5 412/4/5 411/4/5
f 416/4/5 412/4/5 415/4/5
f 417/5/6 418/5/6 419/5/6
f 419/5/6 418/5/6 420/5/6
f 421/5/6 422/5/6 423/5/6
f 423/5/6 422/5/6 424/5/6
f 425/5/6 426/5/6 427/5/6
f 427/5/6 426/5/6 428/5/6
f 429/5/6 430/5/6 431/5/6
f 431/5/6 430/5/6 432/5/6
f 433/5/6 434/5/6 435/5/6
f 435/5/6 434/5/6 436/5/6
f 437/5/6 438/5/6 439/5/6
f 439/5/6 438/5/6 440/5/6
f 441/5/6 442/5/6 443/5/6
f 443/5/6 442/5/6 444/5/6
f 445/5/6 446/5/6 447/5/6
f 447/5/6 446/5/6 448/5/6
f 449/5/6 450/5/6 451/5/6
f 451/5/6 450/5/6 452/5/6
f 453/3/6 454/3/6 459/3/6
f 459/3/6 454/3/6 460/3/6
f 455/3/6 456/3/6 461/3/6
f 461/3/6 456/3/6 462/3/6
f 457/3/6 458/3/6 463/3/6
f 463/3/6 458/3/6 464/3/6
f 465/3/6 466/3/6 471/3/6
f 471/3/6 466/3/6 472/3/6
f 467/3/6 468/3/6 473/3/6
f 473/3/6 468/3/6 474/3/6
f 469/3/6 470/3/6 475/3/6
f 475/3/6 470/3/6 476/3/6
f 477/3/6 478/3/6 483/3/6
f 483/3/6 478/3/6 484/3/6
f 479/3/6 480/3/6 485/3/6
f 485/3/6 480/3/6 486/3/6
f 481/3/6 482/3/6 487/3/6
f 487/3/6 482/3/6 488/3/6
f 489/3/6 490/3/6 495/3/6
f 495/3/6 490/3/6 496/3/6
f 491/3/6 492/3/6 497/3/6
f 497/3/6 492/3/6 498/3/6
f 493/3/6 494/3/6 499/3/6
f 499/3/6 494/3/6 500/3/6
f 501/3/6 502/3/6 507/3/6
f 507/3/6 502/3/6 508/3/6
f 503/3/6 504/3/6 509/3/6
f 509/3/6 504/3/6 510/3/6
f 505/3/6 506/3/6 511/3/6
f 511/3/6 506/3/6 512/3/6
f 513/3/6 514/3/6 519/3/6
f 519/3/6 514/3/6 520/3/6
f 515/3/6 516/3/6 521/3/6
f 521/3/6 516/3/6 522/3/6
f 517/3/6 518/3/6 523/3/6
f 523/3/6 518/3/6 524/3/6
f 525/3/6 526/3/6 531/3/6
f 531/3/6 526/3/6 532/3/6
f 527/3/6 528/3/6 533/3/6
f 533/3/6 528/3/6 534/3/6
f 529/3/6 530/3/6 535/3/6
f 535/3/6 530/3/6 536/3/6
f 537/3/6 538/3/6 543/3/6
f 543/3/6 538/3/6 544/3/6
f 539/3/6 540/3/6 545/3/6
f 545/3/6 540/3/6 546/3/6
f 541/3/6 542/3/6 547/3/6
f 547/3/6 542/3/6 548/3/6
f 549/3/6 550/3/6 555/3/6
f 555/3/6 550/3/6 556/3/6
f 551/3/6 552/3/6 557/3/6
f 557/3/6 552/3/6 558/3/6
f 553/3/6 554/3/6 559/3/6
f 559/3/6 554/3/6 560/3/6
f 561/4/6 562/4/6 565/4/6
f 565/4/6 562/4/6 566/4/6
f 565/1/6 566/1/6 567/1/6
f 567/1/6 566/1/6 568/1/6
f 567/4/6 568/4/6 569/4/6
f 569/4/6 568/4/6 570/4/6
f 563/4/6 564/4/6 571/4/6
f 571/4/6 564/4/6 572/4/6
