# MagicaVoxel @ Ephtracy

# group
o 

# material
mtllib CrossyRoadLilyPad.mtl
usemtl palette

# normals
vn -1 0 0
vn 1 0 0
vn 0 0 1
vn 0 0 -1
vn 0 -1 0
vn 0 1 0

# texcoords
vt 0.892578 0.5
vt 0.904297 0.5

# verts
v 1.8 2 -1.8
v 1.8 2 -2.7
v 1.8 2.1 -1.8
v 1.8 2.1 -2.7
v 2.4 2 -2.4
v 2.4 2 -2.7
v 2.4 2.1 -2.4
v 2.4 2.1 -2.7
v 2.7 2 -1.8
v 2.7 2 -2
v 2.7 2 -2.2
v 2.7 2 -2.4
v 2.7 2.1 -1.8
v 2.7 2.1 -2
v 2.7 2.1 -2.2
v 2.7 2.1 -2.4
v 1.8 2 -1.8
v 1.8 2.1 -1.8
v 2.7 2 -1.8
v 2.7 2.1 -1.8
v 2.4 2 -2.4
v 2.4 2.1 -2.4
v 2.7 2 -2.4
v 2.7 2.1 -2.4
v 1.8 2 -2.7
v 1.8 2.1 -2.7
v 2 2 -2.7
v 2 2.1 -2.7
v 2.2 2 -2.7
v 2.2 2.1 -2.7
v 2.4 2 -2.7
v 2.4 2.1 -2.7
v 1.8 2 -1.8
v 2.7 2 -1.8
v 2 2 -2
v 2.7 2 -2
v 2.2 2 -2.2
v 2.7 2 -2.2
v 2.4 2 -2.4
v 2.7 2 -2.4
v 1.8 2 -2.7
v 2 2 -2.7
v 2.2 2 -2.7
v 2.4 2 -2.7
v 1.8 2.1 -1.8
v 2.7 2.1 -1.8
v 2 2.1 -2
v 2.7 2.1 -2
v 2.2 2.1 -2.2
v 2.7 2.1 -2.2
v 2.4 2.1 -2.4
v 2.7 2.1 -2.4
v 1.8 2.1 -2.7
v 2 2.1 -2.7
v 2.2 2.1 -2.7
v 2.4 2.1 -2.7

# faces
f 3/1/1 2/1/1 1/1/1
f 4/1/1 2/1/1 3/1/1
f 5/1/2 6/1/2 7/1/2
f 7/1/2 6/1/2 8/1/2
f 9/1/2 10/1/2 13/1/2
f 10/2/2 11/2/2 14/2/2
f 13/1/2 10/1/2 14/1/2
f 11/1/2 12/1/2 15/1/2
f 14/2/2 11/2/2 15/2/2
f 15/1/2 12/1/2 16/1/2
f 19/1/3 18/1/3 17/1/3
f 20/1/3 18/1/3 19/1/3
f 21/1/4 22/1/4 23/1/4
f 23/1/4 22/1/4 24/1/4
f 25/1/4 26/1/4 27/1/4
f 27/1/4 26/1/4 28/1/4
f 27/2/4 28/2/4 29/2/4
f 29/2/4 28/2/4 30/2/4
f 29/1/4 30/1/4 31/1/4
f 31/1/4 30/1/4 32/1/4
f 35/1/5 34/1/5 33/1/5
f 36/1/5 34/1/5 35/1/5
f 37/2/5 36/2/5 35/2/5
f 38/2/5 36/2/5 37/2/5
f 39/1/5 38/1/5 37/1/5
f 40/1/5 38/1/5 39/1/5
f 41/1/5 35/1/5 33/1/5
f 42/2/5 37/2/5 35/2/5
f 42/1/5 35/1/5 41/1/5
f 43/1/5 39/1/5 37/1/5
f 43/2/5 37/2/5 42/2/5
f 44/1/5 39/1/5 43/1/5
f 45/1/6 46/1/6 47/1/6
f 47/1/6 46/1/6 48/1/6
f 47/2/6 48/2/6 49/2/6
f 49/2/6 48/2/6 50/2/6
f 49/1/6 50/1/6 51/1/6
f 51/1/6 50/1/6 52/1/6
f 45/1/6 47/1/6 53/1/6
f 47/2/6 49/2/6 54/2/6
f 53/1/6 47/1/6 54/1/6
f 49/1/6 51/1/6 55/1/6
f 54/2/6 49/2/6 55/2/6
f 55/1/6 51/1/6 56/1/6
