# MagicaVoxel @ Ephtracy

# group
o 

# material
mtllib CrossyRoadPoliceCar.mtl
usemtl palette

# normals
vn -1 0 0
vn 1 0 0
vn 0 0 1
vn 0 0 -1
vn 0 -1 0
vn 0 1 0

# texcoords
vt 0.751953 0.5
vt 0.779297 0.5
vt 0.810547 0.5
vt 0.845703 0.5
vt 0.958984 0.5
vt 0.978516 0.5
vt 0.994141 0.5

# verts
v 0 1.2 -0.4
v 0 1.2 -0.5
v 0 1.4 -0.4
v 0 1.4 -0.5
v 0.1 0.4 -0.1
v 0.1 0.4 -0.2
v 0.1 0.4 -0.3
v 0.1 0.4 -0.5
v 0.1 0.5 0
v 0.1 0.5 -0.1
v 0.1 0.5 -0.2
v 0.1 0.5 -0.3
v 0.1 0.6 -0.1
v 0.1 0.6 -0.2
v 0.1 0.6 -0.3
v 0.1 0.6 -0.4
v 0.1 0.7 -0.1
v 0.1 0.7 -0.2
v 0.1 0.8 0
v 0.1 0.8 -0.1
v 0.1 0.8 -0.2
v 0.1 0.8 -0.3
v 0.1 1.1 -0.3
v 0.1 1.1 -0.4
v 0.1 1.2 -0.4
v 0.1 1.2 -0.5
v 0.1 1.4 0
v 0.1 1.4 -0.1
v 0.1 1.4 -0.2
v 0.1 1.4 -0.3
v 0.1 1.4 -0.4
v 0.1 1.4 -0.5
v 0.1 1.5 -0.1
v 0.1 1.5 -0.2
v 0.1 1.6 -0.1
v 0.1 1.6 -0.2
v 0.1 1.7 0
v 0.1 1.7 -0.1
v 0.1 1.7 -0.2
v 0.1 1.7 -0.3
v 0.1 1.9 -0.1
v 0.1 1.9 -0.2
v 0.1 1.9 -0.3
v 0.1 1.9 -0.5
v 0.2 0.6 -0.5
v 0.2 0.6 -0.8
v 0.2 0.7 -0.5
v 0.2 0.7 -0.7
v 0.2 0.8 -0.5
v 0.2 0.8 -0.7
v 0.2 0.9 -0.5
v 0.2 0.9 -0.7
v 0.2 1.3 -0.5
v 0.2 1.3 -0.7
v 0.2 1.4 -0.5
v 0.2 1.4 -0.8
v 0.3 0.9 -0.8
v 0.3 0.9 -0.9
v 0.3 1 -0.8
v 0.3 1 -0.9
v 0.3 1.1 -0.8
v 0.3 1.1 -0.9
v 0.6 1.8 -0.1
v 0.6 1.8 -0.2
v 0.6 1.9 -0.1
v 0.6 1.9 -0.2
v 0.7 0.5 0
v 0.7 0.5 -0.1
v 0.7 0.8 0
v 0.7 0.8 -0.1
v 0.7 1.4 0
v 0.7 1.4 -0.1
v 0.7 1.7 0
v 0.7 1.7 -0.1
v 0.2 0.5 0
v 0.2 0.5 -0.1
v 0.2 0.8 0
v 0.2 0.8 -0.1
v 0.2 1.4 0
v 0.2 1.4 -0.1
v 0.2 1.7 0
v 0.2 1.7 -0.1
v 0.3 1.8 -0.1
v 0.3 1.8 -0.2
v 0.3 1.9 -0.1
v 0.3 1.9 -0.2
v 0.6 0.9 -0.8
v 0.6 0.9 -0.9
v 0.6 1 -0.8
v 0.6 1 -0.9
v 0.6 1.1 -0.8
v 0.6 1.1 -0.9
v 0.7 0.6 -0.5
v 0.7 0.6 -0.8
v 0.7 0.7 -0.5
v 0.7 0.7 -0.7
v 0.7 0.8 -0.5
v 0.7 0.8 -0.7
v 0.7 0.9 -0.5
v 0.7 0.9 -0.7
v 0.7 1.3 -0.5
v 0.7 1.3 -0.7
v 0.7 1.4 -0.5
v 0.7 1.4 -0.8
v 0.8 0.4 -0.1
v 0.8 0.4 -0.2
v 0.8 0.4 -0.3
v 0.8 0.4 -0.5
v 0.8 0.5 0
v 0.8 0.5 -0.1
v 0.8 0.5 -0.2
v 0.8 0.5 -0.3
v 0.8 0.6 -0.1
v 0.8 0.6 -0.2
v 0.8 0.6 -0.3
v 0.8 0.6 -0.4
v 0.8 0.7 -0.1
v 0.8 0.7 -0.2
v 0.8 0.8 0
v 0.8 0.8 -0.1
v 0.8 0.8 -0.2
v 0.8 0.8 -0.3
v 0.8 1.1 -0.3
v 0.8 1.1 -0.4
v 0.8 1.2 -0.4
v 0.8 1.2 -0.5
v 0.8 1.4 0
v 0.8 1.4 -0.1
v 0.8 1.4 -0.2
v 0.8 1.4 -0.3
v 0.8 1.4 -0.4
v 0.8 1.4 -0.5
v 0.8 1.5 -0.1
v 0.8 1.5 -0.2
v 0.8 1.6 -0.1
v 0.8 1.6 -0.2
v 0.8 1.7 0
v 0.8 1.7 -0.1
v 0.8 1.7 -0.2
v 0.8 1.7 -0.3
v 0.8 1.9 -0.1
v 0.8 1.9 -0.2
v 0.8 1.9 -0.3
v 0.8 1.9 -0.5
v 0.9 1.2 -0.4
v 0.9 1.2 -0.5
v 0.9 1.4 -0.4
v 0.9 1.4 -0.5
v 0.1 0.5 0
v 0.1 0.8 0
v 0.1 1.4 0
v 0.1 1.7 0
v 0.2 0.5 0
v 0.2 0.8 0
v 0.2 1.4 0
v 0.2 1.7 0
v 0.7 0.5 0
v 0.7 0.8 0
v 0.7 1.4 0
v 0.7 1.7 0
v 0.8 0.5 0
v 0.8 0.8 0
v 0.8 1.4 0
v 0.8 1.7 0
v 0.1 0.4 -0.1
v 0.1 0.5 -0.1
v 0.1 0.8 -0.1
v 0.1 1.4 -0.1
v 0.1 1.7 -0.1
v 0.1 1.9 -0.1
v 0.2 0.5 -0.1
v 0.2 0.8 -0.1
v 0.2 1.4 -0.1
v 0.2 1.7 -0.1
v 0.3 1.8 -0.1
v 0.3 1.9 -0.1
v 0.6 1.8 -0.1
v 0.6 1.9 -0.1
v 0.7 0.5 -0.1
v 0.7 0.8 -0.1
v 0.7 1.4 -0.1
v 0.7 1.7 -0.1
v 0.8 0.4 -0.1
v 0.8 0.5 -0.1
v 0.8 0.8 -0.1
v 0.8 1.4 -0.1
v 0.8 1.7 -0.1
v 0.8 1.9 -0.1
v 0.3 1.8 -0.2
v 0.3 1.9 -0.2
v 0.6 1.8 -0.2
v 0.6 1.9 -0.2
v 0 1.2 -0.4
v 0 1.4 -0.4
v 0.1 1.2 -0.4
v 0.1 1.4 -0.4
v 0.8 1.2 -0.4
v 0.8 1.4 -0.4
v 0.9 1.2 -0.4
v 0.9 1.4 -0.4
v 0 1.2 -0.5
v 0 1.4 -0.5
v 0.1 0.4 -0.5
v 0.1 1.2 -0.5
v 0.1 1.4 -0.5
v 0.1 1.9 -0.5
v 0.2 0.6 -0.5
v 0.2 0.7 -0.5
v 0.2 0.8 -0.5
v 0.2 0.9 -0.5
v 0.2 1.3 -0.5
v 0.2 1.4 -0.5
v 0.3 0.4 -0.5
v 0.3 0.6 -0.5
v 0.3 1.4 -0.5
v 0.3 1.9 -0.5
v 0.6 0.4 -0.5
v 0.6 0.6 -0.5
v 0.6 1.4 -0.5
v 0.6 1.9 -0.5
v 0.7 0.6 -0.5
v 0.7 0.7 -0.5
v 0.7 0.8 -0.5
v 0.7 0.9 -0.5
v 0.7 1.3 -0.5
v 0.7 1.4 -0.5
v 0.8 0.4 -0.5
v 0.8 1.2 -0.5
v 0.8 1.4 -0.5
v 0.8 1.9 -0.5
v 0.9 1.2 -0.5
v 0.9 1.4 -0.5
v 0.2 0.6 -0.8
v 0.2 1.4 -0.8
v 0.3 0.9 -0.8
v 0.3 1 -0.8
v 0.3 1.1 -0.8
v 0.4 1.1 -0.8
v 0.5 1.1 -0.8
v 0.6 0.9 -0.8
v 0.6 1 -0.8
v 0.6 1.1 -0.8
v 0.7 0.6 -0.8
v 0.7 1.4 -0.8
v 0.3 0.9 -0.9
v 0.3 1 -0.9
v 0.3 1.1 -0.9
v 0.4 1 -0.9
v 0.4 1.1 -0.9
v 0.5 1 -0.9
v 0.5 1.1 -0.9
v 0.6 0.9 -0.9
v 0.6 1 -0.9
v 0.6 1.1 -0.9
v 0.1 0.4 -0.1
v 0.8 0.4 -0.1
v 0.1 0.4 -0.2
v 0.8 0.4 -0.2
v 0.1 0.4 -0.3
v 0.3 0.4 -0.3
v 0.6 0.4 -0.3
v 0.8 0.4 -0.3
v 0.1 0.4 -0.5
v 0.3 0.4 -0.5
v 0.6 0.4 -0.5
v 0.8 0.4 -0.5
v 0.1 0.5 0
v 0.2 0.5 0
v 0.7 0.5 0
v 0.8 0.5 0
v 0.1 0.5 -0.1
v 0.2 0.5 -0.1
v 0.7 0.5 -0.1
v 0.8 0.5 -0.1
v 0.2 0.6 -0.5
v 0.3 0.6 -0.5
v 0.6 0.6 -0.5
v 0.7 0.6 -0.5
v 0.3 0.6 -0.7
v 0.6 0.6 -0.7
v 0.2 0.6 -0.8
v 0.7 0.6 -0.8
v 0.3 0.9 -0.8
v 0.6 0.9 -0.8
v 0.3 0.9 -0.9
v 0.6 0.9 -0.9
v 0 1.2 -0.4
v 0.1 1.2 -0.4
v 0.8 1.2 -0.4
v 0.9 1.2 -0.4
v 0 1.2 -0.5
v 0.1 1.2 -0.5
v 0.8 1.2 -0.5
v 0.9 1.2 -0.5
v 0.1 1.4 0
v 0.2 1.4 0
v 0.7 1.4 0
v 0.8 1.4 0
v 0.1 1.4 -0.1
v 0.2 1.4 -0.1
v 0.7 1.4 -0.1
v 0.8 1.4 -0.1
v 0.1 0.8 0
v 0.2 0.8 0
v 0.7 0.8 0
v 0.8 0.8 0
v 0.1 0.8 -0.1
v 0.2 0.8 -0.1
v 0.7 0.8 -0.1
v 0.8 0.8 -0.1
v 0.3 1.1 -0.8
v 0.4 1.1 -0.8
v 0.5 1.1 -0.8
v 0.6 1.1 -0.8
v 0.3 1.1 -0.9
v 0.4 1.1 -0.9
v 0.5 1.1 -0.9
v 0.6 1.1 -0.9
v 0 1.4 -0.4
v 0.1 1.4 -0.4
v 0.8 1.4 -0.4
v 0.9 1.4 -0.4
v 0 1.4 -0.5
v 0.1 1.4 -0.5
v 0.2 1.4 -0.5
v 0.3 1.4 -0.5
v 0.6 1.4 -0.5
v 0.7 1.4 -0.5
v 0.8 1.4 -0.5
v 0.9 1.4 -0.5
v 0.3 1.4 -0.7
v 0.6 1.4 -0.7
v 0.2 1.4 -0.8
v 0.7 1.4 -0.8
v 0.1 1.7 0
v 0.2 1.7 0
v 0.7 1.7 0
v 0.8 1.7 0
v 0.1 1.7 -0.1
v 0.2 1.7 -0.1
v 0.7 1.7 -0.1
v 0.8 1.7 -0.1
v 0.3 1.8 -0.1
v 0.6 1.8 -0.1
v 0.3 1.8 -0.2
v 0.6 1.8 -0.2
v 0.1 1.9 -0.1
v 0.3 1.9 -0.1
v 0.6 1.9 -0.1
v 0.8 1.9 -0.1
v 0.1 1.9 -0.2
v 0.3 1.9 -0.2
v 0.6 1.9 -0.2
v 0.8 1.9 -0.2
v 0.1 1.9 -0.3
v 0.2 1.9 -0.3
v 0.3 1.9 -0.3
v 0.6 1.9 -0.3
v 0.7 1.9 -0.3
v 0.8 1.9 -0.3
v 0.2 1.9 -0.4
v 0.3 1.9 -0.4
v 0.6 1.9 -0.4
v 0.7 1.9 -0.4
v 0.1 1.9 -0.5
v 0.3 1.9 -0.5
v 0.6 1.9 -0.5
v 0.8 1.9 -0.5

# faces
f 3/3/1 2/3/1 1/3/1
f 4/3/1 2/3/1 3/3/1
f 10/6/1 6/6/1 5/6/1
f 11/3/1 7/3/1 6/3/1
f 11/6/1 6/6/1 10/6/1
f 12/2/1 8/2/1 7/2/1
f 12/3/1 7/3/1 11/3/1
f 13/7/1 11/7/1 10/7/1
f 13/7/1 10/7/1 9/7/1
f 13/7/1 12/7/1 11/7/1
f 14/7/1 12/7/1 13/7/1
f 15/2/1 8/2/1 12/2/1
f 15/7/1 12/7/1 14/7/1
f 16/2/1 8/2/1 15/2/1
f 17/5/1 14/5/1 13/5/1
f 17/7/1 13/7/1 9/7/1
f 18/7/1 15/7/1 14/7/1
f 18/5/1 14/5/1 17/5/1
f 19/7/1 17/7/1 9/7/1
f 19/7/1 18/7/1 17/7/1
f 20/7/1 18/7/1 19/7/1
f 21/7/1 15/7/1 18/7/1
f 21/7/1 18/7/1 20/7/1
f 22/5/1 16/5/1 15/5/1
f 22/7/1 15/7/1 21/7/1
f 23/5/1 16/5/1 22/5/1
f 23/3/1 22/3/1 21/3/1
f 24/2/1 8/2/1 16/2/1
f 24/5/1 16/5/1 23/5/1
f 25/2/1 24/2/1 23/2/1
f 25/2/1 8/2/1 24/2/1
f 26/2/1 8/2/1 25/2/1
f 28/6/1 21/6/1 20/6/1
f 29/3/1 23/3/1 21/3/1
f 29/6/1 21/6/1 28/6/1
f 30/2/1 25/2/1 23/2/1
f 30/3/1 23/3/1 29/3/1
f 31/2/1 25/2/1 30/2/1
f 33/7/1 28/7/1 27/7/1
f 33/7/1 29/7/1 28/7/1
f 33/7/1 30/7/1 29/7/1
f 34/7/1 30/7/1 33/7/1
f 35/7/1 33/7/1 27/7/1
f 35/5/1 34/5/1 33/5/1
f 36/7/1 30/7/1 34/7/1
f 36/5/1 34/5/1 35/5/1
f 37/7/1 35/7/1 27/7/1
f 37/7/1 36/7/1 35/7/1
f 38/7/1 36/7/1 37/7/1
f 39/7/1 30/7/1 36/7/1
f 39/7/1 36/7/1 38/7/1
f 40/2/1 32/2/1 31/2/1
f 40/7/1 30/7/1 39/7/1
f 40/2/1 31/2/1 30/2/1
f 41/6/1 39/6/1 38/6/1
f 42/3/1 40/3/1 39/3/1
f 42/6/1 39/6/1 41/6/1
f 43/2/1 32/2/1 40/2/1
f 43/3/1 40/3/1 42/3/1
f 44/2/1 32/2/1 43/2/1
f 47/5/1 46/5/1 45/5/1
f 48/5/1 46/5/1 47/5/1
f 49/7/1 48/7/1 47/7/1
f 50/5/1 46/5/1 48/5/1
f 50/7/1 48/7/1 49/7/1
f 51/5/1 50/5/1 49/5/1
f 52/5/1 46/5/1 50/5/1
f 52/5/1 50/5/1 51/5/1
f 53/7/1 52/7/1 51/7/1
f 54/5/1 46/5/1 52/5/1
f 54/7/1 52/7/1 53/7/1
f 55/5/1 54/5/1 53/5/1
f 56/5/1 46/5/1 54/5/1
f 56/5/1 54/5/1 55/5/1
f 59/6/1 58/6/1 57/6/1
f 60/6/1 58/6/1 59/6/1
f 61/1/1 60/1/1 59/1/1
f 62/1/1 60/1/1 61/1/1
f 65/6/1 64/6/1 63/6/1
f 66/6/1 64/6/1 65/6/1
f 69/7/1 68/7/1 67/7/1
f 70/7/1 68/7/1 69/7/1
f 73/7/1 72/7/1 71/7/1
f 74/7/1 72/7/1 73/7/1
f 75/7/2 76/7/2 77/7/2
f 77/7/2 76/7/2 78/7/2
f 79/7/2 80/7/2 81/7/2
f 81/7/2 80/7/2 82/7/2
f 83/6/2 84/6/2 85/6/2
f 85/6/2 84/6/2 86/6/2
f 87/6/2 88/6/2 89/6/2
f 89/6/2 88/6/2 90/6/2
f 89/4/2 90/4/2 91/4/2
f 91/4/2 90/4/2 92/4/2
f 93/5/2 94/5/2 95/5/2
f 95/5/2 94/5/2 96/5/2
f 95/7/2 96/7/2 97/7/2
f 96/5/2 94/5/2 98/5/2
f 97/7/2 96/7/2 98/7/2
f 97/5/2 98/5/2 99/5/2
f 98/5/2 94/5/2 100/5/2
f 99/5/2 98/5/2 100/5/2
f 99/7/2 100/7/2 101/7/2
f 100/5/2 94/5/2 102/5/2
f 101/7/2 100/7/2 102/7/2
f 101/5/2 102/5/2 103/5/2
f 102/5/2 94/5/2 104/5/2
f 103/5/2 102/5/2 104/5/2
f 105/6/2 106/6/2 110/6/2
f 106/3/2 107/3/2 111/3/2
f 110/6/2 106/6/2 111/6/2
f 107/2/2 108/2/2 112/2/2
f 111/3/2 107/3/2 112/3/2
f 110/7/2 111/7/2 113/7/2
f 109/7/2 110/7/2 113/7/2
f 111/7/2 112/7/2 113/7/2
f 113/7/2 112/7/2 114/7/2
f 112/2/2 108/2/2 115/2/2
f 114/7/2 112/7/2 115/7/2
f 115/2/2 108/2/2 116/2/2
f 113/5/2 114/5/2 117/5/2
f 109/7/2 113/7/2 117/7/2
f 114/7/2 115/7/2 118/7/2
f 117/5/2 114/5/2 118/5/2
f 109/7/2 117/7/2 119/7/2
f 117/7/2 118/7/2 119/7/2
f 119/7/2 118/7/2 120/7/2
f 118/7/2 115/7/2 121/7/2
f 120/7/2 118/7/2 121/7/2
f 115/5/2 116/5/2 122/5/2
f 121/7/2 115/7/2 122/7/2
f 122/5/2 116/5/2 123/5/2
f 121/3/2 122/3/2 123/3/2
f 116/2/2 108/2/2 124/2/2
f 123/5/2 116/5/2 124/5/2
f 123/2/2 124/2/2 125/2/2
f 124/2/2 108/2/2 125/2/2
f 125/2/2 108/2/2 126/2/2
f 120/6/2 121/6/2 128/6/2
f 121/3/2 123/3/2 129/3/2
f 128/6/2 121/6/2 129/6/2
f 123/2/2 125/2/2 130/2/2
f 129/3/2 123/3/2 130/3/2
f 130/2/2 125/2/2 131/2/2
f 127/7/2 128/7/2 133/7/2
f 128/7/2 129/7/2 133/7/2
f 129/7/2 130/7/2 133/7/2
f 133/7/2 130/7/2 134/7/2
f 127/7/2 133/7/2 135/7/2
f 133/5/2 134/5/2 135/5/2
f 134/7/2 130/7/2 136/7/2
f 135/5/2 134/5/2 136/5/2
f 127/7/2 135/7/2 137/7/2
f 135/7/2 136/7/2 137/7/2
f 137/7/2 136/7/2 138/7/2
f 136/7/2 130/7/2 139/7/2
f 138/7/2 136/7/2 139/7/2
f 131/2/2 132/2/2 140/2/2
f 139/7/2 130/7/2 140/7/2
f 130/2/2 131/2/2 140/2/2
f 138/6/2 139/6/2 141/6/2
f 139/3/2 140/3/2 142/3/2
f 141/6/2 139/6/2 142/6/2
f 140/2/2 132/2/2 143/2/2
f 142/3/2 140/3/2 143/3/2
f 143/2/2 132/2/2 144/2/2
f 145/3/2 146/3/2 147/3/2
f 147/3/2 146/3/2 148/3/2
f 153/7/3 150/7/3 149/7/3
f 154/7/3 150/7/3 153/7/3
f 155/7/3 152/7/3 151/7/3
f 156/7/3 152/7/3 155/7/3
f 161/7/3 158/7/3 157/7/3
f 162/7/3 158/7/3 161/7/3
f 163/7/3 160/7/3 159/7/3
f 164/7/3 160/7/3 163/7/3
f 171/6/3 166/6/3 165/6/3
f 172/6/3 168/6/3 167/6/3
f 173/6/3 168/6/3 172/6/3
f 174/6/3 170/6/3 169/6/3
f 175/6/3 173/6/3 172/6/3
f 175/6/3 174/6/3 173/6/3
f 175/6/3 170/6/3 174/6/3
f 175/6/3 172/6/3 171/6/3
f 176/6/3 170/6/3 175/6/3
f 177/6/3 175/6/3 171/6/3
f 179/6/3 171/6/3 165/6/3
f 179/6/3 178/6/3 177/6/3
f 179/6/3 177/6/3 171/6/3
f 180/6/3 178/6/3 179/6/3
f 181/6/3 178/6/3 180/6/3
f 182/6/3 178/6/3 181/6/3
f 183/6/3 179/6/3 165/6/3
f 184/6/3 179/6/3 183/6/3
f 185/6/3 181/6/3 180/6/3
f 186/6/3 181/6/3 185/6/3
f 187/6/3 178/6/3 182/6/3
f 188/6/3 178/6/3 187/6/3
f 191/3/3 190/3/3 189/3/3
f 192/3/3 190/3/3 191/3/3
f 195/3/3 194/3/3 193/3/3
f 196/3/3 194/3/3 195/3/3
f 199/3/3 198/3/3 197/3/3
f 200/3/3 198/3/3 199/3/3
f 201/3/4 202/3/4 204/3/4
f 204/3/4 202/3/4 205/3/4
f 203/2/4 204/2/4 207/2/4
f 205/2/4 206/2/4 207/2/4
f 204/2/4 205/2/4 207/2/4
f 207/2/4 206/2/4 208/2/4
f 208/2/4 206/2/4 209/2/4
f 209/2/4 206/2/4 210/2/4
f 210/2/4 206/2/4 211/2/4
f 211/2/4 206/2/4 212/2/4
f 203/2/4 207/2/4 213/2/4
f 213/2/4 207/2/4 214/2/4
f 212/2/4 206/2/4 215/2/4
f 215/2/4 206/2/4 216/2/4
f 213/3/4 214/3/4 217/3/4
f 217/3/4 214/3/4 218/3/4
f 215/3/4 216/3/4 219/3/4
f 219/3/4 216/3/4 220/3/4
f 217/2/4 218/2/4 221/2/4
f 219/2/4 220/2/4 226/2/4
f 224/2/4 225/2/4 227/2/4
f 225/2/4 226/2/4 227/2/4
f 217/2/4 221/2/4 227/2/4
f 221/2/4 222/2/4 227/2/4
f 223/2/4 224/2/4 227/2/4
f 222/2/4 223/2/4 227/2/4
f 227/2/4 226/2/4 228/2/4
f 226/2/4 220/2/4 229/2/4
f 228/2/4 226/2/4 229/2/4
f 229/2/4 220/2/4 230/2/4
f 228/3/4 229/3/4 231/3/4
f 231/3/4 229/3/4 232/3/4
f 233/5/4 234/5/4 235/5/4
f 235/5/4 234/5/4 236/5/4
f 236/5/4 234/5/4 237/5/4
f 237/5/4 234/5/4 238/5/4
f 238/5/4 234/5/4 239/5/4
f 233/5/4 235/5/4 240/5/4
f 239/5/4 234/5/4 242/5/4
f 240/5/4 241/5/4 243/5/4
f 241/5/4 242/5/4 243/5/4
f 233/5/4 240/5/4 243/5/4
f 242/5/4 234/5/4 244/5/4
f 243/5/4 242/5/4 244/5/4
f 245/6/4 246/6/4 248/6/4
f 246/1/4 247/1/4 248/1/4
f 248/1/4 247/1/4 249/1/4
f 245/6/4 248/6/4 250/6/4
f 248/5/4 249/5/4 250/5/4
f 250/5/4 249/5/4 251/5/4
f 245/6/4 250/6/4 252/6/4
f 250/4/4 251/4/4 253/4/4
f 252/6/4 250/6/4 253/6/4
f 253/4/4 251/4/4 254/4/4
f 257/6/5 256/6/5 255/6/5
f 258/6/5 256/6/5 257/6/5
f 259/3/5 258/3/5 257/3/5
f 260/3/5 258/3/5 259/3/5
f 261/3/5 258/3/5 260/3/5
f 262/3/5 258/3/5 261/3/5
f 263/2/5 260/2/5 259/2/5
f 264/3/5 261/3/5 260/3/5
f 264/2/5 260/2/5 263/2/5
f 265/2/5 262/2/5 261/2/5
f 265/3/5 261/3/5 264/3/5
f 266/2/5 262/2/5 265/2/5
f 271/7/5 268/7/5 267/7/5
f 272/7/5 268/7/5 271/7/5
f 273/7/5 270/7/5 269/7/5
f 274/7/5 270/7/5 273/7/5
f 279/5/5 276/5/5 275/5/5
f 279/7/5 277/7/5 276/7/5
f 280/5/5 278/5/5 277/5/5
f 280/7/5 277/7/5 279/7/5
f 281/5/5 279/5/5 275/5/5
f 281/5/5 280/5/5 279/5/5
f 282/5/5 278/5/5 280/5/5
f 282/5/5 280/5/5 281/5/5
f 285/6/5 284/6/5 283/6/5
f 286/6/5 284/6/5 285/6/5
f 291/3/5 288/3/5 287/3/5
f 292/3/5 288/3/5 291/3/5
f 293/3/5 290/3/5 289/3/5
f 294/3/5 290/3/5 293/3/5
f 299/7/5 296/7/5 295/7/5
f 300/7/5 296/7/5 299/7/5
f 301/7/5 298/7/5 297/7/5
f 302/7/5 298/7/5 301/7/5
f 303/7/6 304/7/6 307/7/6
f 307/7/6 304/7/6 308/7/6
f 305/7/6 306/7/6 309/7/6
f 309/7/6 306/7/6 310/7/6
f 311/1/6 312/1/6 315/1/6
f 312/5/6 313/5/6 316/5/6
f 315/1/6 312/1/6 316/1/6
f 313/4/6 314/4/6 317/4/6
f 316/5/6 313/5/6 317/5/6
f 317/4/6 314/4/6 318/4/6
f 319/3/6 320/3/6 323/3/6
f 323/3/6 320/3/6 324/3/6
f 321/3/6 322/3/6 329/3/6
f 329/3/6 322/3/6 330/3/6
f 325/5/6 326/5/6 331/5/6
f 326/7/6 327/7/6 331/7/6
f 327/5/6 328/5/6 332/5/6
f 331/7/6 327/7/6 332/7/6
f 325/5/6 331/5/6 333/5/6
f 331/5/6 332/5/6 333/5/6
f 332/5/6 328/5/6 334/5/6
f 333/5/6 332/5/6 334/5/6
f 335/7/6 336/7/6 339/7/6
f 339/7/6 336/7/6 340/7/6
f 337/7/6 338/7/6 341/7/6
f 341/7/6 338/7/6 342/7/6
f 343/6/6 344/6/6 345/6/6
f 345/6/6 344/6/6 346/6/6
f 347/6/6 348/6/6 351/6/6
f 351/6/6 348/6/6 352/6/6
f 349/6/6 350/6/6 353/6/6
f 353/6/6 350/6/6 354/6/6
f 351/3/6 352/3/6 355/3/6
f 352/3/6 353/3/6 355/3/6
f 353/3/6 354/3/6 355/3/6
f 355/3/6 354/3/6 356/3/6
f 356/3/6 354/3/6 357/3/6
f 357/3/6 354/3/6 358/3/6
f 358/3/6 354/3/6 359/3/6
f 359/3/6 354/3/6 360/3/6
f 355/2/6 356/2/6 361/2/6
f 356/5/6 357/5/6 361/5/6
f 357/3/6 358/3/6 362/3/6
f 361/5/6 357/5/6 362/5/6
f 358/5/6 359/5/6 363/5/6
f 362/3/6 358/3/6 363/3/6
f 359/2/6 360/2/6 364/2/6
f 363/5/6 359/5/6 364/5/6
f 355/2/6 361/2/6 365/2/6
f 361/2/6 362/2/6 365/2/6
f 362/3/6 363/3/6 366/3/6
f 365/2/6 362/2/6 366/2/6
f 363/2/6 364/2/6 367/2/6
f 366/3/6 363/3/6 367/3/6
f 364/2/6 360/2/6 368/2/6
f 367/2/6 364/2/6 368/2/6
