# MagicaVoxel @ Ephtracy

# group
o 

# material
mtllib CrossyRoadCarSmall.mtl
usemtl palette

# normals
vn -1 0 0
vn 1 0 0
vn 0 0 1
vn 0 0 -1
vn 0 -1 0
vn 0 1 0

# texcoords
vt 0.751953 0.5
vt 0.779297 0.5
vt 0.873047 0.5
vt 0.958984 0.5
vt 0.962891 0.5
vt 0.970703 0.5
vt 0.994141 0.5

# verts
v 0 0.8 -0.3
v 0 0.8 -0.4
v 0 1 -0.3
v 0 1 -0.4
v 0.1 0.4 -0.1
v 0.1 0.4 -0.4
v 0.1 0.4 -0.7
v 0.1 0.4 -1
v 0.1 0.5 0
v 0.1 0.5 -0.1
v 0.1 0.5 -0.2
v 0.1 0.5 -0.3
v 0.1 0.5 -0.4
v 0.1 0.5 -0.7
v 0.1 0.5 -0.8
v 0.1 0.5 -0.9
v 0.1 0.5 -1
v 0.1 0.5 -1.1
v 0.1 0.6 0
v 0.1 0.6 -0.1
v 0.1 0.6 -0.2
v 0.1 0.6 -0.3
v 0.1 0.6 -0.4
v 0.1 0.6 -0.7
v 0.1 0.6 -0.8
v 0.1 0.6 -0.9
v 0.1 0.6 -1
v 0.1 0.6 -1.1
v 0.1 0.7 0
v 0.1 0.7 -0.1
v 0.1 0.7 -0.4
v 0.1 0.7 -0.7
v 0.1 0.7 -1
v 0.1 0.7 -1.1
v 0.1 0.8 0
v 0.1 0.8 -0.1
v 0.1 0.8 -0.3
v 0.1 0.8 -0.4
v 0.1 0.9 0
v 0.1 0.9 -0.3
v 0.1 0.9 -0.4
v 0.1 0.9 -0.8
v 0.1 0.9 -0.9
v 0.1 0.9 -1.1
v 0.1 1 -0.3
v 0.1 1 -0.4
v 0.1 1.1 -0.4
v 0.1 1.1 -0.8
v 0.1 1.2 -0.3
v 0.1 1.2 -0.9
v 0.2 0.9 -1
v 0.2 0.9 -1.1
v 0.2 1 -1
v 0.2 1 -1.1
v 0.3 1 -0.4
v 0.3 1 -0.5
v 0.3 1.1 -0.4
v 0.3 1.1 -0.5
v 0.5 0.4 -0.1
v 0.5 0.4 -0.4
v 0.5 0.4 -0.7
v 0.5 0.4 -1
v 0.5 0.5 0
v 0.5 0.5 -0.1
v 0.5 0.5 -0.4
v 0.5 0.5 -0.7
v 0.5 0.5 -1
v 0.5 0.6 0
v 0.5 0.6 -0.1
v 0.2 0.4 -0.1
v 0.2 0.4 -0.4
v 0.2 0.4 -0.7
v 0.2 0.4 -1
v 0.2 0.5 0
v 0.2 0.5 -0.1
v 0.2 0.5 -0.4
v 0.2 0.5 -0.7
v 0.2 0.5 -1
v 0.2 0.6 0
v 0.2 0.6 -0.1
v 0.2 1 -0.4
v 0.2 1 -0.5
v 0.2 1.1 -0.4
v 0.2 1.1 -0.5
v 0.5 0.9 -1
v 0.5 0.9 -1.1
v 0.5 1 -1
v 0.5 1 -1.1
v 0.6 0.4 -0.1
v 0.6 0.4 -0.4
v 0.6 0.4 -0.7
v 0.6 0.4 -1
v 0.6 0.5 0
v 0.6 0.5 -0.1
v 0.6 0.5 -0.2
v 0.6 0.5 -0.3
v 0.6 0.5 -0.4
v 0.6 0.5 -0.7
v 0.6 0.5 -0.8
v 0.6 0.5 -0.9
v 0.6 0.5 -1
v 0.6 0.5 -1.1
v 0.6 0.6 0
v 0.6 0.6 -0.1
v 0.6 0.6 -0.2
v 0.6 0.6 -0.3
v 0.6 0.6 -0.4
v 0.6 0.6 -0.7
v 0.6 0.6 -0.8
v 0.6 0.6 -0.9
v 0.6 0.6 -1
v 0.6 0.6 -1.1
v 0.6 0.7 0
v 0.6 0.7 -0.1
v 0.6 0.7 -0.4
v 0.6 0.7 -0.7
v 0.6 0.7 -1
v 0.6 0.7 -1.1
v 0.6 0.8 0
v 0.6 0.8 -0.1
v 0.6 0.8 -0.3
v 0.6 0.8 -0.4
v 0.6 0.9 0
v 0.6 0.9 -0.3
v 0.6 0.9 -0.4
v 0.6 0.9 -0.8
v 0.6 0.9 -0.9
v 0.6 0.9 -1.1
v 0.6 1 -0.3
v 0.6 1 -0.4
v 0.6 1.1 -0.4
v 0.6 1.1 -0.8
v 0.6 1.2 -0.3
v 0.6 1.2 -0.9
v 0.7 0.8 -0.3
v 0.7 0.8 -0.4
v 0.7 1 -0.3
v 0.7 1 -0.4
v 0.1 0.5 0
v 0.1 0.6 0
v 0.1 0.7 0
v 0.1 0.8 0
v 0.1 0.9 0
v 0.2 0.5 0
v 0.2 0.6 0
v 0.2 0.7 0
v 0.2 0.8 0
v 0.2 0.9 0
v 0.5 0.5 0
v 0.5 0.6 0
v 0.5 0.7 0
v 0.5 0.8 0
v 0.5 0.9 0
v 0.6 0.5 0
v 0.6 0.6 0
v 0.6 0.7 0
v 0.6 0.8 0
v 0.6 0.9 0
v 0.1 0.4 -0.1
v 0.1 0.5 -0.1
v 0.2 0.4 -0.1
v 0.2 0.5 -0.1
v 0.2 0.6 -0.1
v 0.5 0.4 -0.1
v 0.5 0.5 -0.1
v 0.5 0.6 -0.1
v 0.6 0.4 -0.1
v 0.6 0.5 -0.1
v 0 0.8 -0.3
v 0 1 -0.3
v 0.1 0.8 -0.3
v 0.1 0.9 -0.3
v 0.1 1 -0.3
v 0.1 1.2 -0.3
v 0.2 0.9 -0.3
v 0.2 1.1 -0.3
v 0.5 0.9 -0.3
v 0.5 1.1 -0.3
v 0.6 0.8 -0.3
v 0.6 0.9 -0.3
v 0.6 1 -0.3
v 0.6 1.2 -0.3
v 0.7 0.8 -0.3
v 0.7 1 -0.3
v 0.2 1 -0.5
v 0.2 1.1 -0.5
v 0.3 1 -0.5
v 0.3 1.1 -0.5
v 0.1 0.4 -0.7
v 0.1 0.5 -0.7
v 0.2 0.4 -0.7
v 0.2 0.5 -0.7
v 0.5 0.4 -0.7
v 0.5 0.5 -0.7
v 0.6 0.4 -0.7
v 0.6 0.5 -0.7
v 0.2 0.9 -1
v 0.2 1 -1
v 0.5 0.9 -1
v 0.5 1 -1
v 0 0.8 -0.4
v 0 1 -0.4
v 0.1 0.4 -0.4
v 0.1 0.5 -0.4
v 0.1 0.8 -0.4
v 0.1 0.9 -0.4
v 0.1 1 -0.4
v 0.2 0.4 -0.4
v 0.2 0.5 -0.4
v 0.2 1 -0.4
v 0.2 1.1 -0.4
v 0.3 1 -0.4
v 0.3 1.1 -0.4
v 0.5 0.4 -0.4
v 0.5 0.5 -0.4
v 0.6 0.4 -0.4
v 0.6 0.5 -0.4
v 0.6 0.8 -0.4
v 0.6 0.9 -0.4
v 0.6 1 -0.4
v 0.7 0.8 -0.4
v 0.7 1 -0.4
v 0.1 0.9 -0.9
v 0.1 1.2 -0.9
v 0.2 0.9 -0.9
v 0.2 1.1 -0.9
v 0.5 0.9 -0.9
v 0.5 1.1 -0.9
v 0.6 0.9 -0.9
v 0.6 1.2 -0.9
v 0.1 0.4 -1
v 0.1 0.5 -1
v 0.2 0.4 -1
v 0.2 0.5 -1
v 0.5 0.4 -1
v 0.5 0.5 -1
v 0.6 0.4 -1
v 0.6 0.5 -1
v 0.1 0.5 -1.1
v 0.1 0.6 -1.1
v 0.1 0.7 -1.1
v 0.1 0.9 -1.1
v 0.2 0.8 -1.1
v 0.2 0.9 -1.1
v 0.2 1 -1.1
v 0.5 0.8 -1.1
v 0.5 0.9 -1.1
v 0.5 1 -1.1
v 0.6 0.5 -1.1
v 0.6 0.6 -1.1
v 0.6 0.7 -1.1
v 0.6 0.9 -1.1
v 0.1 0.4 -0.1
v 0.2 0.4 -0.1
v 0.5 0.4 -0.1
v 0.6 0.4 -0.1
v 0.1 0.4 -0.4
v 0.2 0.4 -0.4
v 0.5 0.4 -0.4
v 0.6 0.4 -0.4
v 0.1 0.4 -0.7
v 0.2 0.4 -0.7
v 0.5 0.4 -0.7
v 0.6 0.4 -0.7
v 0.1 0.4 -1
v 0.2 0.4 -1
v 0.5 0.4 -1
v 0.6 0.4 -1
v 0.1 0.5 0
v 0.2 0.5 0
v 0.5 0.5 0
v 0.6 0.5 0
v 0.1 0.5 -0.1
v 0.2 0.5 -0.1
v 0.5 0.5 -0.1
v 0.6 0.5 -0.1
v 0.1 0.5 -0.4
v 0.2 0.5 -0.4
v 0.5 0.5 -0.4
v 0.6 0.5 -0.4
v 0.1 0.5 -0.7
v 0.2 0.5 -0.7
v 0.5 0.5 -0.7
v 0.6 0.5 -0.7
v 0.1 0.5 -1
v 0.2 0.5 -1
v 0.5 0.5 -1
v 0.6 0.5 -1
v 0.1 0.5 -1.1
v 0.6 0.5 -1.1
v 0.2 0.6 0
v 0.5 0.6 0
v 0.2 0.6 -0.1
v 0.5 0.6 -0.1
v 0 0.8 -0.3
v 0.1 0.8 -0.3
v 0.6 0.8 -0.3
v 0.7 0.8 -0.3
v 0 0.8 -0.4
v 0.1 0.8 -0.4
v 0.6 0.8 -0.4
v 0.7 0.8 -0.4
v 0.2 1.1 -0.4
v 0.3 1.1 -0.4
v 0.2 1.1 -0.5
v 0.3 1.1 -0.5
v 0.1 0.9 0
v 0.2 0.9 0
v 0.5 0.9 0
v 0.6 0.9 0
v 0.1 0.9 -0.3
v 0.2 0.9 -0.3
v 0.5 0.9 -0.3
v 0.6 0.9 -0.3
v 0.1 0.9 -0.9
v 0.2 0.9 -0.9
v 0.5 0.9 -0.9
v 0.6 0.9 -0.9
v 0.2 0.9 -1
v 0.5 0.9 -1
v 0.1 0.9 -1.1
v 0.2 0.9 -1.1
v 0.5 0.9 -1.1
v 0.6 0.9 -1.1
v 0 1 -0.3
v 0.1 1 -0.3
v 0.6 1 -0.3
v 0.7 1 -0.3
v 0 1 -0.4
v 0.1 1 -0.4
v 0.2 1 -0.4
v 0.3 1 -0.4
v 0.6 1 -0.4
v 0.7 1 -0.4
v 0.2 1 -0.5
v 0.3 1 -0.5
v 0.2 1 -1
v 0.5 1 -1
v 0.2 1 -1.1
v 0.5 1 -1.1
v 0.1 1.2 -0.3
v 0.6 1.2 -0.3
v 0.1 1.2 -0.9
v 0.6 1.2 -0.9

# faces
f 3/6/1 2/6/1 1/6/1
f 4/6/1 2/6/1 3/6/1
f 10/7/1 6/7/1 5/7/1
f 11/7/1 6/7/1 10/7/1
f 12/7/1 6/7/1 11/7/1
f 13/7/1 6/7/1 12/7/1
f 14/7/1 8/7/1 7/7/1
f 15/7/1 8/7/1 14/7/1
f 16/7/1 8/7/1 15/7/1
f 17/7/1 8/7/1 16/7/1
f 19/6/1 10/6/1 9/6/1
f 20/7/1 11/7/1 10/7/1
f 20/6/1 10/6/1 19/6/1
f 21/5/1 12/5/1 11/5/1
f 21/7/1 11/7/1 20/7/1
f 22/7/1 13/7/1 12/7/1
f 22/5/1 12/5/1 21/5/1
f 23/6/1 14/6/1 13/6/1
f 23/7/1 13/7/1 22/7/1
f 24/7/1 15/7/1 14/7/1
f 24/6/1 14/6/1 23/6/1
f 25/5/1 16/5/1 15/5/1
f 25/7/1 15/7/1 24/7/1
f 26/7/1 17/7/1 16/7/1
f 26/5/1 16/5/1 25/5/1
f 27/6/1 18/6/1 17/6/1
f 27/7/1 17/7/1 26/7/1
f 28/6/1 18/6/1 27/6/1
f 29/2/1 20/2/1 19/2/1
f 30/7/1 21/7/1 20/7/1
f 30/2/1 20/2/1 29/2/1
f 30/7/1 22/7/1 21/7/1
f 30/7/1 23/7/1 22/7/1
f 31/2/1 24/2/1 23/2/1
f 31/7/1 23/7/1 30/7/1
f 32/7/1 26/7/1 25/7/1
f 32/2/1 24/2/1 31/2/1
f 32/7/1 27/7/1 26/7/1
f 32/7/1 25/7/1 24/7/1
f 33/2/1 28/2/1 27/2/1
f 33/7/1 27/7/1 32/7/1
f 34/2/1 28/2/1 33/2/1
f 35/4/1 30/4/1 29/4/1
f 36/1/1 31/1/1 30/1/1
f 36/4/1 30/4/1 35/4/1
f 36/1/1 32/1/1 31/1/1
f 36/1/1 34/1/1 33/1/1
f 36/1/1 33/1/1 32/1/1
f 37/1/1 34/1/1 36/1/1
f 38/1/1 34/1/1 37/1/1
f 39/1/1 36/1/1 35/1/1
f 39/1/1 37/1/1 36/1/1
f 40/1/1 37/1/1 39/1/1
f 41/1/1 34/1/1 38/1/1
f 42/1/1 34/1/1 41/1/1
f 43/1/1 34/1/1 42/1/1
f 44/1/1 34/1/1 43/1/1
f 46/7/1 42/7/1 41/7/1
f 47/7/1 42/7/1 46/7/1
f 47/4/1 46/4/1 45/4/1
f 48/4/1 43/4/1 42/4/1
f 48/7/1 42/7/1 47/7/1
f 49/4/1 47/4/1 45/4/1
f 49/4/1 48/4/1 47/4/1
f 50/4/1 43/4/1 48/4/1
f 50/4/1 48/4/1 49/4/1
f 53/2/1 52/2/1 51/2/1
f 54/2/1 52/2/1 53/2/1
f 57/7/1 56/7/1 55/7/1
f 58/7/1 56/7/1 57/7/1
f 64/7/1 60/7/1 59/7/1
f 65/7/1 60/7/1 64/7/1
f 66/7/1 62/7/1 61/7/1
f 67/7/1 62/7/1 66/7/1
f 68/6/1 64/6/1 63/6/1
f 69/6/1 64/6/1 68/6/1
f 70/7/2 71/7/2 75/7/2
f 75/7/2 71/7/2 76/7/2
f 72/7/2 73/7/2 77/7/2
f 77/7/2 73/7/2 78/7/2
f 74/6/2 75/6/2 79/6/2
f 79/6/2 75/6/2 80/6/2
f 81/7/2 82/7/2 83/7/2
f 83/7/2 82/7/2 84/7/2
f 85/2/2 86/2/2 87/2/2
f 87/2/2 86/2/2 88/2/2
f 89/7/2 90/7/2 94/7/2
f 94/7/2 90/7/2 95/7/2
f 95/7/2 90/7/2 96/7/2
f 96/7/2 90/7/2 97/7/2
f 91/7/2 92/7/2 98/7/2
f 98/7/2 92/7/2 99/7/2
f 99/7/2 92/7/2 100/7/2
f 100/7/2 92/7/2 101/7/2
f 93/6/2 94/6/2 103/6/2
f 94/7/2 95/7/2 104/7/2
f 103/6/2 94/6/2 104/6/2
f 95/5/2 96/5/2 105/5/2
f 104/7/2 95/7/2 105/7/2
f 96/7/2 97/7/2 106/7/2
f 105/5/2 96/5/2 106/5/2
f 97/6/2 98/6/2 107/6/2
f 106/7/2 97/7/2 107/7/2
f 98/7/2 99/7/2 108/7/2
f 107/6/2 98/6/2 108/6/2
f 99/5/2 100/5/2 109/5/2
f 108/7/2 99/7/2 109/7/2
f 100/7/2 101/7/2 110/7/2
f 109/5/2 100/5/2 110/5/2
f 101/6/2 102/6/2 111/6/2
f 110/7/2 101/7/2 111/7/2
f 111/6/2 102/6/2 112/6/2
f 103/2/2 104/2/2 113/2/2
f 104/7/2 105/7/2 114/7/2
f 113/2/2 104/2/2 114/2/2
f 105/7/2 106/7/2 114/7/2
f 106/7/2 107/7/2 114/7/2
f 107/2/2 108/2/2 115/2/2
f 114/7/2 107/7/2 115/7/2
f 109/7/2 110/7/2 116/7/2
f 115/2/2 108/2/2 116/2/2
f 110/7/2 111/7/2 116/7/2
f 108/7/2 109/7/2 116/7/2
f 111/2/2 112/2/2 117/2/2
f 116/7/2 111/7/2 117/7/2
f 117/2/2 112/2/2 118/2/2
f 113/4/2 114/4/2 119/4/2
f 114/1/2 115/1/2 120/1/2
f 119/4/2 114/4/2 120/4/2
f 115/1/2 116/1/2 120/1/2
f 117/1/2 118/1/2 120/1/2
f 116/1/2 117/1/2 120/1/2
f 120/1/2 118/1/2 121/1/2
f 121/1/2 118/1/2 122/1/2
f 119/1/2 120/1/2 123/1/2
f 120/1/2 121/1/2 123/1/2
f 123/1/2 121/1/2 124/1/2
f 122/1/2 118/1/2 125/1/2
f 125/1/2 118/1/2 126/1/2
f 126/1/2 118/1/2 127/1/2
f 127/1/2 118/1/2 128/1/2
f 125/7/2 126/7/2 130/7/2
f 130/7/2 126/7/2 131/7/2
f 129/4/2 130/4/2 131/4/2
f 126/4/2 127/4/2 132/4/2
f 131/7/2 126/7/2 132/7/2
f 129/4/2 131/4/2 133/4/2
f 131/4/2 132/4/2 133/4/2
f 132/4/2 127/4/2 134/4/2
f 133/4/2 132/4/2 134/4/2
f 135/6/2 136/6/2 137/6/2
f 137/6/2 136/6/2 138/6/2
f 144/6/3 140/6/3 139/6/3
f 145/2/3 141/2/3 140/2/3
f 145/6/3 140/6/3 144/6/3
f 146/4/3 142/4/3 141/4/3
f 146/2/3 141/2/3 145/2/3
f 147/1/3 143/1/3 142/1/3
f 147/4/3 142/4/3 146/4/3
f 148/1/3 143/1/3 147/1/3
f 150/2/3 146/2/3 145/2/3
f 151/3/3 147/3/3 146/3/3
f 151/2/3 146/2/3 150/2/3
f 152/2/3 148/2/3 147/2/3
f 152/3/3 147/3/3 151/3/3
f 153/2/3 148/2/3 152/2/3
f 154/6/3 150/6/3 149/6/3
f 155/2/3 151/2/3 150/2/3
f 155/6/3 150/6/3 154/6/3
f 156/4/3 152/4/3 151/4/3
f 156/2/3 151/2/3 155/2/3
f 157/1/3 153/1/3 152/1/3
f 157/4/3 152/4/3 156/4/3
f 158/1/3 153/1/3 157/1/3
f 161/7/3 160/7/3 159/7/3
f 162/7/3 160/7/3 161/7/3
f 165/6/3 163/6/3 162/6/3
f 166/6/3 163/6/3 165/6/3
f 167/7/3 165/7/3 164/7/3
f 168/7/3 165/7/3 167/7/3
f 171/6/3 170/6/3 169/6/3
f 172/6/3 170/6/3 171/6/3
f 173/6/3 170/6/3 172/6/3
f 175/4/3 174/4/3 173/4/3
f 175/4/3 173/4/3 172/4/3
f 176/4/3 174/4/3 175/4/3
f 177/7/3 176/7/3 175/7/3
f 178/4/3 174/4/3 176/4/3
f 178/7/3 176/7/3 177/7/3
f 180/4/3 178/4/3 177/4/3
f 181/4/3 178/4/3 180/4/3
f 182/4/3 174/4/3 178/4/3
f 182/4/3 178/4/3 181/4/3
f 183/6/3 181/6/3 180/6/3
f 183/6/3 180/6/3 179/6/3
f 184/6/3 181/6/3 183/6/3
f 187/7/3 186/7/3 185/7/3
f 188/7/3 186/7/3 187/7/3
f 191/7/3 190/7/3 189/7/3
f 192/7/3 190/7/3 191/7/3
f 195/7/3 194/7/3 193/7/3
f 196/7/3 194/7/3 195/7/3
f 199/2/3 198/2/3 197/2/3
f 200/2/3 198/2/3 199/2/3
f 201/6/4 202/6/4 205/6/4
f 205/6/4 202/6/4 206/6/4
f 206/6/4 202/6/4 207/6/4
f 203/7/4 204/7/4 208/7/4
f 208/7/4 204/7/4 209/7/4
f 210/7/4 211/7/4 212/7/4
f 212/7/4 211/7/4 213/7/4
f 214/7/4 215/7/4 216/7/4
f 216/7/4 215/7/4 217/7/4
f 219/6/4 220/6/4 221/6/4
f 218/6/4 219/6/4 221/6/4
f 221/6/4 220/6/4 222/6/4
f 223/4/4 224/4/4 225/4/4
f 225/4/4 224/4/4 226/4/4
f 225/7/4 226/7/4 227/7/4
f 226/4/4 224/4/4 228/4/4
f 227/7/4 226/7/4 228/7/4
f 227/4/4 228/4/4 229/4/4
f 228/4/4 224/4/4 230/4/4
f 229/4/4 228/4/4 230/4/4
f 231/7/4 232/7/4 233/7/4
f 233/7/4 232/7/4 234/7/4
f 235/7/4 236/7/4 237/7/4
f 237/7/4 236/7/4 238/7/4
f 241/1/4 242/1/4 243/1/4
f 243/1/4 242/1/4 244/1/4
f 241/1/4 243/1/4 246/1/4
f 244/2/4 245/2/4 246/2/4
f 243/2/4 244/2/4 246/2/4
f 246/2/4 245/2/4 247/2/4
f 247/2/4 245/2/4 248/2/4
f 239/6/4 240/6/4 249/6/4
f 240/2/4 241/2/4 250/2/4
f 249/6/4 240/6/4 250/6/4
f 241/1/4 246/1/4 251/1/4
f 250/2/4 241/2/4 251/2/4
f 246/1/4 247/1/4 251/1/4
f 251/1/4 247/1/4 252/1/4
f 257/7/5 254/7/5 253/7/5
f 258/7/5 254/7/5 257/7/5
f 259/7/5 256/7/5 255/7/5
f 260/7/5 256/7/5 259/7/5
f 265/7/5 262/7/5 261/7/5
f 266/7/5 262/7/5 265/7/5
f 267/7/5 264/7/5 263/7/5
f 268/7/5 264/7/5 267/7/5
f 273/6/5 270/6/5 269/6/5
f 274/6/5 270/6/5 273/6/5
f 275/6/5 272/6/5 271/6/5
f 276/6/5 272/6/5 275/6/5
f 278/6/5 275/6/5 274/6/5
f 279/6/5 275/6/5 278/6/5
f 281/6/5 278/6/5 277/6/5
f 281/6/5 280/6/5 279/6/5
f 281/6/5 279/6/5 278/6/5
f 282/6/5 280/6/5 281/6/5
f 283/6/5 280/6/5 282/6/5
f 284/6/5 280/6/5 283/6/5
f 286/6/5 283/6/5 282/6/5
f 287/6/5 283/6/5 286/6/5
f 289/6/5 286/6/5 285/6/5
f 289/6/5 288/6/5 287/6/5
f 289/6/5 287/6/5 286/6/5
f 290/6/5 288/6/5 289/6/5
f 293/2/5 292/2/5 291/2/5
f 294/2/5 292/2/5 293/2/5
f 299/6/5 296/6/5 295/6/5
f 300/6/5 296/6/5 299/6/5
f 301/6/5 298/6/5 297/6/5
f 302/6/5 298/6/5 301/6/5
f 305/4/5 304/4/5 303/4/5
f 306/4/5 304/4/5 305/4/5
f 307/1/6 308/1/6 311/1/6
f 308/2/6 309/2/6 312/2/6
f 311/1/6 308/1/6 312/1/6
f 309/1/6 310/1/6 313/1/6
f 312/2/6 309/2/6 313/2/6
f 313/1/6 310/1/6 314/1/6
f 315/1/6 316/1/6 319/1/6
f 316/2/6 317/2/6 319/2/6
f 317/1/6 318/1/6 320/1/6
f 319/2/6 317/2/6 320/2/6
f 315/1/6 319/1/6 321/1/6
f 321/1/6 319/1/6 322/1/6
f 320/1/6 318/1/6 323/1/6
f 323/1/6 318/1/6 324/1/6
f 325/6/6 326/6/6 329/6/6
f 329/6/6 326/6/6 330/6/6
f 327/6/6 328/6/6 333/6/6
f 333/6/6 328/6/6 334/6/6
f 331/7/6 332/7/6 335/7/6
f 335/7/6 332/7/6 336/7/6
f 337/2/6 338/2/6 339/2/6
f 339/2/6 338/2/6 340/2/6
f 341/4/6 342/4/6 343/4/6
f 343/4/6 342/4/6 344/4/6
