# MagicaVoxel @ Ephtracy

# group
o 

# material
mtllib CrossyRoadCarMed.mtl
usemtl palette

# normals
vn -1 0 0
vn 1 0 0
vn 0 0 1
vn 0 0 -1
vn 0 -1 0
vn 0 1 0

# texcoords
vt 0.00195313 0.5
vt 0.751953 0.5
vt 0.783203 0.5
vt 0.982422 0.5
vt 0.994141 0.5

# verts
v 0 1.1 -0.4
v 0 1.1 -0.5
v 0 1.3 -0.4
v 0 1.3 -0.5
v 0.1 0.4 -0.1
v 0.1 0.4 -0.2
v 0.1 0.4 -0.3
v 0.1 0.4 -0.5
v 0.1 0.5 0
v 0.1 0.5 -0.1
v 0.1 0.5 -0.2
v 0.1 0.5 -0.3
v 0.1 0.6 -0.1
v 0.1 0.6 -0.2
v 0.1 0.7 -0.1
v 0.1 0.7 -0.2
v 0.1 0.8 0
v 0.1 0.8 -0.1
v 0.1 0.8 -0.2
v 0.1 0.8 -0.3
v 0.1 1.1 -0.4
v 0.1 1.1 -0.5
v 0.1 1.3 -0.4
v 0.1 1.3 -0.5
v 0.1 1.4 0
v 0.1 1.4 -0.1
v 0.1 1.4 -0.2
v 0.1 1.4 -0.3
v 0.1 1.5 -0.1
v 0.1 1.5 -0.2
v 0.1 1.6 -0.1
v 0.1 1.6 -0.2
v 0.1 1.7 0
v 0.1 1.7 -0.1
v 0.1 1.7 -0.2
v 0.1 1.7 -0.3
v 0.1 1.9 -0.1
v 0.1 1.9 -0.2
v 0.1 1.9 -0.3
v 0.1 1.9 -0.5
v 0.2 0.6 -0.5
v 0.2 0.6 -0.8
v 0.2 0.7 -0.5
v 0.2 0.7 -0.7
v 0.2 0.8 -0.5
v 0.2 0.8 -0.7
v 0.2 0.9 -0.5
v 0.2 0.9 -0.7
v 0.2 1.3 -0.5
v 0.2 1.3 -0.7
v 0.2 1.4 -0.5
v 0.2 1.4 -0.8
v 0.6 1.8 -0.1
v 0.6 1.8 -0.2
v 0.6 1.9 -0.1
v 0.6 1.9 -0.2
v 0.7 0.5 0
v 0.7 0.5 -0.1
v 0.7 0.8 0
v 0.7 0.8 -0.1
v 0.7 1.4 0
v 0.7 1.4 -0.1
v 0.7 1.7 0
v 0.7 1.7 -0.1
v 0.2 0.5 0
v 0.2 0.5 -0.1
v 0.2 0.8 0
v 0.2 0.8 -0.1
v 0.2 1.4 0
v 0.2 1.4 -0.1
v 0.2 1.7 0
v 0.2 1.7 -0.1
v 0.3 1.8 -0.1
v 0.3 1.8 -0.2
v 0.3 1.9 -0.1
v 0.3 1.9 -0.2
v 0.7 0.6 -0.5
v 0.7 0.6 -0.8
v 0.7 0.7 -0.5
v 0.7 0.7 -0.7
v 0.7 0.8 -0.5
v 0.7 0.8 -0.7
v 0.7 0.9 -0.5
v 0.7 0.9 -0.7
v 0.7 1.3 -0.5
v 0.7 1.3 -0.7
v 0.7 1.4 -0.5
v 0.7 1.4 -0.8
v 0.8 0.4 -0.1
v 0.8 0.4 -0.2
v 0.8 0.4 -0.3
v 0.8 0.4 -0.5
v 0.8 0.5 0
v 0.8 0.5 -0.1
v 0.8 0.5 -0.2
v 0.8 0.5 -0.3
v 0.8 0.6 -0.1
v 0.8 0.6 -0.2
v 0.8 0.7 -0.1
v 0.8 0.7 -0.2
v 0.8 0.8 0
v 0.8 0.8 -0.1
v 0.8 0.8 -0.2
v 0.8 0.8 -0.3
v 0.8 1.1 -0.4
v 0.8 1.1 -0.5
v 0.8 1.3 -0.4
v 0.8 1.3 -0.5
v 0.8 1.4 0
v 0.8 1.4 -0.1
v 0.8 1.4 -0.2
v 0.8 1.4 -0.3
v 0.8 1.5 -0.1
v 0.8 1.5 -0.2
v 0.8 1.6 -0.1
v 0.8 1.6 -0.2
v 0.8 1.7 0
v 0.8 1.7 -0.1
v 0.8 1.7 -0.2
v 0.8 1.7 -0.3
v 0.8 1.9 -0.1
v 0.8 1.9 -0.2
v 0.8 1.9 -0.3
v 0.8 1.9 -0.5
v 0.9 1.1 -0.4
v 0.9 1.1 -0.5
v 0.9 1.3 -0.4
v 0.9 1.3 -0.5
v 0.1 0.5 0
v 0.1 0.8 0
v 0.1 1.4 0
v 0.1 1.7 0
v 0.2 0.5 0
v 0.2 0.8 0
v 0.2 1.4 0
v 0.2 1.7 0
v 0.7 0.5 0
v 0.7 0.8 0
v 0.7 1.4 0
v 0.7 1.7 0
v 0.8 0.5 0
v 0.8 0.8 0
v 0.8 1.4 0
v 0.8 1.7 0
v 0.1 0.4 -0.1
v 0.1 0.5 -0.1
v 0.1 0.8 -0.1
v 0.1 1.4 -0.1
v 0.1 1.7 -0.1
v 0.1 1.9 -0.1
v 0.2 0.5 -0.1
v 0.2 0.8 -0.1
v 0.2 1.4 -0.1
v 0.2 1.7 -0.1
v 0.3 1.8 -0.1
v 0.3 1.9 -0.1
v 0.6 1.8 -0.1
v 0.6 1.9 -0.1
v 0.7 0.5 -0.1
v 0.7 0.8 -0.1
v 0.7 1.4 -0.1
v 0.7 1.7 -0.1
v 0.8 0.4 -0.1
v 0.8 0.5 -0.1
v 0.8 0.8 -0.1
v 0.8 1.4 -0.1
v 0.8 1.7 -0.1
v 0.8 1.9 -0.1
v 0.3 1.8 -0.2
v 0.3 1.9 -0.2
v 0.6 1.8 -0.2
v 0.6 1.9 -0.2
v 0 1.1 -0.4
v 0 1.3 -0.4
v 0.1 1.1 -0.4
v 0.1 1.3 -0.4
v 0.8 1.1 -0.4
v 0.8 1.3 -0.4
v 0.9 1.1 -0.4
v 0.9 1.3 -0.4
v 0 1.1 -0.5
v 0 1.3 -0.5
v 0.1 0.4 -0.5
v 0.1 1.1 -0.5
v 0.1 1.3 -0.5
v 0.1 1.9 -0.5
v 0.2 0.6 -0.5
v 0.2 0.7 -0.5
v 0.2 0.8 -0.5
v 0.2 0.9 -0.5
v 0.2 1.3 -0.5
v 0.2 1.4 -0.5
v 0.3 0.4 -0.5
v 0.3 0.6 -0.5
v 0.3 1.4 -0.5
v 0.3 1.9 -0.5
v 0.6 0.4 -0.5
v 0.6 0.6 -0.5
v 0.6 1.4 -0.5
v 0.6 1.9 -0.5
v 0.7 0.6 -0.5
v 0.7 0.7 -0.5
v 0.7 0.8 -0.5
v 0.7 0.9 -0.5
v 0.7 1.3 -0.5
v 0.7 1.4 -0.5
v 0.8 0.4 -0.5
v 0.8 1.1 -0.5
v 0.8 1.3 -0.5
v 0.8 1.9 -0.5
v 0.9 1.1 -0.5
v 0.9 1.3 -0.5
v 0.2 0.6 -0.8
v 0.2 1.4 -0.8
v 0.7 0.6 -0.8
v 0.7 1.4 -0.8
v 0.1 0.4 -0.1
v 0.8 0.4 -0.1
v 0.1 0.4 -0.2
v 0.8 0.4 -0.2
v 0.1 0.4 -0.3
v 0.3 0.4 -0.3
v 0.6 0.4 -0.3
v 0.8 0.4 -0.3
v 0.1 0.4 -0.5
v 0.3 0.4 -0.5
v 0.6 0.4 -0.5
v 0.8 0.4 -0.5
v 0.1 0.5 0
v 0.2 0.5 0
v 0.7 0.5 0
v 0.8 0.5 0
v 0.1 0.5 -0.1
v 0.2 0.5 -0.1
v 0.7 0.5 -0.1
v 0.8 0.5 -0.1
v 0.2 0.6 -0.5
v 0.3 0.6 -0.5
v 0.6 0.6 -0.5
v 0.7 0.6 -0.5
v 0.3 0.6 -0.7
v 0.6 0.6 -0.7
v 0.2 0.6 -0.8
v 0.7 0.6 -0.8
v 0 1.1 -0.4
v 0.1 1.1 -0.4
v 0.8 1.1 -0.4
v 0.9 1.1 -0.4
v 0 1.1 -0.5
v 0.1 1.1 -0.5
v 0.8 1.1 -0.5
v 0.9 1.1 -0.5
v 0.1 1.4 0
v 0.2 1.4 0
v 0.7 1.4 0
v 0.8 1.4 0
v 0.1 1.4 -0.1
v 0.2 1.4 -0.1
v 0.7 1.4 -0.1
v 0.8 1.4 -0.1
v 0.1 0.8 0
v 0.2 0.8 0
v 0.7 0.8 0
v 0.8 0.8 0
v 0.1 0.8 -0.1
v 0.2 0.8 -0.1
v 0.7 0.8 -0.1
v 0.8 0.8 -0.1
v 0 1.3 -0.4
v 0.1 1.3 -0.4
v 0.8 1.3 -0.4
v 0.9 1.3 -0.4
v 0 1.3 -0.5
v 0.1 1.3 -0.5
v 0.8 1.3 -0.5
v 0.9 1.3 -0.5
v 0.2 1.4 -0.5
v 0.3 1.4 -0.5
v 0.6 1.4 -0.5
v 0.7 1.4 -0.5
v 0.3 1.4 -0.7
v 0.6 1.4 -0.7
v 0.2 1.4 -0.8
v 0.7 1.4 -0.8
v 0.1 1.7 0
v 0.2 1.7 0
v 0.7 1.7 0
v 0.8 1.7 0
v 0.1 1.7 -0.1
v 0.2 1.7 -0.1
v 0.7 1.7 -0.1
v 0.8 1.7 -0.1
v 0.3 1.8 -0.1
v 0.6 1.8 -0.1
v 0.3 1.8 -0.2
v 0.6 1.8 -0.2
v 0.1 1.9 -0.1
v 0.3 1.9 -0.1
v 0.6 1.9 -0.1
v 0.8 1.9 -0.1
v 0.1 1.9 -0.2
v 0.3 1.9 -0.2
v 0.6 1.9 -0.2
v 0.8 1.9 -0.2
v 0.1 1.9 -0.3
v 0.2 1.9 -0.3
v 0.3 1.9 -0.3
v 0.6 1.9 -0.3
v 0.7 1.9 -0.3
v 0.8 1.9 -0.3
v 0.2 1.9 -0.4
v 0.3 1.9 -0.4
v 0.6 1.9 -0.4
v 0.7 1.9 -0.4
v 0.1 1.9 -0.5
v 0.3 1.9 -0.5
v 0.6 1.9 -0.5
v 0.8 1.9 -0.5

# faces
f 3/3/1 2/3/1 1/3/1
f 4/3/1 2/3/1 3/3/1
f 10/4/1 6/4/1 5/4/1
f 11/3/1 7/3/1 6/3/1
f 11/4/1 6/4/1 10/4/1
f 12/2/1 8/2/1 7/2/1
f 12/3/1 7/3/1 11/3/1
f 13/5/1 11/5/1 10/5/1
f 13/5/1 10/5/1 9/5/1
f 13/5/1 12/5/1 11/5/1
f 14/5/1 12/5/1 13/5/1
f 15/5/1 13/5/1 9/5/1
f 15/1/1 14/1/1 13/1/1
f 16/5/1 12/5/1 14/5/1
f 16/1/1 14/1/1 15/1/1
f 17/5/1 15/5/1 9/5/1
f 17/5/1 16/5/1 15/5/1
f 18/5/1 16/5/1 17/5/1
f 19/5/1 12/5/1 16/5/1
f 19/5/1 16/5/1 18/5/1
f 20/2/1 8/2/1 12/2/1
f 20/5/1 12/5/1 19/5/1
f 21/2/1 8/2/1 20/2/1
f 22/2/1 8/2/1 21/2/1
f 23/2/1 21/2/1 20/2/1
f 26/4/1 19/4/1 18/4/1
f 27/3/1 20/3/1 19/3/1
f 27/4/1 19/4/1 26/4/1
f 28/2/1 24/2/1 23/2/1
f 28/3/1 20/3/1 27/3/1
f 28/2/1 23/2/1 20/2/1
f 29/5/1 27/5/1 26/5/1
f 29/5/1 26/5/1 25/5/1
f 29/5/1 28/5/1 27/5/1
f 30/5/1 28/5/1 29/5/1
f 31/5/1 29/5/1 25/5/1
f 31/1/1 30/1/1 29/1/1
f 32/5/1 28/5/1 30/5/1
f 32/1/1 30/1/1 31/1/1
f 33/5/1 31/5/1 25/5/1
f 33/5/1 32/5/1 31/5/1
f 34/5/1 32/5/1 33/5/1
f 35/5/1 28/5/1 32/5/1
f 35/5/1 32/5/1 34/5/1
f 36/2/1 24/2/1 28/2/1
f 36/5/1 28/5/1 35/5/1
f 37/4/1 35/4/1 34/4/1
f 38/3/1 36/3/1 35/3/1
f 38/4/1 35/4/1 37/4/1
f 39/2/1 24/2/1 36/2/1
f 39/3/1 36/3/1 38/3/1
f 40/2/1 24/2/1 39/2/1
f 43/1/1 42/1/1 41/1/1
f 44/1/1 42/1/1 43/1/1
f 45/5/1 44/5/1 43/5/1
f 46/1/1 42/1/1 44/1/1
f 46/5/1 44/5/1 45/5/1
f 47/1/1 46/1/1 45/1/1
f 48/1/1 42/1/1 46/1/1
f 48/1/1 46/1/1 47/1/1
f 49/5/1 48/5/1 47/5/1
f 50/1/1 42/1/1 48/1/1
f 50/5/1 48/5/1 49/5/1
f 51/1/1 50/1/1 49/1/1
f 52/1/1 42/1/1 50/1/1
f 52/1/1 50/1/1 51/1/1
f 55/4/1 54/4/1 53/4/1
f 56/4/1 54/4/1 55/4/1
f 59/5/1 58/5/1 57/5/1
f 60/5/1 58/5/1 59/5/1
f 63/5/1 62/5/1 61/5/1
f 64/5/1 62/5/1 63/5/1
f 65/5/2 66/5/2 67/5/2
f 67/5/2 66/5/2 68/5/2
f 69/5/2 70/5/2 71/5/2
f 71/5/2 70/5/2 72/5/2
f 73/4/2 74/4/2 75/4/2
f 75/4/2 74/4/2 76/4/2
f 77/1/2 78/1/2 79/1/2
f 79/1/2 78/1/2 80/1/2
f 79/5/2 80/5/2 81/5/2
f 80/1/2 78/1/2 82/1/2
f 81/5/2 80/5/2 82/5/2
f 81/1/2 82/1/2 83/1/2
f 82/1/2 78/1/2 84/1/2
f 83/1/2 82/1/2 84/1/2
f 83/5/2 84/5/2 85/5/2
f 84/1/2 78/1/2 86/1/2
f 85/5/2 84/5/2 86/5/2
f 85/1/2 86/1/2 87/1/2
f 86/1/2 78/1/2 88/1/2
f 87/1/2 86/1/2 88/1/2
f 89/4/2 90/4/2 94/4/2
f 90/3/2 91/3/2 95/3/2
f 94/4/2 90/4/2 95/4/2
f 91/2/2 92/2/2 96/2/2
f 95/3/2 91/3/2 96/3/2
f 94/5/2 95/5/2 97/5/2
f 93/5/2 94/5/2 97/5/2
f 95/5/2 96/5/2 97/5/2
f 97/5/2 96/5/2 98/5/2
f 93/5/2 97/5/2 99/5/2
f 97/1/2 98/1/2 99/1/2
f 98/5/2 96/5/2 100/5/2
f 99/1/2 98/1/2 100/1/2
f 93/5/2 99/5/2 101/5/2
f 99/5/2 100/5/2 101/5/2
f 101/5/2 100/5/2 102/5/2
f 100/5/2 96/5/2 103/5/2
f 102/5/2 100/5/2 103/5/2
f 96/2/2 92/2/2 104/2/2
f 103/5/2 96/5/2 104/5/2
f 104/2/2 92/2/2 105/2/2
f 105/2/2 92/2/2 106/2/2
f 104/2/2 105/2/2 107/2/2
f 102/4/2 103/4/2 110/4/2
f 103/3/2 104/3/2 111/3/2
f 110/4/2 103/4/2 111/4/2
f 107/2/2 108/2/2 112/2/2
f 111/3/2 104/3/2 112/3/2
f 104/2/2 107/2/2 112/2/2
f 110/5/2 111/5/2 113/5/2
f 109/5/2 110/5/2 113/5/2
f 111/5/2 112/5/2 113/5/2
f 113/5/2 112/5/2 114/5/2
f 109/5/2 113/5/2 115/5/2
f 113/1/2 114/1/2 115/1/2
f 114/5/2 112/5/2 116/5/2
f 115/1/2 114/1/2 116/1/2
f 109/5/2 115/5/2 117/5/2
f 115/5/2 116/5/2 117/5/2
f 117/5/2 116/5/2 118/5/2
f 116/5/2 112/5/2 119/5/2
f 118/5/2 116/5/2 119/5/2
f 112/2/2 108/2/2 120/2/2
f 119/5/2 112/5/2 120/5/2
f 118/4/2 119/4/2 121/4/2
f 119/3/2 120/3/2 122/3/2
f 121/4/2 119/4/2 122/4/2
f 120/2/2 108/2/2 123/2/2
f 122/3/2 120/3/2 123/3/2
f 123/2/2 108/2/2 124/2/2
f 125/3/2 126/3/2 127/3/2
f 127/3/2 126/3/2 128/3/2
f 133/5/3 130/5/3 129/5/3
f 134/5/3 130/5/3 133/5/3
f 135/5/3 132/5/3 131/5/3
f 136/5/3 132/5/3 135/5/3
f 141/5/3 138/5/3 137/5/3
f 142/5/3 138/5/3 141/5/3
f 143/5/3 140/5/3 139/5/3
f 144/5/3 140/5/3 143/5/3
f 151/4/3 146/4/3 145/4/3
f 152/4/3 148/4/3 147/4/3
f 153/4/3 148/4/3 152/4/3
f 154/4/3 150/4/3 149/4/3
f 155/4/3 153/4/3 152/4/3
f 155/4/3 154/4/3 153/4/3
f 155/4/3 150/4/3 154/4/3
f 155/4/3 152/4/3 151/4/3
f 156/4/3 150/4/3 155/4/3
f 157/4/3 155/4/3 151/4/3
f 159/4/3 151/4/3 145/4/3
f 159/4/3 158/4/3 157/4/3
f 159/4/3 157/4/3 151/4/3
f 160/4/3 158/4/3 159/4/3
f 161/4/3 158/4/3 160/4/3
f 162/4/3 158/4/3 161/4/3
f 163/4/3 159/4/3 145/4/3
f 164/4/3 159/4/3 163/4/3
f 165/4/3 161/4/3 160/4/3
f 166/4/3 161/4/3 165/4/3
f 167/4/3 158/4/3 162/4/3
f 168/4/3 158/4/3 167/4/3
f 171/3/3 170/3/3 169/3/3
f 172/3/3 170/3/3 171/3/3
f 175/3/3 174/3/3 173/3/3
f 176/3/3 174/3/3 175/3/3
f 179/3/3 178/3/3 177/3/3
f 180/3/3 178/3/3 179/3/3
f 181/3/4 182/3/4 184/3/4
f 184/3/4 182/3/4 185/3/4
f 183/2/4 184/2/4 187/2/4
f 185/2/4 186/2/4 187/2/4
f 184/2/4 185/2/4 187/2/4
f 187/2/4 186/2/4 188/2/4
f 188/2/4 186/2/4 189/2/4
f 189/2/4 186/2/4 190/2/4
f 190/2/4 186/2/4 191/2/4
f 191/2/4 186/2/4 192/2/4
f 183/2/4 187/2/4 193/2/4
f 193/2/4 187/2/4 194/2/4
f 192/2/4 186/2/4 195/2/4
f 195/2/4 186/2/4 196/2/4
f 193/3/4 194/3/4 197/3/4
f 197/3/4 194/3/4 198/3/4
f 195/3/4 196/3/4 199/3/4
f 199/3/4 196/3/4 200/3/4
f 197/2/4 198/2/4 201/2/4
f 199/2/4 200/2/4 206/2/4
f 204/2/4 205/2/4 207/2/4
f 205/2/4 206/2/4 207/2/4
f 197/2/4 201/2/4 207/2/4
f 201/2/4 202/2/4 207/2/4
f 203/2/4 204/2/4 207/2/4
f 202/2/4 203/2/4 207/2/4
f 207/2/4 206/2/4 208/2/4
f 208/2/4 206/2/4 209/2/4
f 206/2/4 200/2/4 210/2/4
f 209/2/4 206/2/4 210/2/4
f 208/3/4 209/3/4 211/3/4
f 211/3/4 209/3/4 212/3/4
f 213/1/4 214/1/4 215/1/4
f 215/1/4 214/1/4 216/1/4
f 219/4/5 218/4/5 217/4/5
f 220/4/5 218/4/5 219/4/5
f 221/3/5 220/3/5 219/3/5
f 222/3/5 220/3/5 221/3/5
f 223/3/5 220/3/5 222/3/5
f 224/3/5 220/3/5 223/3/5
f 225/2/5 222/2/5 221/2/5
f 226/3/5 223/3/5 222/3/5
f 226/2/5 222/2/5 225/2/5
f 227/2/5 224/2/5 223/2/5
f 227/3/5 223/3/5 226/3/5
f 228/2/5 224/2/5 227/2/5
f 233/5/5 230/5/5 229/5/5
f 234/5/5 230/5/5 233/5/5
f 235/5/5 232/5/5 231/5/5
f 236/5/5 232/5/5 235/5/5
f 241/1/5 238/1/5 237/1/5
f 241/5/5 239/5/5 238/5/5
f 242/1/5 240/1/5 239/1/5
f 242/5/5 239/5/5 241/5/5
f 243/1/5 241/1/5 237/1/5
f 243/1/5 242/1/5 241/1/5
f 244/1/5 240/1/5 242/1/5
f 244/1/5 242/1/5 243/1/5
f 249/3/5 246/3/5 245/3/5
f 250/3/5 246/3/5 249/3/5
f 251/3/5 248/3/5 247/3/5
f 252/3/5 248/3/5 251/3/5
f 257/5/5 254/5/5 253/5/5
f 258/5/5 254/5/5 257/5/5
f 259/5/5 256/5/5 255/5/5
f 260/5/5 256/5/5 259/5/5
f 261/5/6 262/5/6 265/5/6
f 265/5/6 262/5/6 266/5/6
f 263/5/6 264/5/6 267/5/6
f 267/5/6 264/5/6 268/5/6
f 269/3/6 270/3/6 273/3/6
f 273/3/6 270/3/6 274/3/6
f 271/3/6 272/3/6 275/3/6
f 275/3/6 272/3/6 276/3/6
f 277/1/6 278/1/6 281/1/6
f 278/5/6 279/5/6 281/5/6
f 279/1/6 280/1/6 282/1/6
f 281/5/6 279/5/6 282/5/6
f 277/1/6 281/1/6 283/1/6
f 281/1/6 282/1/6 283/1/6
f 282/1/6 280/1/6 284/1/6
f 283/1/6 282/1/6 284/1/6
f 285/5/6 286/5/6 289/5/6
f 289/5/6 286/5/6 290/5/6
f 287/5/6 288/5/6 291/5/6
f 291/5/6 288/5/6 292/5/6
f 293/4/6 294/4/6 295/4/6
f 295/4/6 294/4/6 296/4/6
f 297/4/6 298/4/6 301/4/6
f 301/4/6 298/4/6 302/4/6
f 299/4/6 300/4/6 303/4/6
f 303/4/6 300/4/6 304/4/6
f 301/3/6 302/3/6 305/3/6
f 302/3/6 303/3/6 305/3/6
f 303/3/6 304/3/6 305/3/6
f 305/3/6 304/3/6 306/3/6
f 306/3/6 304/3/6 307/3/6
f 307/3/6 304/3/6 308/3/6
f 308/3/6 304/3/6 309/3/6
f 309/3/6 304/3/6 310/3/6
f 305/2/6 306/2/6 311/2/6
f 306/1/6 307/1/6 311/1/6
f 307/3/6 308/3/6 312/3/6
f 311/1/6 307/1/6 312/1/6
f 308/1/6 309/1/6 313/1/6
f 312/3/6 308/3/6 313/3/6
f 309/2/6 310/2/6 314/2/6
f 313/1/6 309/1/6 314/1/6
f 305/2/6 311/2/6 315/2/6
f 311/2/6 312/2/6 315/2/6
f 312/3/6 313/3/6 316/3/6
f 315/2/6 312/2/6 316/2/6
f 313/2/6 314/2/6 317/2/6
f 316/3/6 313/3/6 317/3/6
f 314/2/6 310/2/6 318/2/6
f 317/2/6 314/2/6 318/2/6
