# MagicaVoxel @ Ephtracy

# group
o 

# material
mtllib CrossyRoadChicken.mtl
usemtl palette

# normals
vn -1 0 0
vn 1 0 0
vn 0 0 1
vn 0 0 -1
vn 0 -1 0
vn 0 1 0

# texcoords
vt 0.00195313 0.5
vt 0.0644531 0.5
vt 0.841797 0.5
vt 0.994141 0.5

# verts
v 0 1.3 -0.4
v 0 1.3 -1
v 0 1.6 -0.4
v 0 1.6 -1
v 0.1 0.8 -0.3
v 0.1 0.8 -0.8
v 0.1 0.9 -0.3
v 0.1 0.9 -0.8
v 0.2 0.9 -0.6
v 0.2 0.9 -0.7
v 0.2 1.2 -0.3
v 0.2 1.2 -0.6
v 0.2 1.2 -0.7
v 0.2 1.2 -1.2
v 0.2 1.3 -0.4
v 0.2 1.3 -1
v 0.2 1.6 -0.4
v 0.2 1.6 -1
v 0.2 1.7 -0.9
v 0.2 1.7 -1.2
v 0.2 2 -0.4
v 0.2 2 -0.5
v 0.2 2.1 -0.4
v 0.2 2.1 -0.5
v 0.2 2.3 -0.3
v 0.2 2.3 -0.9
v 0.3 0.8 -0.3
v 0.3 0.8 -0.4
v 0.3 0.9 -0.3
v 0.3 0.9 -0.4
v 0.3 1.3 -1.2
v 0.3 1.3 -1.3
v 0.3 1.7 -1.2
v 0.3 1.7 -1.3
v 0.4 1.7 -0.2
v 0.4 1.7 -0.3
v 0.4 1.9 0
v 0.4 1.9 -0.2
v 0.4 1.9 -0.3
v 0.4 2.1 0
v 0.4 2.1 -0.3
v 0.4 2.3 -0.4
v 0.4 2.3 -0.8
v 0.4 2.5 -0.4
v 0.4 2.5 -0.8
v 0.6 0.8 -0.3
v 0.6 0.8 -0.8
v 0.6 0.9 -0.3
v 0.6 0.9 -0.8
v 0.7 0.9 -0.6
v 0.7 0.9 -0.7
v 0.7 1.2 -0.6
v 0.7 1.2 -0.7
v 0.8 0.8 -0.3
v 0.8 0.8 -0.4
v 0.8 0.9 -0.3
v 0.8 0.9 -0.4
v 0.2 0.8 -0.3
v 0.2 0.8 -0.4
v 0.2 0.9 -0.3
v 0.2 0.9 -0.4
v 0.3 0.9 -0.6
v 0.3 0.9 -0.7
v 0.3 1.2 -0.6
v 0.3 1.2 -0.7
v 0.4 0.8 -0.3
v 0.4 0.8 -0.8
v 0.4 0.9 -0.3
v 0.4 0.9 -0.8
v 0.6 1.7 -0.2
v 0.6 1.7 -0.3
v 0.6 1.9 0
v 0.6 1.9 -0.2
v 0.6 1.9 -0.3
v 0.6 2.1 0
v 0.6 2.1 -0.3
v 0.6 2.3 -0.4
v 0.6 2.3 -0.8
v 0.6 2.5 -0.4
v 0.6 2.5 -0.8
v 0.7 0.8 -0.3
v 0.7 0.8 -0.4
v 0.7 0.9 -0.3
v 0.7 0.9 -0.4
v 0.7 1.3 -1.2
v 0.7 1.3 -1.3
v 0.7 1.7 -1.2
v 0.7 1.7 -1.3
v 0.8 0.9 -0.6
v 0.8 0.9 -0.7
v 0.8 1.2 -0.3
v 0.8 1.2 -0.6
v 0.8 1.2 -0.7
v 0.8 1.2 -1.2
v 0.8 1.3 -0.4
v 0.8 1.3 -1
v 0.8 1.6 -0.4
v 0.8 1.6 -1
v 0.8 1.7 -0.9
v 0.8 1.7 -1.2
v 0.8 2 -0.4
v 0.8 2 -0.5
v 0.8 2.1 -0.4
v 0.8 2.1 -0.5
v 0.8 2.3 -0.3
v 0.8 2.3 -0.9
v 0.9 0.8 -0.3
v 0.9 0.8 -0.8
v 0.9 0.9 -0.3
v 0.9 0.9 -0.8
v 1 1.3 -0.4
v 1 1.3 -1
v 1 1.6 -0.4
v 1 1.6 -1
v 0.4 1.9 0
v 0.4 2.1 0
v 0.6 1.9 0
v 0.6 2.1 0
v 0.4 1.7 -0.2
v 0.4 1.9 -0.2
v 0.6 1.7 -0.2
v 0.6 1.9 -0.2
v 0.1 0.8 -0.3
v 0.1 0.9 -0.3
v 0.2 0.8 -0.3
v 0.2 0.9 -0.3
v 0.2 1.2 -0.3
v 0.2 2.3 -0.3
v 0.3 0.8 -0.3
v 0.3 0.9 -0.3
v 0.4 0.8 -0.3
v 0.4 0.9 -0.3
v 0.4 1.7 -0.3
v 0.4 1.9 -0.3
v 0.4 2.1 -0.3
v 0.6 0.8 -0.3
v 0.6 0.9 -0.3
v 0.6 1.7 -0.3
v 0.6 1.9 -0.3
v 0.6 2.1 -0.3
v 0.7 0.8 -0.3
v 0.7 0.9 -0.3
v 0.8 0.8 -0.3
v 0.8 0.9 -0.3
v 0.8 1.2 -0.3
v 0.8 2.3 -0.3
v 0.9 0.8 -0.3
v 0.9 0.9 -0.3
v 0 1.3 -0.4
v 0 1.6 -0.4
v 0.2 0.8 -0.4
v 0.2 0.9 -0.4
v 0.2 1.3 -0.4
v 0.2 1.6 -0.4
v 0.3 0.8 -0.4
v 0.3 0.9 -0.4
v 0.4 2.3 -0.4
v 0.4 2.5 -0.4
v 0.6 2.3 -0.4
v 0.6 2.5 -0.4
v 0.7 0.8 -0.4
v 0.7 0.9 -0.4
v 0.8 0.8 -0.4
v 0.8 0.9 -0.4
v 0.8 1.3 -0.4
v 0.8 1.6 -0.4
v 1 1.3 -0.4
v 1 1.6 -0.4
v 0.2 0.9 -0.6
v 0.2 1.2 -0.6
v 0.3 0.9 -0.6
v 0.3 1.2 -0.6
v 0.7 0.9 -0.6
v 0.7 1.2 -0.6
v 0.8 0.9 -0.6
v 0.8 1.2 -0.6
v 0.2 0.9 -0.7
v 0.2 1.2 -0.7
v 0.3 0.9 -0.7
v 0.3 1.2 -0.7
v 0.7 0.9 -0.7
v 0.7 1.2 -0.7
v 0.8 0.9 -0.7
v 0.8 1.2 -0.7
v 0.1 0.8 -0.8
v 0.1 0.9 -0.8
v 0.4 0.8 -0.8
v 0.4 0.9 -0.8
v 0.4 2.3 -0.8
v 0.4 2.5 -0.8
v 0.6 0.8 -0.8
v 0.6 0.9 -0.8
v 0.6 2.3 -0.8
v 0.6 2.5 -0.8
v 0.9 0.8 -0.8
v 0.9 0.9 -0.8
v 0.2 1.7 -0.9
v 0.2 2.3 -0.9
v 0.8 1.7 -0.9
v 0.8 2.3 -0.9
v 0 1.3 -1
v 0 1.6 -1
v 0.2 1.3 -1
v 0.2 1.6 -1
v 0.8 1.3 -1
v 0.8 1.6 -1
v 1 1.3 -1
v 1 1.6 -1
v 0.2 1.2 -1.2
v 0.2 1.7 -1.2
v 0.3 1.3 -1.2
v 0.3 1.7 -1.2
v 0.7 1.3 -1.2
v 0.7 1.7 -1.2
v 0.8 1.2 -1.2
v 0.8 1.7 -1.2
v 0.3 1.3 -1.3
v 0.3 1.7 -1.3
v 0.7 1.3 -1.3
v 0.7 1.7 -1.3
v 0.1 0.8 -0.3
v 0.2 0.8 -0.3
v 0.3 0.8 -0.3
v 0.4 0.8 -0.3
v 0.6 0.8 -0.3
v 0.7 0.8 -0.3
v 0.8 0.8 -0.3
v 0.9 0.8 -0.3
v 0.2 0.8 -0.4
v 0.3 0.8 -0.4
v 0.7 0.8 -0.4
v 0.8 0.8 -0.4
v 0.1 0.8 -0.8
v 0.4 0.8 -0.8
v 0.6 0.8 -0.8
v 0.9 0.8 -0.8
v 0.2 1.2 -0.3
v 0.8 1.2 -0.3
v 0.2 1.2 -0.6
v 0.3 1.2 -0.6
v 0.7 1.2 -0.6
v 0.8 1.2 -0.6
v 0.2 1.2 -0.7
v 0.3 1.2 -0.7
v 0.7 1.2 -0.7
v 0.8 1.2 -0.7
v 0.2 1.2 -1.2
v 0.8 1.2 -1.2
v 0 1.3 -0.4
v 0.2 1.3 -0.4
v 0.8 1.3 -0.4
v 1 1.3 -0.4
v 0 1.3 -1
v 0.2 1.3 -1
v 0.8 1.3 -1
v 1 1.3 -1
v 0.3 1.3 -1.2
v 0.7 1.3 -1.2
v 0.3 1.3 -1.3
v 0.7 1.3 -1.3
v 0.4 1.7 -0.2
v 0.6 1.7 -0.2
v 0.4 1.7 -0.3
v 0.6 1.7 -0.3
v 0.4 1.9 0
v 0.6 1.9 0
v 0.4 1.9 -0.2
v 0.6 1.9 -0.2
v 0.1 0.9 -0.3
v 0.2 0.9 -0.3
v 0.3 0.9 -0.3
v 0.4 0.9 -0.3
v 0.6 0.9 -0.3
v 0.7 0.9 -0.3
v 0.8 0.9 -0.3
v 0.9 0.9 -0.3
v 0.2 0.9 -0.4
v 0.3 0.9 -0.4
v 0.7 0.9 -0.4
v 0.8 0.9 -0.4
v 0.2 0.9 -0.6
v 0.3 0.9 -0.6
v 0.7 0.9 -0.6
v 0.8 0.9 -0.6
v 0.2 0.9 -0.7
v 0.3 0.9 -0.7
v 0.7 0.9 -0.7
v 0.8 0.9 -0.7
v 0.1 0.9 -0.8
v 0.4 0.9 -0.8
v 0.6 0.9 -0.8
v 0.9 0.9 -0.8
v 0 1.6 -0.4
v 0.2 1.6 -0.4
v 0.8 1.6 -0.4
v 1 1.6 -0.4
v 0 1.6 -1
v 0.2 1.6 -1
v 0.8 1.6 -1
v 1 1.6 -1
v 0.2 1.7 -0.9
v 0.8 1.7 -0.9
v 0.2 1.7 -1.2
v 0.3 1.7 -1.2
v 0.7 1.7 -1.2
v 0.8 1.7 -1.2
v 0.3 1.7 -1.3
v 0.7 1.7 -1.3
v 0.4 2.1 0
v 0.6 2.1 0
v 0.4 2.1 -0.3
v 0.6 2.1 -0.3
v 0.2 2.3 -0.3
v 0.8 2.3 -0.3
v 0.4 2.3 -0.4
v 0.6 2.3 -0.4
v 0.4 2.3 -0.8
v 0.6 2.3 -0.8
v 0.2 2.3 -0.9
v 0.8 2.3 -0.9
v 0.4 2.5 -0.4
v 0.6 2.5 -0.4
v 0.4 2.5 -0.8
v 0.6 2.5 -0.8

# faces
f 3/1/1 2/1/1 1/1/1
f 4/1/1 2/1/1 3/1/1
f 7/2/1 6/2/1 5/2/1
f 8/2/1 6/2/1 7/2/1
f 12/2/1 10/2/1 9/2/1
f 13/2/1 10/2/1 12/2/1
f 15/1/1 12/1/1 11/1/1
f 15/1/1 14/1/1 13/1/1
f 15/1/1 13/1/1 12/1/1
f 16/1/1 14/1/1 15/1/1
f 17/1/1 15/1/1 11/1/1
f 18/1/1 14/1/1 16/1/1
f 19/1/1 18/1/1 17/1/1
f 20/1/1 14/1/1 18/1/1
f 20/1/1 18/1/1 19/1/1
f 21/1/1 17/1/1 11/1/1
f 21/1/1 19/1/1 17/1/1
f 22/1/1 19/1/1 21/1/1
f 23/1/1 21/1/1 11/1/1
f 23/4/1 22/4/1 21/4/1
f 24/1/1 19/1/1 22/1/1
f 24/4/1 22/4/1 23/4/1
f 25/1/1 23/1/1 11/1/1
f 25/1/1 24/1/1 23/1/1
f 26/1/1 19/1/1 24/1/1
f 26/1/1 24/1/1 25/1/1
f 29/2/1 28/2/1 27/2/1
f 30/2/1 28/2/1 29/2/1
f 33/1/1 32/1/1 31/1/1
f 34/1/1 32/1/1 33/1/1
f 38/3/1 36/3/1 35/3/1
f 39/3/1 36/3/1 38/3/1
f 40/2/1 38/2/1 37/2/1
f 40/2/1 39/2/1 38/2/1
f 41/2/1 39/2/1 40/2/1
f 44/3/1 43/3/1 42/3/1
f 45/3/1 43/3/1 44/3/1
f 48/2/1 47/2/1 46/2/1
f 49/2/1 47/2/1 48/2/1
f 52/2/1 51/2/1 50/2/1
f 53/2/1 51/2/1 52/2/1
f 56/2/1 55/2/1 54/2/1
f 57/2/1 55/2/1 56/2/1
f 58/2/2 59/2/2 60/2/2
f 60/2/2 59/2/2 61/2/2
f 62/2/2 63/2/2 64/2/2
f 64/2/2 63/2/2 65/2/2
f 66/2/2 67/2/2 68/2/2
f 68/2/2 67/2/2 69/2/2
f 70/3/2 71/3/2 73/3/2
f 73/3/2 71/3/2 74/3/2
f 72/2/2 73/2/2 75/2/2
f 73/2/2 74/2/2 75/2/2
f 75/2/2 74/2/2 76/2/2
f 77/3/2 78/3/2 79/3/2
f 79/3/2 78/3/2 80/3/2
f 81/2/2 82/2/2 83/2/2
f 83/2/2 82/2/2 84/2/2
f 85/1/2 86/1/2 87/1/2
f 87/1/2 86/1/2 88/1/2
f 89/2/2 90/2/2 92/2/2
f 92/2/2 90/2/2 93/2/2
f 91/1/2 92/1/2 95/1/2
f 93/1/2 94/1/2 95/1/2
f 92/1/2 93/1/2 95/1/2
f 95/1/2 94/1/2 96/1/2
f 91/1/2 95/1/2 97/1/2
f 96/1/2 94/1/2 98/1/2
f 97/1/2 98/1/2 99/1/2
f 98/1/2 94/1/2 100/1/2
f 99/1/2 98/1/2 100/1/2
f 91/1/2 97/1/2 101/1/2
f 97/1/2 99/1/2 101/1/2
f 101/1/2 99/1/2 102/1/2
f 91/1/2 101/1/2 103/1/2
f 101/4/2 102/4/2 103/4/2
f 102/1/2 99/1/2 104/1/2
f 103/4/2 102/4/2 104/4/2
f 91/1/2 103/1/2 105/1/2
f 103/1/2 104/1/2 105/1/2
f 104/1/2 99/1/2 106/1/2
f 105/1/2 104/1/2 106/1/2
f 107/2/2 108/2/2 109/2/2
f 109/2/2 108/2/2 110/2/2
f 111/1/2 112/1/2 113/1/2
f 113/1/2 112/1/2 114/1/2
f 117/2/3 116/2/3 115/2/3
f 118/2/3 116/2/3 117/2/3
f 121/3/3 120/3/3 119/3/3
f 122/3/3 120/3/3 121/3/3
f 125/2/3 124/2/3 123/2/3
f 126/2/3 124/2/3 125/2/3
f 131/2/3 130/2/3 129/2/3
f 132/2/3 130/2/3 131/2/3
f 133/1/3 128/1/3 127/1/3
f 134/1/3 128/1/3 133/1/3
f 135/1/3 128/1/3 134/1/3
f 138/1/3 133/1/3 127/1/3
f 140/1/3 128/1/3 135/1/3
f 141/2/3 137/2/3 136/2/3
f 142/2/3 137/2/3 141/2/3
f 145/1/3 139/1/3 138/1/3
f 145/1/3 140/1/3 139/1/3
f 145/1/3 138/1/3 127/1/3
f 146/1/3 128/1/3 140/1/3
f 146/1/3 140/1/3 145/1/3
f 147/2/3 144/2/3 143/2/3
f 148/2/3 144/2/3 147/2/3
f 153/1/3 150/1/3 149/1/3
f 154/1/3 150/1/3 153/1/3
f 155/2/3 152/2/3 151/2/3
f 156/2/3 152/2/3 155/2/3
f 159/3/3 158/3/3 157/3/3
f 160/3/3 158/3/3 159/3/3
f 163/2/3 162/2/3 161/2/3
f 164/2/3 162/2/3 163/2/3
f 167/1/3 166/1/3 165/1/3
f 168/1/3 166/1/3 167/1/3
f 171/2/3 170/2/3 169/2/3
f 172/2/3 170/2/3 171/2/3
f 175/2/3 174/2/3 173/2/3
f 176/2/3 174/2/3 175/2/3
f 177/2/4 178/2/4 179/2/4
f 179/2/4 178/2/4 180/2/4
f 181/2/4 182/2/4 183/2/4
f 183/2/4 182/2/4 184/2/4
f 185/2/4 186/2/4 187/2/4
f 187/2/4 186/2/4 188/2/4
f 189/3/4 190/3/4 193/3/4
f 193/3/4 190/3/4 194/3/4
f 191/2/4 192/2/4 195/2/4
f 195/2/4 192/2/4 196/2/4
f 197/1/4 198/1/4 199/1/4
f 199/1/4 198/1/4 200/1/4
f 201/1/4 202/1/4 203/1/4
f 203/1/4 202/1/4 204/1/4
f 205/1/4 206/1/4 207/1/4
f 207/1/4 206/1/4 208/1/4
f 209/1/4 210/1/4 211/1/4
f 211/1/4 210/1/4 212/1/4
f 209/1/4 211/1/4 213/1/4
f 209/1/4 213/1/4 215/1/4
f 213/1/4 214/1/4 215/1/4
f 215/1/4 214/1/4 216/1/4
f 217/1/4 218/1/4 219/1/4
f 219/1/4 218/1/4 220/1/4
f 229/2/5 222/2/5 221/2/5
f 230/2/5 224/2/5 223/2/5
f 231/2/5 226/2/5 225/2/5
f 232/2/5 228/2/5 227/2/5
f 233/2/5 229/2/5 221/2/5
f 233/2/5 230/2/5 229/2/5
f 234/2/5 224/2/5 230/2/5
f 234/2/5 230/2/5 233/2/5
f 235/2/5 231/2/5 225/2/5
f 235/2/5 232/2/5 231/2/5
f 236/2/5 228/2/5 232/2/5
f 236/2/5 232/2/5 235/2/5
f 239/1/5 238/1/5 237/1/5
f 240/1/5 238/1/5 239/1/5
f 241/1/5 238/1/5 240/1/5
f 242/1/5 238/1/5 241/1/5
f 244/1/5 241/1/5 240/1/5
f 245/1/5 241/1/5 244/1/5
f 247/1/5 244/1/5 243/1/5
f 247/1/5 246/1/5 245/1/5
f 247/1/5 245/1/5 244/1/5
f 248/1/5 246/1/5 247/1/5
f 253/1/5 250/1/5 249/1/5
f 254/1/5 250/1/5 253/1/5
f 255/1/5 252/1/5 251/1/5
f 256/1/5 252/1/5 255/1/5
f 259/1/5 258/1/5 257/1/5
f 260/1/5 258/1/5 259/1/5
f 263/3/5 262/3/5 261/3/5
f 264/3/5 262/3/5 263/3/5
f 267/2/5 266/2/5 265/2/5
f 268/2/5 266/2/5 267/2/5
f 269/2/6 270/2/6 277/2/6
f 271/2/6 272/2/6 278/2/6
f 273/2/6 274/2/6 279/2/6
f 275/2/6 276/2/6 280/2/6
f 269/2/6 277/2/6 281/2/6
f 277/2/6 278/2/6 281/2/6
f 278/2/6 272/2/6 282/2/6
f 281/2/6 278/2/6 282/2/6
f 273/2/6 279/2/6 283/2/6
f 279/2/6 280/2/6 283/2/6
f 280/2/6 276/2/6 284/2/6
f 283/2/6 280/2/6 284/2/6
f 269/2/6 281/2/6 285/2/6
f 282/2/6 272/2/6 286/2/6
f 273/2/6 283/2/6 287/2/6
f 284/2/6 276/2/6 288/2/6
f 269/2/6 285/2/6 289/2/6
f 285/2/6 286/2/6 289/2/6
f 286/2/6 272/2/6 290/2/6
f 289/2/6 286/2/6 290/2/6
f 287/2/6 288/2/6 291/2/6
f 273/2/6 287/2/6 291/2/6
f 288/2/6 276/2/6 292/2/6
f 291/2/6 288/2/6 292/2/6
f 293/1/6 294/1/6 297/1/6
f 297/1/6 294/1/6 298/1/6
f 295/1/6 296/1/6 299/1/6
f 299/1/6 296/1/6 300/1/6
f 301/1/6 302/1/6 303/1/6
f 303/1/6 302/1/6 304/1/6
f 304/1/6 302/1/6 305/1/6
f 305/1/6 302/1/6 306/1/6
f 304/1/6 305/1/6 307/1/6
f 307/1/6 305/1/6 308/1/6
f 309/2/6 310/2/6 311/2/6
f 311/2/6 310/2/6 312/2/6
f 313/1/6 314/1/6 315/1/6
f 315/1/6 314/1/6 316/1/6
f 313/1/6 315/1/6 317/1/6
f 316/1/6 314/1/6 318/1/6
f 313/1/6 317/1/6 319/1/6
f 317/1/6 318/1/6 319/1/6
f 318/1/6 314/1/6 320/1/6
f 319/1/6 318/1/6 320/1/6
f 321/3/6 322/3/6 323/3/6
f 323/3/6 322/3/6 324/3/6
