# MagicaVoxel @ Ephtracy

# group
o 

# material
mtllib CrossyRoadTruck.mtl
usemtl palette

# normals
vn -1 0 0
vn 1 0 0
vn 0 0 1
vn 0 0 -1
vn 0 -1 0
vn 0 1 0

# texcoords
vt 0.00195313 0.5
vt 0.845703 0.5
vt 0.857422 0.5
vt 0.962891 0.5
vt 0.982422 0.5
vt 0.994141 0.5

# verts
v 0 0.5 -0.3
v 0 0.5 -0.4
v 0 0.5 -0.9
v 0 0.5 -1
v 0 2.4 -0.3
v 0 2.4 -0.4
v 0 2.4 -0.9
v 0 2.4 -1
v 0 2.9 -0.3
v 0 2.9 -0.5
v 0 3 -0.3
v 0 3 -0.5
v 0.1 0.6 -0.1
v 0.1 0.6 -0.2
v 0.1 0.6 -0.3
v 0.1 0.7 0
v 0.1 0.7 -0.1
v 0.1 0.7 -0.2
v 0.1 0.7 -0.3
v 0.1 0.8 -0.1
v 0.1 0.8 -0.2
v 0.1 0.9 -0.1
v 0.1 0.9 -0.2
v 0.1 1 0
v 0.1 1 -0.1
v 0.1 1 -0.2
v 0.1 1 -0.3
v 0.1 1.9 0
v 0.1 1.9 -0.1
v 0.1 1.9 -0.2
v 0.1 1.9 -0.3
v 0.1 2 -0.1
v 0.1 2 -0.2
v 0.1 2.1 -0.1
v 0.1 2.1 -0.2
v 0.1 2.2 0
v 0.1 2.2 -0.1
v 0.1 2.2 -0.2
v 0.1 2.2 -0.3
v 0.1 2.4 -0.1
v 0.1 2.4 -0.2
v 0.1 2.4 -0.3
v 0.1 2.5 -0.1
v 0.1 2.5 -0.2
v 0.1 2.5 -0.3
v 0.1 2.5 -0.8
v 0.1 2.6 0
v 0.1 2.6 -0.1
v 0.1 2.6 -0.2
v 0.1 2.6 -0.3
v 0.1 2.7 -0.1
v 0.1 2.7 -0.2
v 0.1 2.8 -0.1
v 0.1 2.8 -0.2
v 0.1 2.8 -0.5
v 0.1 2.8 -0.7
v 0.1 2.9 0
v 0.1 2.9 -0.1
v 0.1 2.9 -0.2
v 0.1 2.9 -0.3
v 0.1 2.9 -0.5
v 0.1 3 -0.3
v 0.1 3 -0.5
v 0.1 3.1 -0.1
v 0.1 3.1 -0.2
v 0.1 3.1 -0.3
v 0.1 3.1 -0.5
v 0.1 3.1 -0.7
v 0.1 3.1 -0.8
v 0.2 2.4 -0.1
v 0.2 2.4 -0.2
v 0.2 2.5 -0.1
v 0.2 2.5 -0.2
v 0.2 2.5 -0.8
v 0.2 2.5 -1
v 0.2 2.7 -0.9
v 0.2 2.7 -1
v 0.2 2.8 -0.8
v 0.2 2.8 -0.9
v 0.3 2.4 -0.2
v 0.3 2.4 -0.3
v 0.3 2.5 -0.2
v 0.3 2.5 -0.3
v 0.7 0.7 0
v 0.7 0.7 -0.1
v 0.7 1 0
v 0.7 1 -0.1
v 0.7 1.9 0
v 0.7 1.9 -0.1
v 0.7 2.2 0
v 0.7 2.2 -0.1
v 0.7 2.6 0
v 0.7 2.6 -0.1
v 0.7 2.9 0
v 0.7 2.9 -0.1
v 0.2 0.7 0
v 0.2 0.7 -0.1
v 0.2 1 0
v 0.2 1 -0.1
v 0.2 1.9 0
v 0.2 1.9 -0.1
v 0.2 2.2 0
v 0.2 2.2 -0.1
v 0.2 2.6 0
v 0.2 2.6 -0.1
v 0.2 2.9 0
v 0.2 2.9 -0.1
v 0.6 2.4 -0.2
v 0.6 2.4 -0.3
v 0.6 2.5 -0.2
v 0.6 2.5 -0.3
v 0.7 2.4 -0.1
v 0.7 2.4 -0.2
v 0.7 2.5 -0.1
v 0.7 2.5 -0.2
v 0.7 2.5 -0.8
v 0.7 2.5 -1
v 0.7 2.7 -0.9
v 0.7 2.7 -1
v 0.7 2.8 -0.8
v 0.7 2.8 -0.9
v 0.8 0.6 -0.1
v 0.8 0.6 -0.2
v 0.8 0.6 -0.3
v 0.8 0.7 0
v 0.8 0.7 -0.1
v 0.8 0.7 -0.2
v 0.8 0.7 -0.3
v 0.8 0.8 -0.1
v 0.8 0.8 -0.2
v 0.8 0.9 -0.1
v 0.8 0.9 -0.2
v 0.8 1 0
v 0.8 1 -0.1
v 0.8 1 -0.2
v 0.8 1 -0.3
v 0.8 1.9 0
v 0.8 1.9 -0.1
v 0.8 1.9 -0.2
v 0.8 1.9 -0.3
v 0.8 2 -0.1
v 0.8 2 -0.2
v 0.8 2.1 -0.1
v 0.8 2.1 -0.2
v 0.8 2.2 0
v 0.8 2.2 -0.1
v 0.8 2.2 -0.2
v 0.8 2.2 -0.3
v 0.8 2.4 -0.1
v 0.8 2.4 -0.2
v 0.8 2.4 -0.3
v 0.8 2.5 -0.1
v 0.8 2.5 -0.2
v 0.8 2.5 -0.3
v 0.8 2.5 -0.8
v 0.8 2.6 0
v 0.8 2.6 -0.1
v 0.8 2.6 -0.2
v 0.8 2.6 -0.3
v 0.8 2.7 -0.1
v 0.8 2.7 -0.2
v 0.8 2.8 -0.1
v 0.8 2.8 -0.2
v 0.8 2.8 -0.5
v 0.8 2.8 -0.7
v 0.8 2.9 0
v 0.8 2.9 -0.1
v 0.8 2.9 -0.2
v 0.8 2.9 -0.3
v 0.8 2.9 -0.5
v 0.8 3 -0.3
v 0.8 3 -0.5
v 0.8 3.1 -0.1
v 0.8 3.1 -0.2
v 0.8 3.1 -0.3
v 0.8 3.1 -0.5
v 0.8 3.1 -0.7
v 0.8 3.1 -0.8
v 0.9 0.5 -0.3
v 0.9 0.5 -0.4
v 0.9 0.5 -0.9
v 0.9 0.5 -1
v 0.9 2.4 -0.3
v 0.9 2.4 -0.4
v 0.9 2.4 -0.9
v 0.9 2.4 -1
v 0.9 2.9 -0.3
v 0.9 2.9 -0.5
v 0.9 3 -0.3
v 0.9 3 -0.5
v 0.1 0.7 0
v 0.1 1 0
v 0.1 1.9 0
v 0.1 2.2 0
v 0.1 2.6 0
v 0.1 2.9 0
v 0.2 0.7 0
v 0.2 1 0
v 0.2 1.9 0
v 0.2 2.2 0
v 0.2 2.6 0
v 0.2 2.9 0
v 0.7 0.7 0
v 0.7 1 0
v 0.7 1.9 0
v 0.7 2.2 0
v 0.7 2.6 0
v 0.7 2.9 0
v 0.8 0.7 0
v 0.8 1 0
v 0.8 1.9 0
v 0.8 2.2 0
v 0.8 2.6 0
v 0.8 2.9 0
v 0.1 0.6 -0.1
v 0.1 0.7 -0.1
v 0.1 1 -0.1
v 0.1 1.9 -0.1
v 0.1 2.2 -0.1
v 0.1 2.4 -0.1
v 0.1 2.5 -0.1
v 0.1 2.6 -0.1
v 0.1 2.9 -0.1
v 0.1 3.1 -0.1
v 0.2 0.7 -0.1
v 0.2 1 -0.1
v 0.2 1.9 -0.1
v 0.2 2.2 -0.1
v 0.2 2.4 -0.1
v 0.2 2.5 -0.1
v 0.2 2.6 -0.1
v 0.2 2.9 -0.1
v 0.7 0.7 -0.1
v 0.7 1 -0.1
v 0.7 1.9 -0.1
v 0.7 2.2 -0.1
v 0.7 2.4 -0.1
v 0.7 2.5 -0.1
v 0.7 2.6 -0.1
v 0.7 2.9 -0.1
v 0.8 0.6 -0.1
v 0.8 0.7 -0.1
v 0.8 1 -0.1
v 0.8 1.9 -0.1
v 0.8 2.2 -0.1
v 0.8 2.4 -0.1
v 0.8 2.5 -0.1
v 0.8 2.6 -0.1
v 0.8 2.9 -0.1
v 0.8 3.1 -0.1
v 0 0.5 -0.3
v 0 2.4 -0.3
v 0 2.9 -0.3
v 0 3 -0.3
v 0.1 0.6 -0.3
v 0.1 0.7 -0.3
v 0.1 1 -0.3
v 0.1 1.9 -0.3
v 0.1 2.2 -0.3
v 0.1 2.4 -0.3
v 0.1 2.9 -0.3
v 0.1 3 -0.3
v 0.8 0.6 -0.3
v 0.8 0.7 -0.3
v 0.8 1 -0.3
v 0.8 1.9 -0.3
v 0.8 2.2 -0.3
v 0.8 2.4 -0.3
v 0.8 2.9 -0.3
v 0.8 3 -0.3
v 0.9 0.5 -0.3
v 0.9 2.4 -0.3
v 0.9 2.9 -0.3
v 0.9 3 -0.3
v 0.2 2.4 -0.2
v 0.2 2.5 -0.2
v 0.3 2.4 -0.2
v 0.3 2.5 -0.2
v 0.6 2.4 -0.2
v 0.6 2.5 -0.2
v 0.7 2.4 -0.2
v 0.7 2.5 -0.2
v 0.3 2.4 -0.3
v 0.3 2.5 -0.3
v 0.6 2.4 -0.3
v 0.6 2.5 -0.3
v 0 2.9 -0.5
v 0 3 -0.5
v 0.1 2.9 -0.5
v 0.1 3 -0.5
v 0.8 2.9 -0.5
v 0.8 3 -0.5
v 0.9 2.9 -0.5
v 0.9 3 -0.5
v 0.1 2.5 -0.8
v 0.1 3.1 -0.8
v 0.2 2.5 -0.8
v 0.2 2.8 -0.8
v 0.7 2.5 -0.8
v 0.7 2.8 -0.8
v 0.8 2.5 -0.8
v 0.8 3.1 -0.8
v 0.2 2.7 -0.9
v 0.2 2.8 -0.9
v 0.7 2.7 -0.9
v 0.7 2.8 -0.9
v 0 0.5 -1
v 0 2.4 -1
v 0.2 2.5 -1
v 0.2 2.7 -1
v 0.7 2.5 -1
v 0.7 2.7 -1
v 0.9 0.5 -1
v 0.9 2.4 -1
v 0 0.5 -0.3
v 0.9 0.5 -0.3
v 0 0.5 -0.4
v 0.9 0.5 -0.4
v 0 0.5 -0.9
v 0.9 0.5 -0.9
v 0 0.5 -1
v 0.9 0.5 -1
v 0.1 0.6 -0.1
v 0.8 0.6 -0.1
v 0.1 0.6 -0.2
v 0.8 0.6 -0.2
v 0.1 0.6 -0.3
v 0.8 0.6 -0.3
v 0.1 0.7 0
v 0.2 0.7 0
v 0.7 0.7 0
v 0.8 0.7 0
v 0.1 0.7 -0.1
v 0.2 0.7 -0.1
v 0.7 0.7 -0.1
v 0.8 0.7 -0.1
v 0.1 1.9 0
v 0.2 1.9 0
v 0.7 1.9 0
v 0.8 1.9 0
v 0.1 1.9 -0.1
v 0.2 1.9 -0.1
v 0.7 1.9 -0.1
v 0.8 1.9 -0.1
v 0.1 2.5 -0.1
v 0.2 2.5 -0.1
v 0.7 2.5 -0.1
v 0.8 2.5 -0.1
v 0.1 2.5 -0.2
v 0.2 2.5 -0.2
v 0.3 2.5 -0.2
v 0.6 2.5 -0.2
v 0.7 2.5 -0.2
v 0.8 2.5 -0.2
v 0.1 2.5 -0.3
v 0.3 2.5 -0.3
v 0.6 2.5 -0.3
v 0.8 2.5 -0.3
v 0.1 2.5 -0.8
v 0.2 2.5 -0.8
v 0.7 2.5 -0.8
v 0.8 2.5 -0.8
v 0.2 2.5 -1
v 0.7 2.5 -1
v 0.1 2.6 0
v 0.2 2.6 0
v 0.7 2.6 0
v 0.8 2.6 0
v 0.1 2.6 -0.1
v 0.2 2.6 -0.1
v 0.7 2.6 -0.1
v 0.8 2.6 -0.1
v 0 2.9 -0.3
v 0.1 2.9 -0.3
v 0.8 2.9 -0.3
v 0.9 2.9 -0.3
v 0 2.9 -0.5
v 0.1 2.9 -0.5
v 0.8 2.9 -0.5
v 0.9 2.9 -0.5
v 0.1 1 0
v 0.2 1 0
v 0.7 1 0
v 0.8 1 0
v 0.1 1 -0.1
v 0.2 1 -0.1
v 0.7 1 -0.1
v 0.8 1 -0.1
v 0.1 2.2 0
v 0.2 2.2 0
v 0.7 2.2 0
v 0.8 2.2 0
v 0.1 2.2 -0.1
v 0.2 2.2 -0.1
v 0.7 2.2 -0.1
v 0.8 2.2 -0.1
v 0.1 2.4 -0.1
v 0.2 2.4 -0.1
v 0.7 2.4 -0.1
v 0.8 2.4 -0.1
v 0.1 2.4 -0.2
v 0.2 2.4 -0.2
v 0.3 2.4 -0.2
v 0.6 2.4 -0.2
v 0.7 2.4 -0.2
v 0.8 2.4 -0.2
v 0 2.4 -0.3
v 0.1 2.4 -0.3
v 0.3 2.4 -0.3
v 0.6 2.4 -0.3
v 0.8 2.4 -0.3
v 0.9 2.4 -0.3
v 0 2.4 -0.4
v 0.9 2.4 -0.4
v 0 2.4 -0.9
v 0.9 2.4 -0.9
v 0 2.4 -1
v 0.9 2.4 -1
v 0.2 2.7 -0.9
v 0.7 2.7 -0.9
v 0.2 2.7 -1
v 0.7 2.7 -1
v 0.2 2.8 -0.8
v 0.7 2.8 -0.8
v 0.2 2.8 -0.9
v 0.7 2.8 -0.9
v 0.1 2.9 0
v 0.2 2.9 0
v 0.7 2.9 0
v 0.8 2.9 0
v 0.1 2.9 -0.1
v 0.2 2.9 -0.1
v 0.7 2.9 -0.1
v 0.8 2.9 -0.1
v 0 3 -0.3
v 0.1 3 -0.3
v 0.8 3 -0.3
v 0.9 3 -0.3
v 0 3 -0.5
v 0.1 3 -0.5
v 0.8 3 -0.5
v 0.9 3 -0.5
v 0.1 3.1 -0.1
v 0.8 3.1 -0.1
v 0.1 3.1 -0.2
v 0.2 3.1 -0.2
v 0.3 3.1 -0.2
v 0.6 3.1 -0.2
v 0.7 3.1 -0.2
v 0.8 3.1 -0.2
v 0.1 3.1 -0.3
v 0.2 3.1 -0.3
v 0.3 3.1 -0.3
v 0.6 3.1 -0.3
v 0.7 3.1 -0.3
v 0.8 3.1 -0.3
v 0.1 3.1 -0.5
v 0.8 3.1 -0.5
v 0.1 3.1 -0.7
v 0.8 3.1 -0.7
v 0.1 3.1 -0.8
v 0.8 3.1 -0.8

# faces
f 5/4/1 2/4/1 1/4/1
f 6/1/1 3/1/1 2/1/1
f 6/4/1 2/4/1 5/4/1
f 7/4/1 4/4/1 3/4/1
f 7/1/1 3/1/1 6/1/1
f 8/4/1 4/4/1 7/4/1
f 11/3/1 10/3/1 9/3/1
f 12/3/1 10/3/1 11/3/1
f 17/5/1 14/5/1 13/5/1
f 18/3/1 15/3/1 14/3/1
f 18/5/1 14/5/1 17/5/1
f 19/3/1 15/3/1 18/3/1
f 20/6/1 17/6/1 16/6/1
f 20/6/1 18/6/1 17/6/1
f 20/6/1 19/6/1 18/6/1
f 21/6/1 19/6/1 20/6/1
f 22/6/1 20/6/1 16/6/1
f 22/4/1 21/4/1 20/4/1
f 23/6/1 19/6/1 21/6/1
f 23/4/1 21/4/1 22/4/1
f 24/6/1 22/6/1 16/6/1
f 24/6/1 23/6/1 22/6/1
f 25/6/1 23/6/1 24/6/1
f 26/6/1 19/6/1 23/6/1
f 26/6/1 23/6/1 25/6/1
f 27/6/1 19/6/1 26/6/1
f 29/5/1 26/5/1 25/5/1
f 30/3/1 27/3/1 26/3/1
f 30/5/1 26/5/1 29/5/1
f 31/3/1 27/3/1 30/3/1
f 32/6/1 29/6/1 28/6/1
f 32/6/1 30/6/1 29/6/1
f 32/6/1 31/6/1 30/6/1
f 33/6/1 31/6/1 32/6/1
f 34/6/1 32/6/1 28/6/1
f 34/4/1 33/4/1 32/4/1
f 35/6/1 31/6/1 33/6/1
f 35/4/1 33/4/1 34/4/1
f 36/6/1 34/6/1 28/6/1
f 36/6/1 35/6/1 34/6/1
f 37/6/1 35/6/1 36/6/1
f 38/6/1 31/6/1 35/6/1
f 38/6/1 35/6/1 37/6/1
f 39/6/1 31/6/1 38/6/1
f 40/5/1 38/5/1 37/5/1
f 41/3/1 39/3/1 38/3/1
f 41/5/1 38/5/1 40/5/1
f 42/3/1 39/3/1 41/3/1
f 48/5/1 44/5/1 43/5/1
f 49/3/1 45/3/1 44/3/1
f 49/5/1 44/5/1 48/5/1
f 50/2/1 46/2/1 45/2/1
f 50/3/1 45/3/1 49/3/1
f 51/6/1 48/6/1 47/6/1
f 51/6/1 49/6/1 48/6/1
f 51/6/1 50/6/1 49/6/1
f 52/6/1 50/6/1 51/6/1
f 53/6/1 51/6/1 47/6/1
f 53/4/1 52/4/1 51/4/1
f 54/6/1 50/6/1 52/6/1
f 54/4/1 52/4/1 53/4/1
f 55/2/1 46/2/1 50/2/1
f 56/2/1 46/2/1 55/2/1
f 57/6/1 53/6/1 47/6/1
f 57/6/1 54/6/1 53/6/1
f 58/6/1 54/6/1 57/6/1
f 59/6/1 50/6/1 54/6/1
f 59/6/1 54/6/1 58/6/1
f 60/2/1 55/2/1 50/2/1
f 60/6/1 50/6/1 59/6/1
f 61/6/1 56/6/1 55/6/1
f 61/2/1 55/2/1 60/2/1
f 62/3/1 60/3/1 59/3/1
f 63/6/1 56/6/1 61/6/1
f 64/5/1 59/5/1 58/5/1
f 65/3/1 62/3/1 59/3/1
f 65/5/1 59/5/1 64/5/1
f 66/2/1 63/2/1 62/2/1
f 66/3/1 62/3/1 65/3/1
f 67/6/1 56/6/1 63/6/1
f 67/2/1 63/2/1 66/2/1
f 68/2/1 46/2/1 56/2/1
f 68/6/1 56/6/1 67/6/1
f 69/2/1 46/2/1 68/2/1
f 72/5/1 71/5/1 70/5/1
f 73/5/1 71/5/1 72/5/1
f 76/1/1 75/1/1 74/1/1
f 77/1/1 75/1/1 76/1/1
f 78/1/1 76/1/1 74/1/1
f 79/1/1 76/1/1 78/1/1
f 82/5/1 81/5/1 80/5/1
f 83/5/1 81/5/1 82/5/1
f 86/6/1 85/6/1 84/6/1
f 87/6/1 85/6/1 86/6/1
f 90/6/1 89/6/1 88/6/1
f 91/6/1 89/6/1 90/6/1
f 94/6/1 93/6/1 92/6/1
f 95/6/1 93/6/1 94/6/1
f 96/6/2 97/6/2 98/6/2
f 98/6/2 97/6/2 99/6/2
f 100/6/2 101/6/2 102/6/2
f 102/6/2 101/6/2 103/6/2
f 104/6/2 105/6/2 106/6/2
f 106/6/2 105/6/2 107/6/2
f 108/5/2 109/5/2 110/5/2
f 110/5/2 109/5/2 111/5/2
f 112/5/2 113/5/2 114/5/2
f 114/5/2 113/5/2 115/5/2
f 116/1/2 117/1/2 118/1/2
f 118/1/2 117/1/2 119/1/2
f 116/1/2 118/1/2 120/1/2
f 120/1/2 118/1/2 121/1/2
f 122/5/2 123/5/2 126/5/2
f 123/3/2 124/3/2 127/3/2
f 126/5/2 123/5/2 127/5/2
f 127/3/2 124/3/2 128/3/2
f 125/6/2 126/6/2 129/6/2
f 126/6/2 127/6/2 129/6/2
f 127/6/2 128/6/2 129/6/2
f 129/6/2 128/6/2 130/6/2
f 125/6/2 129/6/2 131/6/2
f 129/4/2 130/4/2 131/4/2
f 130/6/2 128/6/2 132/6/2
f 131/4/2 130/4/2 132/4/2
f 125/6/2 131/6/2 133/6/2
f 131/6/2 132/6/2 133/6/2
f 133/6/2 132/6/2 134/6/2
f 132/6/2 128/6/2 135/6/2
f 134/6/2 132/6/2 135/6/2
f 135/6/2 128/6/2 136/6/2
f 134/5/2 135/5/2 138/5/2
f 135/3/2 136/3/2 139/3/2
f 138/5/2 135/5/2 139/5/2
f 139/3/2 136/3/2 140/3/2
f 137/6/2 138/6/2 141/6/2
f 138/6/2 139/6/2 141/6/2
f 139/6/2 140/6/2 141/6/2
f 141/6/2 140/6/2 142/6/2
f 137/6/2 141/6/2 143/6/2
f 141/4/2 142/4/2 143/4/2
f 142/6/2 140/6/2 144/6/2
f 143/4/2 142/4/2 144/4/2
f 137/6/2 143/6/2 145/6/2
f 143/6/2 144/6/2 145/6/2
f 145/6/2 144/6/2 146/6/2
f 144/6/2 140/6/2 147/6/2
f 146/6/2 144/6/2 147/6/2
f 147/6/2 140/6/2 148/6/2
f 146/5/2 147/5/2 149/5/2
f 147/3/2 148/3/2 150/3/2
f 149/5/2 147/5/2 150/5/2
f 150/3/2 148/3/2 151/3/2
f 152/5/2 153/5/2 157/5/2
f 153/3/2 154/3/2 158/3/2
f 157/5/2 153/5/2 158/5/2
f 154/2/2 155/2/2 159/2/2
f 158/3/2 154/3/2 159/3/2
f 156/6/2 157/6/2 160/6/2
f 157/6/2 158/6/2 160/6/2
f 158/6/2 159/6/2 160/6/2
f 160/6/2 159/6/2 161/6/2
f 156/6/2 160/6/2 162/6/2
f 160/4/2 161/4/2 162/4/2
f 161/6/2 159/6/2 163/6/2
f 162/4/2 161/4/2 163/4/2
f 159/2/2 155/2/2 164/2/2
f 164/2/2 155/2/2 165/2/2
f 156/6/2 162/6/2 166/6/2
f 162/6/2 163/6/2 166/6/2
f 166/6/2 163/6/2 167/6/2
f 163/6/2 159/6/2 168/6/2
f 167/6/2 163/6/2 168/6/2
f 159/2/2 164/2/2 169/2/2
f 168/6/2 159/6/2 169/6/2
f 164/6/2 165/6/2 170/6/2
f 169/2/2 164/2/2 170/2/2
f 168/3/2 169/3/2 171/3/2
f 170/6/2 165/6/2 172/6/2
f 167/5/2 168/5/2 173/5/2
f 168/3/2 171/3/2 174/3/2
f 173/5/2 168/5/2 174/5/2
f 171/2/2 172/2/2 175/2/2
f 174/3/2 171/3/2 175/3/2
f 172/6/2 165/6/2 176/6/2
f 175/2/2 172/2/2 176/2/2
f 165/2/2 155/2/2 177/2/2
f 176/6/2 165/6/2 177/6/2
f 177/2/2 155/2/2 178/2/2
f 179/4/2 180/4/2 183/4/2
f 180/1/2 181/1/2 184/1/2
f 183/4/2 180/4/2 184/4/2
f 181/4/2 182/4/2 185/4/2
f 184/1/2 181/1/2 185/1/2
f 185/4/2 182/4/2 186/4/2
f 187/3/2 188/3/2 189/3/2
f 189/3/2 188/3/2 190/3/2
f 197/6/3 192/6/3 191/6/3
f 198/6/3 192/6/3 197/6/3
f 199/6/3 194/6/3 193/6/3
f 200/6/3 194/6/3 199/6/3
f 201/6/3 196/6/3 195/6/3
f 202/6/3 196/6/3 201/6/3
f 209/6/3 204/6/3 203/6/3
f 210/6/3 204/6/3 209/6/3
f 211/6/3 206/6/3 205/6/3
f 212/6/3 206/6/3 211/6/3
f 213/6/3 208/6/3 207/6/3
f 214/6/3 208/6/3 213/6/3
f 225/5/3 216/5/3 215/5/3
f 226/5/3 218/5/3 217/5/3
f 227/5/3 218/5/3 226/5/3
f 228/5/3 220/5/3 219/5/3
f 229/5/3 220/5/3 228/5/3
f 230/5/3 222/5/3 221/5/3
f 231/5/3 222/5/3 230/5/3
f 232/5/3 224/5/3 223/5/3
f 233/5/3 231/5/3 230/5/3
f 233/5/3 232/5/3 231/5/3
f 233/5/3 225/5/3 215/5/3
f 233/5/3 227/5/3 226/5/3
f 233/5/3 230/5/3 229/5/3
f 233/5/3 229/5/3 228/5/3
f 233/5/3 228/5/3 227/5/3
f 233/5/3 226/5/3 225/5/3
f 234/5/3 232/5/3 233/5/3
f 235/5/3 232/5/3 234/5/3
f 236/5/3 232/5/3 235/5/3
f 237/5/3 232/5/3 236/5/3
f 238/5/3 232/5/3 237/5/3
f 239/5/3 232/5/3 238/5/3
f 240/5/3 224/5/3 232/5/3
f 240/5/3 232/5/3 239/5/3
f 241/5/3 233/5/3 215/5/3
f 242/5/3 233/5/3 241/5/3
f 243/5/3 235/5/3 234/5/3
f 244/5/3 235/5/3 243/5/3
f 245/5/3 237/5/3 236/5/3
f 246/5/3 237/5/3 245/5/3
f 247/5/3 239/5/3 238/5/3
f 248/5/3 239/5/3 247/5/3
f 249/5/3 224/5/3 240/5/3
f 250/5/3 224/5/3 249/5/3
f 255/4/3 252/4/3 251/4/3
f 256/4/3 252/4/3 255/4/3
f 257/4/3 252/4/3 256/4/3
f 258/4/3 252/4/3 257/4/3
f 259/4/3 252/4/3 258/4/3
f 260/4/3 252/4/3 259/4/3
f 261/3/3 254/3/3 253/3/3
f 262/3/3 254/3/3 261/3/3
f 263/4/3 255/4/3 251/4/3
f 271/4/3 263/4/3 251/4/3
f 271/4/3 264/4/3 263/4/3
f 271/4/3 268/4/3 267/4/3
f 271/4/3 267/4/3 266/4/3
f 271/4/3 266/4/3 265/4/3
f 271/4/3 265/4/3 264/4/3
f 272/4/3 268/4/3 271/4/3
f 273/3/3 270/3/3 269/3/3
f 274/3/3 270/3/3 273/3/3
f 275/5/4 276/5/4 277/5/4
f 277/5/4 276/5/4 278/5/4
f 279/5/4 280/5/4 281/5/4
f 281/5/4 280/5/4 282/5/4
f 283/5/4 284/5/4 285/5/4
f 285/5/4 284/5/4 286/5/4
f 287/3/4 288/3/4 289/3/4
f 289/3/4 288/3/4 290/3/4
f 291/3/4 292/3/4 293/3/4
f 293/3/4 292/3/4 294/3/4
f 295/2/4 296/2/4 297/2/4
f 297/2/4 296/2/4 298/2/4
f 298/2/4 296/2/4 300/2/4
f 299/2/4 300/2/4 301/2/4
f 300/2/4 296/2/4 302/2/4
f 301/2/4 300/2/4 302/2/4
f 303/1/4 304/1/4 305/1/4
f 305/1/4 304/1/4 306/1/4
f 309/1/4 310/1/4 311/1/4
f 311/1/4 310/1/4 312/1/4
f 307/4/4 308/4/4 313/4/4
f 313/4/4 308/4/4 314/4/4
f 317/4/5 316/4/5 315/4/5
f 318/4/5 316/4/5 317/4/5
f 319/1/5 318/1/5 317/1/5
f 320/1/5 318/1/5 319/1/5
f 321/4/5 320/4/5 319/4/5
f 322/4/5 320/4/5 321/4/5
f 325/5/5 324/5/5 323/5/5
f 326/5/5 324/5/5 325/5/5
f 327/3/5 326/3/5 325/3/5
f 328/3/5 326/3/5 327/3/5
f 333/6/5 330/6/5 329/6/5
f 334/6/5 330/6/5 333/6/5
f 335/6/5 332/6/5 331/6/5
f 336/6/5 332/6/5 335/6/5
f 341/6/5 338/6/5 337/6/5
f 342/6/5 338/6/5 341/6/5
f 343/6/5 340/6/5 339/6/5
f 344/6/5 340/6/5 343/6/5
f 349/5/5 346/5/5 345/5/5
f 350/5/5 346/5/5 349/5/5
f 353/5/5 348/5/5 347/5/5
f 354/5/5 348/5/5 353/5/5
f 355/3/5 351/3/5 350/3/5
f 355/3/5 350/3/5 349/3/5
f 356/3/5 351/3/5 355/3/5
f 357/3/5 354/3/5 353/3/5
f 357/3/5 353/3/5 352/3/5
f 358/3/5 354/3/5 357/3/5
f 359/2/5 356/2/5 355/2/5
f 359/2/5 357/2/5 356/2/5
f 359/2/5 358/2/5 357/2/5
f 360/2/5 358/2/5 359/2/5
f 361/2/5 358/2/5 360/2/5
f 362/2/5 358/2/5 361/2/5
f 363/1/5 361/1/5 360/1/5
f 364/1/5 361/1/5 363/1/5
f 369/6/5 366/6/5 365/6/5
f 370/6/5 366/6/5 369/6/5
f 371/6/5 368/6/5 367/6/5
f 372/6/5 368/6/5 371/6/5
f 377/3/5 374/3/5 373/3/5
f 378/3/5 374/3/5 377/3/5
f 379/3/5 376/3/5 375/3/5
f 380/3/5 376/3/5 379/3/5
f 381/6/6 382/6/6 385/6/6
f 385/6/6 382/6/6 386/6/6
f 383/6/6 384/6/6 387/6/6
f 387/6/6 384/6/6 388/6/6
f 389/6/6 390/6/6 393/6/6
f 393/6/6 390/6/6 394/6/6
f 391/6/6 392/6/6 395/6/6
f 395/6/6 392/6/6 396/6/6
f 397/5/6 398/5/6 401/5/6
f 401/5/6 398/5/6 402/5/6
f 399/5/6 400/5/6 405/5/6
f 405/5/6 400/5/6 406/5/6
f 402/3/6 403/3/6 408/3/6
f 401/3/6 402/3/6 408/3/6
f 408/3/6 403/3/6 409/3/6
f 405/3/6 406/3/6 410/3/6
f 404/3/6 405/3/6 410/3/6
f 410/3/6 406/3/6 411/3/6
f 410/4/6 411/4/6 413/4/6
f 411/4/6 412/4/6 413/4/6
f 409/4/6 410/4/6 413/4/6
f 408/4/6 409/4/6 413/4/6
f 407/4/6 408/4/6 413/4/6
f 413/4/6 412/4/6 414/4/6
f 413/1/6 414/1/6 415/1/6
f 415/1/6 414/1/6 416/1/6
f 415/4/6 416/4/6 417/4/6
f 417/4/6 416/4/6 418/4/6
f 419/1/6 420/1/6 421/1/6
f 421/1/6 420/1/6 422/1/6
f 423/1/6 424/1/6 425/1/6
f 425/1/6 424/1/6 426/1/6
f 427/6/6 428/6/6 431/6/6
f 431/6/6 428/6/6 432/6/6
f 429/6/6 430/6/6 433/6/6
f 433/6/6 430/6/6 434/6/6
f 435/3/6 436/3/6 439/3/6
f 439/3/6 436/3/6 440/3/6
f 437/3/6 438/3/6 441/3/6
f 441/3/6 438/3/6 442/3/6
f 443/5/6 444/5/6 445/5/6
f 445/5/6 444/5/6 446/5/6
f 446/5/6 444/5/6 447/5/6
f 447/5/6 444/5/6 448/5/6
f 448/5/6 444/5/6 449/5/6
f 449/5/6 444/5/6 450/5/6
f 445/3/6 446/3/6 451/3/6
f 446/1/6 447/1/6 452/1/6
f 451/3/6 446/3/6 452/3/6
f 447/3/6 448/3/6 453/3/6
f 452/1/6 447/1/6 453/1/6
f 448/1/6 449/1/6 454/1/6
f 453/3/6 448/3/6 454/3/6
f 449/3/6 450/3/6 455/3/6
f 454/1/6 449/1/6 455/1/6
f 455/3/6 450/3/6 456/3/6
f 451/2/6 452/2/6 457/2/6
f 452/2/6 453/2/6 457/2/6
f 455/2/6 456/2/6 457/2/6
f 454/2/6 455/2/6 457/2/6
f 453/2/6 454/2/6 457/2/6
f 457/2/6 456/2/6 458/2/6
f 457/6/6 458/6/6 459/6/6
f 459/6/6 458/6/6 460/6/6
f 459/2/6 460/2/6 461/2/6
f 461/2/6 460/2/6 462/2/6
