# MagicaVoxel @ Ephtracy

# group
o 

# material
mtllib CrossyRoadTruck.mtl
usemtl palette

# normals
vn -1 0 0
vn 1 0 0
vn 0 0 1
vn 0 0 -1
vn 0 -1 0
vn 0 1 0

# texcoords
vt 0.00195313 0.5
vt 0.845703 0.5
vt 0.857422 0.5
vt 0.962891 0.5
vt 0.982422 0.5
vt 0.994141 0.5

# verts
v 0 0.8 -0.1
v 0 0.8 -0.2
v 0 0.8 -0.7
v 0 0.8 -2.6
v 0 0.9 -0.7
v 0 0.9 -2.6
v 0 1 -0.1
v 0 1 -0.2
v 0 1.4 -0.7
v 0 1.4 -2.6
v 0 1.5 -0.7
v 0 1.5 -2.6
v 0.1 0.5 -0.2
v 0.1 0.5 -0.5
v 0.1 0.5 -0.9
v 0.1 0.5 -1.2
v 0.1 0.5 -2.1
v 0.1 0.5 -2.4
v 0.1 0.6 0
v 0.1 0.6 -0.2
v 0.1 0.6 -0.3
v 0.1 0.6 -0.4
v 0.1 0.6 -0.5
v 0.1 0.6 -0.6
v 0.1 0.6 -0.7
v 0.1 0.6 -0.9
v 0.1 0.6 -1
v 0.1 0.6 -1.1
v 0.1 0.6 -1.2
v 0.1 0.6 -2.1
v 0.1 0.6 -2.2
v 0.1 0.6 -2.3
v 0.1 0.6 -2.4
v 0.1 0.6 -2.5
v 0.1 0.7 0
v 0.1 0.7 -0.2
v 0.1 0.7 -0.3
v 0.1 0.7 -0.4
v 0.1 0.7 -0.5
v 0.1 0.7 -0.6
v 0.1 0.7 -0.7
v 0.1 0.7 -0.9
v 0.1 0.7 -1
v 0.1 0.7 -1.1
v 0.1 0.7 -1.2
v 0.1 0.7 -2.1
v 0.1 0.7 -2.2
v 0.1 0.7 -2.3
v 0.1 0.7 -2.4
v 0.1 0.7 -2.5
v 0.1 0.8 0
v 0.1 0.8 -0.1
v 0.1 0.8 -0.2
v 0.1 0.8 -0.5
v 0.1 0.8 -0.6
v 0.1 0.8 -0.7
v 0.1 0.8 -0.9
v 0.1 0.8 -1.2
v 0.1 0.8 -2.1
v 0.1 0.8 -2.4
v 0.1 0.8 -2.5
v 0.1 1 0
v 0.1 1 -0.1
v 0.1 1 -0.2
v 0.1 1 -0.3
v 0.1 1.2 0
v 0.1 1.2 -0.3
v 0.1 1.3 0
v 0.1 1.3 -0.6
v 0.2 0.6 -0.6
v 0.2 0.6 -0.7
v 0.2 0.7 -0.6
v 0.2 0.7 -0.7
v 0.2 1.3 -0.3
v 0.2 1.3 -0.6
v 0.2 1.4 -0.3
v 0.2 1.4 -0.4
v 0.2 1.5 -0.4
v 0.2 1.5 -0.6
v 0.3 0.7 -0.6
v 0.3 0.7 -0.7
v 0.3 0.8 -0.6
v 0.3 0.8 -0.7
v 0.7 0.5 -0.2
v 0.7 0.5 -0.5
v 0.7 0.5 -0.9
v 0.7 0.5 -1.2
v 0.7 0.5 -2.1
v 0.7 0.5 -2.4
v 0.7 0.6 -0.2
v 0.7 0.6 -0.5
v 0.7 0.6 -0.9
v 0.7 0.6 -1.2
v 0.7 0.6 -2.1
v 0.7 0.6 -2.4
v 0.2 0.5 -0.2
v 0.2 0.5 -0.5
v 0.2 0.5 -0.9
v 0.2 0.5 -1.2
v 0.2 0.5 -2.1
v 0.2 0.5 -2.4
v 0.2 0.6 -0.2
v 0.2 0.6 -0.5
v 0.2 0.6 -0.9
v 0.2 0.6 -1.2
v 0.2 0.6 -2.1
v 0.2 0.6 -2.4
v 0.6 0.7 -0.6
v 0.6 0.7 -0.7
v 0.6 0.8 -0.6
v 0.6 0.8 -0.7
v 0.7 0.6 -0.6
v 0.7 0.6 -0.7
v 0.7 0.7 -0.6
v 0.7 0.7 -0.7
v 0.7 1.3 -0.3
v 0.7 1.3 -0.6
v 0.7 1.4 -0.3
v 0.7 1.4 -0.4
v 0.7 1.5 -0.4
v 0.7 1.5 -0.6
v 0.8 0.5 -0.2
v 0.8 0.5 -0.5
v 0.8 0.5 -0.9
v 0.8 0.5 -1.2
v 0.8 0.5 -2.1
v 0.8 0.5 -2.4
v 0.8 0.6 0
v 0.8 0.6 -0.2
v 0.8 0.6 -0.3
v 0.8 0.6 -0.4
v 0.8 0.6 -0.5
v 0.8 0.6 -0.6
v 0.8 0.6 -0.7
v 0.8 0.6 -0.9
v 0.8 0.6 -1
v 0.8 0.6 -1.1
v 0.8 0.6 -1.2
v 0.8 0.6 -2.1
v 0.8 0.6 -2.2
v 0.8 0.6 -2.3
v 0.8 0.6 -2.4
v 0.8 0.6 -2.5
v 0.8 0.7 0
v 0.8 0.7 -0.2
v 0.8 0.7 -0.3
v 0.8 0.7 -0.4
v 0.8 0.7 -0.5
v 0.8 0.7 -0.6
v 0.8 0.7 -0.7
v 0.8 0.7 -0.9
v 0.8 0.7 -1
v 0.8 0.7 -1.1
v 0.8 0.7 -1.2
v 0.8 0.7 -2.1
v 0.8 0.7 -2.2
v 0.8 0.7 -2.3
v 0.8 0.7 -2.4
v 0.8 0.7 -2.5
v 0.8 0.8 0
v 0.8 0.8 -0.1
v 0.8 0.8 -0.2
v 0.8 0.8 -0.5
v 0.8 0.8 -0.6
v 0.8 0.8 -0.7
v 0.8 0.8 -0.9
v 0.8 0.8 -1.2
v 0.8 0.8 -2.1
v 0.8 0.8 -2.4
v 0.8 0.8 -2.5
v 0.8 1 0
v 0.8 1 -0.1
v 0.8 1 -0.2
v 0.8 1 -0.3
v 0.8 1.2 0
v 0.8 1.2 -0.3
v 0.8 1.3 0
v 0.8 1.3 -0.6
v 0.9 0.8 -0.1
v 0.9 0.8 -0.2
v 0.9 0.8 -0.7
v 0.9 0.8 -2.6
v 0.9 0.9 -0.7
v 0.9 0.9 -2.6
v 0.9 1 -0.1
v 0.9 1 -0.2
v 0.9 1.4 -0.7
v 0.9 1.4 -2.6
v 0.9 1.5 -0.7
v 0.9 1.5 -2.6
v 0.1 0.6 0
v 0.1 0.7 0
v 0.1 0.8 0
v 0.1 1 0
v 0.1 1.2 0
v 0.1 1.3 0
v 0.2 0.7 0
v 0.2 0.8 0
v 0.3 0.7 0
v 0.3 0.8 0
v 0.6 0.7 0
v 0.6 0.8 0
v 0.7 0.7 0
v 0.7 0.8 0
v 0.8 0.6 0
v 0.8 0.7 0
v 0.8 0.8 0
v 0.8 1 0
v 0.8 1.2 0
v 0.8 1.3 0
v 0 0.8 -0.1
v 0 1 -0.1
v 0.1 0.8 -0.1
v 0.1 1 -0.1
v 0.8 0.8 -0.1
v 0.8 1 -0.1
v 0.9 0.8 -0.1
v 0.9 1 -0.1
v 0.1 0.5 -0.2
v 0.1 0.6 -0.2
v 0.2 0.5 -0.2
v 0.2 0.6 -0.2
v 0.7 0.5 -0.2
v 0.7 0.6 -0.2
v 0.8 0.5 -0.2
v 0.8 0.6 -0.2
v 0.2 1.3 -0.3
v 0.2 1.4 -0.3
v 0.7 1.3 -0.3
v 0.7 1.4 -0.3
v 0.2 1.4 -0.4
v 0.2 1.5 -0.4
v 0.7 1.4 -0.4
v 0.7 1.5 -0.4
v 0 0.8 -0.7
v 0 0.9 -0.7
v 0 1.4 -0.7
v 0 1.5 -0.7
v 0.1 0.6 -0.7
v 0.1 0.7 -0.7
v 0.1 0.8 -0.7
v 0.2 0.6 -0.7
v 0.2 0.7 -0.7
v 0.3 0.7 -0.7
v 0.3 0.8 -0.7
v 0.6 0.7 -0.7
v 0.6 0.8 -0.7
v 0.7 0.6 -0.7
v 0.7 0.7 -0.7
v 0.8 0.6 -0.7
v 0.8 0.7 -0.7
v 0.8 0.8 -0.7
v 0.9 0.8 -0.7
v 0.9 0.9 -0.7
v 0.9 1.4 -0.7
v 0.9 1.5 -0.7
v 0.1 0.5 -0.9
v 0.1 0.6 -0.9
v 0.2 0.5 -0.9
v 0.2 0.6 -0.9
v 0.7 0.5 -0.9
v 0.7 0.6 -0.9
v 0.8 0.5 -0.9
v 0.8 0.6 -0.9
v 0.1 0.5 -2.1
v 0.1 0.6 -2.1
v 0.2 0.5 -2.1
v 0.2 0.6 -2.1
v 0.7 0.5 -2.1
v 0.7 0.6 -2.1
v 0.8 0.5 -2.1
v 0.8 0.6 -2.1
v 0 0.8 -0.2
v 0 1 -0.2
v 0.1 0.8 -0.2
v 0.1 1 -0.2
v 0.8 0.8 -0.2
v 0.8 1 -0.2
v 0.9 0.8 -0.2
v 0.9 1 -0.2
v 0.1 0.5 -0.5
v 0.1 0.6 -0.5
v 0.2 0.5 -0.5
v 0.2 0.6 -0.5
v 0.7 0.5 -0.5
v 0.7 0.6 -0.5
v 0.8 0.5 -0.5
v 0.8 0.6 -0.5
v 0.1 0.6 -0.6
v 0.1 0.7 -0.6
v 0.1 0.8 -0.6
v 0.1 1.3 -0.6
v 0.2 0.6 -0.6
v 0.2 0.7 -0.6
v 0.2 1.3 -0.6
v 0.2 1.5 -0.6
v 0.3 0.7 -0.6
v 0.3 0.8 -0.6
v 0.6 0.7 -0.6
v 0.6 0.8 -0.6
v 0.7 0.6 -0.6
v 0.7 0.7 -0.6
v 0.7 1.3 -0.6
v 0.7 1.5 -0.6
v 0.8 0.6 -0.6
v 0.8 0.7 -0.6
v 0.8 0.8 -0.6
v 0.8 1.3 -0.6
v 0.1 0.5 -1.2
v 0.1 0.6 -1.2
v 0.2 0.5 -1.2
v 0.2 0.6 -1.2
v 0.7 0.5 -1.2
v 0.7 0.6 -1.2
v 0.8 0.5 -1.2
v 0.8 0.6 -1.2
v 0.1 0.5 -2.4
v 0.1 0.6 -2.4
v 0.2 0.5 -2.4
v 0.2 0.6 -2.4
v 0.7 0.5 -2.4
v 0.7 0.6 -2.4
v 0.8 0.5 -2.4
v 0.8 0.6 -2.4
v 0.1 0.6 -2.5
v 0.1 0.7 -2.5
v 0.1 0.8 -2.5
v 0.8 0.6 -2.5
v 0.8 0.7 -2.5
v 0.8 0.8 -2.5
v 0 0.8 -2.6
v 0 0.9 -2.6
v 0 1.4 -2.6
v 0 1.5 -2.6
v 0.9 0.8 -2.6
v 0.9 0.9 -2.6
v 0.9 1.4 -2.6
v 0.9 1.5 -2.6
v 0.1 0.5 -0.2
v 0.2 0.5 -0.2
v 0.7 0.5 -0.2
v 0.8 0.5 -0.2
v 0.1 0.5 -0.5
v 0.2 0.5 -0.5
v 0.7 0.5 -0.5
v 0.8 0.5 -0.5
v 0.1 0.5 -0.9
v 0.2 0.5 -0.9
v 0.7 0.5 -0.9
v 0.8 0.5 -0.9
v 0.1 0.5 -1.2
v 0.2 0.5 -1.2
v 0.7 0.5 -1.2
v 0.8 0.5 -1.2
v 0.1 0.5 -2.1
v 0.2 0.5 -2.1
v 0.7 0.5 -2.1
v 0.8 0.5 -2.1
v 0.1 0.5 -2.4
v 0.2 0.5 -2.4
v 0.7 0.5 -2.4
v 0.8 0.5 -2.4
v 0.1 0.6 0
v 0.8 0.6 0
v 0.1 0.6 -0.2
v 0.2 0.6 -0.2
v 0.7 0.6 -0.2
v 0.8 0.6 -0.2
v 0.1 0.6 -0.5
v 0.2 0.6 -0.5
v 0.7 0.6 -0.5
v 0.8 0.6 -0.5
v 0.1 0.6 -0.6
v 0.2 0.6 -0.6
v 0.7 0.6 -0.6
v 0.8 0.6 -0.6
v 0.1 0.6 -0.7
v 0.2 0.6 -0.7
v 0.7 0.6 -0.7
v 0.8 0.6 -0.7
v 0.1 0.6 -0.9
v 0.2 0.6 -0.9
v 0.7 0.6 -0.9
v 0.8 0.6 -0.9
v 0.1 0.6 -1.2
v 0.2 0.6 -1.2
v 0.7 0.6 -1.2
v 0.8 0.6 -1.2
v 0.1 0.6 -2.1
v 0.2 0.6 -2.1
v 0.7 0.6 -2.1
v 0.8 0.6 -2.1
v 0.1 0.6 -2.4
v 0.2 0.6 -2.4
v 0.7 0.6 -2.4
v 0.8 0.6 -2.4
v 0.1 0.6 -2.5
v 0.8 0.6 -2.5
v 0 0.8 -0.1
v 0.1 0.8 -0.1
v 0.8 0.8 -0.1
v 0.9 0.8 -0.1
v 0 0.8 -0.2
v 0.1 0.8 -0.2
v 0.8 0.8 -0.2
v 0.9 0.8 -0.2
v 0 0.8 -0.7
v 0.1 0.8 -0.7
v 0.8 0.8 -0.7
v 0.9 0.8 -0.7
v 0.1 0.8 -0.9
v 0.8 0.8 -0.9
v 0.1 0.8 -1.2
v 0.8 0.8 -1.2
v 0.1 0.8 -2.1
v 0.8 0.8 -2.1
v 0.1 0.8 -2.4
v 0.8 0.8 -2.4
v 0.1 0.8 -2.5
v 0.8 0.8 -2.5
v 0 0.8 -2.6
v 0.9 0.8 -2.6
v 0.2 0.7 -0.6
v 0.3 0.7 -0.6
v 0.6 0.7 -0.6
v 0.7 0.7 -0.6
v 0.2 0.7 -0.7
v 0.3 0.7 -0.7
v 0.6 0.7 -0.7
v 0.7 0.7 -0.7
v 0.3 0.8 -0.6
v 0.6 0.8 -0.6
v 0.3 0.8 -0.7
v 0.6 0.8 -0.7
v 0 1 -0.1
v 0.1 1 -0.1
v 0.8 1 -0.1
v 0.9 1 -0.1
v 0 1 -0.2
v 0.1 1 -0.2
v 0.8 1 -0.2
v 0.9 1 -0.2
v 0.1 1.3 0
v 0.8 1.3 0
v 0.2 1.3 -0.3
v 0.7 1.3 -0.3
v 0.1 1.3 -0.6
v 0.2 1.3 -0.6
v 0.7 1.3 -0.6
v 0.8 1.3 -0.6
v 0.2 1.4 -0.3
v 0.7 1.4 -0.3
v 0.2 1.4 -0.4
v 0.7 1.4 -0.4
v 0.2 1.5 -0.4
v 0.7 1.5 -0.4
v 0.2 1.5 -0.6
v 0.7 1.5 -0.6
v 0 1.5 -0.7
v 0.9 1.5 -0.7
v 0 1.5 -2.6
v 0.9 1.5 -2.6

# faces
f 5/4/1 4/4/1 3/4/1
f 6/4/1 4/4/1 5/4/1
f 7/3/1 2/3/1 1/3/1
f 8/3/1 2/3/1 7/3/1
f 9/1/1 6/1/1 5/1/1
f 10/1/1 6/1/1 9/1/1
f 11/4/1 10/4/1 9/4/1
f 12/4/1 10/4/1 11/4/1
f 20/6/1 14/6/1 13/6/1
f 21/6/1 14/6/1 20/6/1
f 22/6/1 14/6/1 21/6/1
f 23/6/1 14/6/1 22/6/1
f 26/6/1 16/6/1 15/6/1
f 27/6/1 16/6/1 26/6/1
f 28/6/1 16/6/1 27/6/1
f 29/6/1 16/6/1 28/6/1
f 30/6/1 18/6/1 17/6/1
f 31/6/1 18/6/1 30/6/1
f 32/6/1 18/6/1 31/6/1
f 33/6/1 18/6/1 32/6/1
f 35/5/1 20/5/1 19/5/1
f 36/6/1 21/6/1 20/6/1
f 36/5/1 20/5/1 35/5/1
f 37/4/1 22/4/1 21/4/1
f 37/6/1 21/6/1 36/6/1
f 38/6/1 23/6/1 22/6/1
f 38/4/1 22/4/1 37/4/1
f 39/5/1 24/5/1 23/5/1
f 39/6/1 23/6/1 38/6/1
f 40/5/1 24/5/1 39/5/1
f 41/5/1 26/5/1 25/5/1
f 42/6/1 27/6/1 26/6/1
f 42/5/1 26/5/1 41/5/1
f 43/4/1 28/4/1 27/4/1
f 43/6/1 27/6/1 42/6/1
f 44/6/1 29/6/1 28/6/1
f 44/4/1 28/4/1 43/4/1
f 45/5/1 30/5/1 29/5/1
f 45/6/1 29/6/1 44/6/1
f 46/6/1 31/6/1 30/6/1
f 46/5/1 30/5/1 45/5/1
f 47/4/1 32/4/1 31/4/1
f 47/6/1 31/6/1 46/6/1
f 48/6/1 33/6/1 32/6/1
f 48/4/1 32/4/1 47/4/1
f 49/5/1 34/5/1 33/5/1
f 49/6/1 33/6/1 48/6/1
f 50/5/1 34/5/1 49/5/1
f 51/3/1 36/3/1 35/3/1
f 52/3/1 36/3/1 51/3/1
f 53/6/1 38/6/1 37/6/1
f 53/3/1 36/3/1 52/3/1
f 53/6/1 37/6/1 36/6/1
f 53/6/1 39/6/1 38/6/1
f 54/3/1 40/3/1 39/3/1
f 54/6/1 39/6/1 53/6/1
f 55/3/1 40/3/1 54/3/1
f 56/3/1 42/3/1 41/3/1
f 57/6/1 43/6/1 42/6/1
f 57/3/1 42/3/1 56/3/1
f 57/6/1 44/6/1 43/6/1
f 57/6/1 45/6/1 44/6/1
f 58/3/1 46/3/1 45/3/1
f 58/6/1 45/6/1 57/6/1
f 59/6/1 48/6/1 47/6/1
f 59/3/1 46/3/1 58/3/1
f 59/6/1 49/6/1 48/6/1
f 59/6/1 47/6/1 46/6/1
f 60/3/1 50/3/1 49/3/1
f 60/6/1 49/6/1 59/6/1
f 61/3/1 50/3/1 60/3/1
f 62/2/1 52/2/1 51/2/1
f 63/2/1 52/2/1 62/2/1
f 64/2/1 54/2/1 53/2/1
f 64/2/1 55/2/1 54/2/1
f 65/2/1 55/2/1 64/2/1
f 66/6/1 63/6/1 62/6/1
f 66/6/1 64/6/1 63/6/1
f 66/6/1 65/6/1 64/6/1
f 67/2/1 55/2/1 65/2/1
f 67/6/1 65/6/1 66/6/1
f 68/2/1 67/2/1 66/2/1
f 69/2/1 55/2/1 67/2/1
f 69/2/1 67/2/1 68/2/1
f 72/5/1 71/5/1 70/5/1
f 73/5/1 71/5/1 72/5/1
f 76/1/1 75/1/1 74/1/1
f 77/1/1 75/1/1 76/1/1
f 78/1/1 75/1/1 77/1/1
f 79/1/1 75/1/1 78/1/1
f 82/5/1 81/5/1 80/5/1
f 83/5/1 81/5/1 82/5/1
f 90/6/1 85/6/1 84/6/1
f 91/6/1 85/6/1 90/6/1
f 92/6/1 87/6/1 86/6/1
f 93/6/1 87/6/1 92/6/1
f 94/6/1 89/6/1 88/6/1
f 95/6/1 89/6/1 94/6/1
f 96/6/2 97/6/2 102/6/2
f 102/6/2 97/6/2 103/6/2
f 98/6/2 99/6/2 104/6/2
f 104/6/2 99/6/2 105/6/2
f 100/6/2 101/6/2 106/6/2
f 106/6/2 101/6/2 107/6/2
f 108/5/2 109/5/2 110/5/2
f 110/5/2 109/5/2 111/5/2
f 112/5/2 113/5/2 114/5/2
f 114/5/2 113/5/2 115/5/2
f 116/1/2 117/1/2 118/1/2
f 118/1/2 117/1/2 119/1/2
f 119/1/2 117/1/2 120/1/2
f 120/1/2 117/1/2 121/1/2
f 122/6/2 123/6/2 129/6/2
f 129/6/2 123/6/2 130/6/2
f 130/6/2 123/6/2 131/6/2
f 131/6/2 123/6/2 132/6/2
f 124/6/2 125/6/2 135/6/2
f 135/6/2 125/6/2 136/6/2
f 136/6/2 125/6/2 137/6/2
f 137/6/2 125/6/2 138/6/2
f 126/6/2 127/6/2 139/6/2
f 139/6/2 127/6/2 140/6/2
f 140/6/2 127/6/2 141/6/2
f 141/6/2 127/6/2 142/6/2
f 128/5/2 129/5/2 144/5/2
f 129/6/2 130/6/2 145/6/2
f 144/5/2 129/5/2 145/5/2
f 130/4/2 131/4/2 146/4/2
f 145/6/2 130/6/2 146/6/2
f 131/6/2 132/6/2 147/6/2
f 146/4/2 131/4/2 147/4/2
f 132/5/2 133/5/2 148/5/2
f 147/6/2 132/6/2 148/6/2
f 148/5/2 133/5/2 149/5/2
f 134/5/2 135/5/2 150/5/2
f 135/6/2 136/6/2 151/6/2
f 150/5/2 135/5/2 151/5/2
f 136/4/2 137/4/2 152/4/2
f 151/6/2 136/6/2 152/6/2
f 137/6/2 138/6/2 153/6/2
f 152/4/2 137/4/2 153/4/2
f 138/5/2 139/5/2 154/5/2
f 153/6/2 138/6/2 154/6/2
f 139/6/2 140/6/2 155/6/2
f 154/5/2 139/5/2 155/5/2
f 140/4/2 141/4/2 156/4/2
f 155/6/2 140/6/2 156/6/2
f 141/6/2 142/6/2 157/6/2
f 156/4/2 141/4/2 157/4/2
f 142/5/2 143/5/2 158/5/2
f 157/6/2 142/6/2 158/6/2
f 158/5/2 143/5/2 159/5/2
f 144/3/2 145/3/2 160/3/2
f 160/3/2 145/3/2 161/3/2
f 146/6/2 147/6/2 162/6/2
f 161/3/2 145/3/2 162/3/2
f 145/6/2 146/6/2 162/6/2
f 147/6/2 148/6/2 162/6/2
f 148/3/2 149/3/2 163/3/2
f 162/6/2 148/6/2 163/6/2
f 163/3/2 149/3/2 164/3/2
f 150/3/2 151/3/2 165/3/2
f 151/6/2 152/6/2 166/6/2
f 165/3/2 151/3/2 166/3/2
f 152/6/2 153/6/2 166/6/2
f 153/6/2 154/6/2 166/6/2
f 154/3/2 155/3/2 167/3/2
f 166/6/2 154/6/2 167/6/2
f 156/6/2 157/6/2 168/6/2
f 167/3/2 155/3/2 168/3/2
f 157/6/2 158/6/2 168/6/2
f 155/6/2 156/6/2 168/6/2
f 158/3/2 159/3/2 169/3/2
f 168/6/2 158/6/2 169/6/2
f 169/3/2 159/3/2 170/3/2
f 160/2/2 161/2/2 171/2/2
f 171/2/2 161/2/2 172/2/2
f 162/2/2 163/2/2 173/2/2
f 163/2/2 164/2/2 173/2/2
f 173/2/2 164/2/2 174/2/2
f 171/6/2 172/6/2 175/6/2
f 172/6/2 173/6/2 175/6/2
f 173/6/2 174/6/2 175/6/2
f 174/2/2 164/2/2 176/2/2
f 175/6/2 174/6/2 176/6/2
f 175/2/2 176/2/2 177/2/2
f 176/2/2 164/2/2 178/2/2
f 177/2/2 176/2/2 178/2/2
f 181/4/2 182/4/2 183/4/2
f 183/4/2 182/4/2 184/4/2
f 179/3/2 180/3/2 185/3/2
f 185/3/2 180/3/2 186/3/2
f 183/1/2 184/1/2 187/1/2
f 187/1/2 184/1/2 188/1/2
f 187/4/2 188/4/2 189/4/2
f 189/4/2 188/4/2 190/4/2
f 197/5/3 192/5/3 191/5/3
f 197/3/3 193/3/3 192/3/3
f 198/2/3 194/2/3 193/2/3
f 198/3/3 193/3/3 197/3/3
f 199/5/3 197/5/3 191/5/3
f 199/1/3 198/1/3 197/1/3
f 200/2/3 194/2/3 198/2/3
f 200/1/3 198/1/3 199/1/3
f 201/5/3 199/5/3 191/5/3
f 201/3/3 200/3/3 199/3/3
f 202/2/3 194/2/3 200/2/3
f 202/3/3 200/3/3 201/3/3
f 203/5/3 201/5/3 191/5/3
f 203/1/3 202/1/3 201/1/3
f 204/2/3 194/2/3 202/2/3
f 204/1/3 202/1/3 203/1/3
f 205/5/3 203/5/3 191/5/3
f 206/3/3 204/3/3 203/3/3
f 206/5/3 203/5/3 205/5/3
f 207/2/3 194/2/3 204/2/3
f 207/3/3 204/3/3 206/3/3
f 208/6/3 195/6/3 194/6/3
f 208/2/3 194/2/3 207/2/3
f 209/2/3 196/2/3 195/2/3
f 209/6/3 195/6/3 208/6/3
f 210/2/3 196/2/3 209/2/3
f 213/3/3 212/3/3 211/3/3
f 214/3/3 212/3/3 213/3/3
f 217/3/3 216/3/3 215/3/3
f 218/3/3 216/3/3 217/3/3
f 221/6/3 220/6/3 219/6/3
f 222/6/3 220/6/3 221/6/3
f 225/6/3 224/6/3 223/6/3
f 226/6/3 224/6/3 225/6/3
f 229/1/3 228/1/3 227/1/3
f 230/1/3 228/1/3 229/1/3
f 233/1/3 232/1/3 231/1/3
f 234/1/3 232/1/3 233/1/3
f 241/4/3 236/4/3 235/4/3
f 242/5/3 240/5/3 239/5/3
f 243/3/3 241/3/3 240/3/3
f 243/5/3 240/5/3 242/5/3
f 244/3/3 241/3/3 243/3/3
f 245/4/3 236/4/3 241/4/3
f 245/3/3 241/3/3 244/3/3
f 247/4/3 236/4/3 245/4/3
f 249/3/3 247/3/3 246/3/3
f 250/5/3 249/5/3 248/5/3
f 251/3/3 247/3/3 249/3/3
f 251/5/3 249/5/3 250/5/3
f 252/4/3 236/4/3 247/4/3
f 252/3/3 247/3/3 251/3/3
f 253/4/3 236/4/3 252/4/3
f 254/1/3 237/1/3 236/1/3
f 254/4/3 236/4/3 253/4/3
f 255/4/3 238/4/3 237/4/3
f 255/1/3 237/1/3 254/1/3
f 256/4/3 238/4/3 255/4/3
f 259/6/3 258/6/3 257/6/3
f 260/6/3 258/6/3 259/6/3
f 263/6/3 262/6/3 261/6/3
f 264/6/3 262/6/3 263/6/3
f 267/6/3 266/6/3 265/6/3
f 268/6/3 266/6/3 267/6/3
f 271/6/3 270/6/3 269/6/3
f 272/6/3 270/6/3 271/6/3
f 273/3/4 274/3/4 275/3/4
f 275/3/4 274/3/4 276/3/4
f 277/3/4 278/3/4 279/3/4
f 279/3/4 278/3/4 280/3/4
f 281/6/4 282/6/4 283/6/4
f 283/6/4 282/6/4 284/6/4
f 285/6/4 286/6/4 287/6/4
f 287/6/4 286/6/4 288/6/4
f 289/5/4 290/5/4 293/5/4
f 290/3/4 291/3/4 294/3/4
f 293/5/4 290/5/4 294/5/4
f 291/2/4 292/2/4 295/2/4
f 294/3/4 291/3/4 297/3/4
f 291/2/4 295/2/4 298/2/4
f 297/3/4 291/3/4 298/3/4
f 298/2/4 295/2/4 300/2/4
f 299/3/4 300/3/4 302/3/4
f 295/1/4 296/1/4 303/1/4
f 300/2/4 295/2/4 303/2/4
f 303/1/4 296/1/4 304/1/4
f 301/5/4 302/5/4 305/5/4
f 302/3/4 300/3/4 306/3/4
f 305/5/4 302/5/4 306/5/4
f 300/2/4 303/2/4 307/2/4
f 306/3/4 300/3/4 307/3/4
f 307/2/4 303/2/4 308/2/4
f 309/6/4 310/6/4 311/6/4
f 311/6/4 310/6/4 312/6/4
f 313/6/4 314/6/4 315/6/4
f 315/6/4 314/6/4 316/6/4
f 317/6/4 318/6/4 319/6/4
f 319/6/4 318/6/4 320/6/4
f 321/6/4 322/6/4 323/6/4
f 323/6/4 322/6/4 324/6/4
f 325/5/4 326/5/4 328/5/4
f 326/3/4 327/3/4 329/3/4
f 328/5/4 326/5/4 329/5/4
f 329/3/4 327/3/4 330/3/4
f 331/4/4 332/4/4 335/4/4
f 332/1/4 333/1/4 336/1/4
f 335/4/4 332/4/4 336/4/4
f 333/4/4 334/4/4 337/4/4
f 336/1/4 333/1/4 337/1/4
f 337/4/4 334/4/4 338/4/4
f 343/6/5 340/6/5 339/6/5
f 344/6/5 340/6/5 343/6/5
f 345/6/5 342/6/5 341/6/5
f 346/6/5 342/6/5 345/6/5
f 351/6/5 348/6/5 347/6/5
f 352/6/5 348/6/5 351/6/5
f 353/6/5 350/6/5 349/6/5
f 354/6/5 350/6/5 353/6/5
f 359/6/5 356/6/5 355/6/5
f 360/6/5 356/6/5 359/6/5
f 361/6/5 358/6/5 357/6/5
f 362/6/5 358/6/5 361/6/5
f 365/5/5 364/5/5 363/5/5
f 366/5/5 364/5/5 365/5/5
f 367/5/5 364/5/5 366/5/5
f 368/5/5 364/5/5 367/5/5
f 370/5/5 367/5/5 366/5/5
f 371/5/5 367/5/5 370/5/5
f 373/5/5 370/5/5 369/5/5
f 373/5/5 372/5/5 371/5/5
f 373/5/5 371/5/5 370/5/5
f 374/5/5 372/5/5 373/5/5
f 375/5/5 372/5/5 374/5/5
f 376/5/5 372/5/5 375/5/5
f 378/5/5 375/5/5 374/5/5
f 379/5/5 375/5/5 378/5/5
f 381/5/5 378/5/5 377/5/5
f 381/5/5 380/5/5 379/5/5
f 381/5/5 379/5/5 378/5/5
f 382/5/5 380/5/5 381/5/5
f 383/5/5 380/5/5 382/5/5
f 384/5/5 380/5/5 383/5/5
f 386/5/5 383/5/5 382/5/5
f 387/5/5 383/5/5 386/5/5
f 389/5/5 386/5/5 385/5/5
f 389/5/5 388/5/5 387/5/5
f 389/5/5 387/5/5 386/5/5
f 390/5/5 388/5/5 389/5/5
f 391/5/5 388/5/5 390/5/5
f 392/5/5 388/5/5 391/5/5
f 394/5/5 391/5/5 390/5/5
f 395/5/5 391/5/5 394/5/5
f 397/5/5 394/5/5 393/5/5
f 397/5/5 396/5/5 395/5/5
f 397/5/5 395/5/5 394/5/5
f 398/5/5 396/5/5 397/5/5
f 403/3/5 400/3/5 399/3/5
f 404/3/5 400/3/5 403/3/5
f 405/3/5 402/3/5 401/3/5
f 406/3/5 402/3/5 405/3/5
f 411/4/5 408/4/5 407/4/5
f 412/4/5 410/4/5 409/4/5
f 413/4/5 411/4/5 407/4/5
f 414/4/5 410/4/5 412/4/5
f 415/4/5 413/4/5 407/4/5
f 416/4/5 410/4/5 414/4/5
f 417/4/5 415/4/5 407/4/5
f 418/4/5 410/4/5 416/4/5
f 419/4/5 417/4/5 407/4/5
f 420/4/5 410/4/5 418/4/5
f 421/4/5 419/4/5 407/4/5
f 421/4/5 420/4/5 419/4/5
f 422/4/5 410/4/5 420/4/5
f 422/4/5 420/4/5 421/4/5
f 423/5/6 424/5/6 427/5/6
f 427/5/6 424/5/6 428/5/6
f 425/5/6 426/5/6 429/5/6
f 429/5/6 426/5/6 430/5/6
f 431/5/6 432/5/6 433/5/6
f 433/5/6 432/5/6 434/5/6
f 435/3/6 436/3/6 439/3/6
f 439/3/6 436/3/6 440/3/6
f 437/3/6 438/3/6 441/3/6
f 441/3/6 438/3/6 442/3/6
f 443/2/6 444/2/6 445/2/6
f 445/2/6 444/2/6 446/2/6
f 443/2/6 445/2/6 447/2/6
f 447/2/6 445/2/6 448/2/6
f 446/2/6 444/2/6 449/2/6
f 449/2/6 444/2/6 450/2/6
f 451/1/6 452/1/6 453/1/6
f 453/1/6 452/1/6 454/1/6
f 455/1/6 456/1/6 457/1/6
f 457/1/6 456/1/6 458/1/6
f 459/4/6 460/4/6 461/4/6
f 461/4/6 460/4/6 462/4/6
