# MagicaVoxel @ Ephtracy

# group
o 

# material
mtllib CrossyRoadPoliceCar.mtl
usemtl palette

# normals
vn -1 0 0
vn 1 0 0
vn 0 0 1
vn 0 0 -1
vn 0 -1 0
vn 0 1 0

# texcoords
vt 0.751953 0.5
vt 0.779297 0.5
vt 0.810547 0.5
vt 0.845703 0.5
vt 0.958984 0.5
vt 0.978516 0.5
vt 0.994141 0.5

# verts
v 0 0.8 -0.5
v 0 0.8 -0.7
v 0 0.9 -0.5
v 0 0.9 -0.7
v 0.1 0.4 -0.2
v 0.1 0.4 -0.5
v 0.1 0.4 -1.1
v 0.1 0.4 -1.4
v 0.1 0.5 0
v 0.1 0.5 -0.2
v 0.1 0.5 -0.3
v 0.1 0.5 -0.4
v 0.1 0.5 -0.5
v 0.1 0.5 -1.1
v 0.1 0.5 -1.2
v 0.1 0.5 -1.3
v 0.1 0.5 -1.4
v 0.1 0.5 -1.5
v 0.1 0.6 0
v 0.1 0.6 -0.2
v 0.1 0.6 -0.3
v 0.1 0.6 -0.4
v 0.1 0.6 -0.5
v 0.1 0.6 -1.1
v 0.1 0.6 -1.2
v 0.1 0.6 -1.3
v 0.1 0.6 -1.4
v 0.1 0.6 -1.5
v 0.1 0.7 0
v 0.1 0.7 -0.2
v 0.1 0.7 -0.5
v 0.1 0.7 -0.8
v 0.1 0.7 -1.1
v 0.1 0.7 -1.3
v 0.1 0.7 -1.4
v 0.1 0.7 -1.5
v 0.1 0.8 -0.5
v 0.1 0.8 -0.7
v 0.1 0.8 -0.8
v 0.1 0.8 -1.3
v 0.1 0.9 0
v 0.1 0.9 -0.5
v 0.1 0.9 -0.7
v 0.1 0.9 -1.5
v 0.2 0.9 -0.5
v 0.2 0.9 -0.6
v 0.2 0.9 -1
v 0.2 0.9 -1.1
v 0.2 0.9 -1.2
v 0.2 0.9 -1.3
v 0.2 1.1 -0.6
v 0.2 1.1 -1
v 0.2 1.1 -1.1
v 0.2 1.1 -1.2
v 0.2 1.2 -0.5
v 0.2 1.2 -1.3
v 0.3 1.2 -0.8
v 0.3 1.2 -0.9
v 0.3 1.2 -1
v 0.3 1.3 -0.8
v 0.3 1.3 -0.9
v 0.3 1.3 -1
v 0.6 0.5 0
v 0.6 0.5 -0.1
v 0.6 0.6 0
v 0.6 0.6 -0.1
v 0.7 0.4 -0.2
v 0.7 0.4 -0.5
v 0.7 0.4 -1.1
v 0.7 0.4 -1.4
v 0.7 0.5 -0.2
v 0.7 0.5 -0.5
v 0.7 0.5 -1.1
v 0.7 0.5 -1.4
v 0.2 0.4 -0.2
v 0.2 0.4 -0.5
v 0.2 0.4 -1.1
v 0.2 0.4 -1.4
v 0.2 0.5 -0.2
v 0.2 0.5 -0.5
v 0.2 0.5 -1.1
v 0.2 0.5 -1.4
v 0.3 0.5 0
v 0.3 0.5 -0.1
v 0.3 0.6 0
v 0.3 0.6 -0.1
v 0.6 1.2 -0.8
v 0.6 1.2 -0.9
v 0.6 1.2 -1
v 0.6 1.3 -0.8
v 0.6 1.3 -0.9
v 0.6 1.3 -1
v 0.7 0.9 -0.5
v 0.7 0.9 -0.6
v 0.7 0.9 -1
v 0.7 0.9 -1.1
v 0.7 0.9 -1.2
v 0.7 0.9 -1.3
v 0.7 1.1 -0.6
v 0.7 1.1 -1
v 0.7 1.1 -1.1
v 0.7 1.1 -1.2
v 0.7 1.2 -0.5
v 0.7 1.2 -1.3
v 0.8 0.4 -0.2
v 0.8 0.4 -0.5
v 0.8 0.4 -1.1
v 0.8 0.4 -1.4
v 0.8 0.5 0
v 0.8 0.5 -0.2
v 0.8 0.5 -0.3
v 0.8 0.5 -0.4
v 0.8 0.5 -0.5
v 0.8 0.5 -1.1
v 0.8 0.5 -1.2
v 0.8 0.5 -1.3
v 0.8 0.5 -1.4
v 0.8 0.5 -1.5
v 0.8 0.6 0
v 0.8 0.6 -0.2
v 0.8 0.6 -0.3
v 0.8 0.6 -0.4
v 0.8 0.6 -0.5
v 0.8 0.6 -1.1
v 0.8 0.6 -1.2
v 0.8 0.6 -1.3
v 0.8 0.6 -1.4
v 0.8 0.6 -1.5
v 0.8 0.7 0
v 0.8 0.7 -0.2
v 0.8 0.7 -0.5
v 0.8 0.7 -0.8
v 0.8 0.7 -1.1
v 0.8 0.7 -1.3
v 0.8 0.7 -1.4
v 0.8 0.7 -1.5
v 0.8 0.8 -0.5
v 0.8 0.8 -0.7
v 0.8 0.8 -0.8
v 0.8 0.8 -1.3
v 0.8 0.9 0
v 0.8 0.9 -0.5
v 0.8 0.9 -0.7
v 0.8 0.9 -1.5
v 0.9 0.8 -0.5
v 0.9 0.8 -0.7
v 0.9 0.9 -0.5
v 0.9 0.9 -0.7
v 0.1 0.5 0
v 0.1 0.6 0
v 0.1 0.7 0
v 0.1 0.9 0
v 0.2 0.7 0
v 0.2 0.8 0
v 0.3 0.5 0
v 0.3 0.6 0
v 0.3 0.7 0
v 0.3 0.8 0
v 0.3 0.9 0
v 0.6 0.5 0
v 0.6 0.6 0
v 0.6 0.7 0
v 0.6 0.8 0
v 0.6 0.9 0
v 0.7 0.7 0
v 0.7 0.8 0
v 0.8 0.5 0
v 0.8 0.6 0
v 0.8 0.7 0
v 0.8 0.9 0
v 0.3 0.5 -0.1
v 0.3 0.6 -0.1
v 0.6 0.5 -0.1
v 0.6 0.6 -0.1
v 0.1 0.4 -0.2
v 0.1 0.5 -0.2
v 0.2 0.4 -0.2
v 0.2 0.5 -0.2
v 0.7 0.4 -0.2
v 0.7 0.5 -0.2
v 0.8 0.4 -0.2
v 0.8 0.5 -0.2
v 0 0.8 -0.5
v 0 0.9 -0.5
v 0.1 0.8 -0.5
v 0.1 0.9 -0.5
v 0.2 0.9 -0.5
v 0.2 1.2 -0.5
v 0.3 0.9 -0.5
v 0.3 1.1 -0.5
v 0.6 0.9 -0.5
v 0.6 1.1 -0.5
v 0.7 0.9 -0.5
v 0.7 1.2 -0.5
v 0.8 0.8 -0.5
v 0.8 0.9 -0.5
v 0.9 0.8 -0.5
v 0.9 0.9 -0.5
v 0.3 1.2 -0.8
v 0.3 1.3 -0.8
v 0.4 1.2 -0.8
v 0.4 1.3 -0.8
v 0.5 1.2 -0.8
v 0.5 1.3 -0.8
v 0.6 1.2 -0.8
v 0.6 1.3 -0.8
v 0.1 0.4 -1.1
v 0.1 0.5 -1.1
v 0.2 0.4 -1.1
v 0.2 0.5 -1.1
v 0.7 0.4 -1.1
v 0.7 0.5 -1.1
v 0.8 0.4 -1.1
v 0.8 0.5 -1.1
v 0.1 0.4 -0.5
v 0.1 0.5 -0.5
v 0.2 0.4 -0.5
v 0.2 0.5 -0.5
v 0.7 0.4 -0.5
v 0.7 0.5 -0.5
v 0.8 0.4 -0.5
v 0.8 0.5 -0.5
v 0 0.8 -0.7
v 0 0.9 -0.7
v 0.1 0.8 -0.7
v 0.1 0.9 -0.7
v 0.8 0.8 -0.7
v 0.8 0.9 -0.7
v 0.9 0.8 -0.7
v 0.9 0.9 -0.7
v 0.3 1.2 -1
v 0.3 1.3 -1
v 0.6 1.2 -1
v 0.6 1.3 -1
v 0.2 0.9 -1.3
v 0.2 1.2 -1.3
v 0.3 0.9 -1.3
v 0.3 1.1 -1.3
v 0.6 0.9 -1.3
v 0.6 1.1 -1.3
v 0.7 0.9 -1.3
v 0.7 1.2 -1.3
v 0.1 0.4 -1.4
v 0.1 0.5 -1.4
v 0.2 0.4 -1.4
v 0.2 0.5 -1.4
v 0.7 0.4 -1.4
v 0.7 0.5 -1.4
v 0.8 0.4 -1.4
v 0.8 0.5 -1.4
v 0.1 0.5 -1.5
v 0.1 0.6 -1.5
v 0.1 0.7 -1.5
v 0.1 0.9 -1.5
v 0.3 0.7 -1.5
v 0.3 0.9 -1.5
v 0.6 0.7 -1.5
v 0.6 0.9 -1.5
v 0.8 0.5 -1.5
v 0.8 0.6 -1.5
v 0.8 0.7 -1.5
v 0.8 0.9 -1.5
v 0.1 0.4 -0.2
v 0.2 0.4 -0.2
v 0.7 0.4 -0.2
v 0.8 0.4 -0.2
v 0.1 0.4 -0.5
v 0.2 0.4 -0.5
v 0.7 0.4 -0.5
v 0.8 0.4 -0.5
v 0.1 0.4 -1.1
v 0.2 0.4 -1.1
v 0.7 0.4 -1.1
v 0.8 0.4 -1.1
v 0.1 0.4 -1.4
v 0.2 0.4 -1.4
v 0.7 0.4 -1.4
v 0.8 0.4 -1.4
v 0.1 0.5 0
v 0.3 0.5 0
v 0.6 0.5 0
v 0.8 0.5 0
v 0.3 0.5 -0.1
v 0.6 0.5 -0.1
v 0.1 0.5 -0.2
v 0.2 0.5 -0.2
v 0.7 0.5 -0.2
v 0.8 0.5 -0.2
v 0.1 0.5 -0.5
v 0.2 0.5 -0.5
v 0.7 0.5 -0.5
v 0.8 0.5 -0.5
v 0.1 0.5 -1.1
v 0.2 0.5 -1.1
v 0.7 0.5 -1.1
v 0.8 0.5 -1.1
v 0.1 0.5 -1.4
v 0.2 0.5 -1.4
v 0.7 0.5 -1.4
v 0.8 0.5 -1.4
v 0.1 0.5 -1.5
v 0.8 0.5 -1.5
v 0.3 0.6 0
v 0.6 0.6 0
v 0.3 0.6 -0.1
v 0.6 0.6 -0.1
v 0 0.8 -0.5
v 0.1 0.8 -0.5
v 0.8 0.8 -0.5
v 0.9 0.8 -0.5
v 0 0.8 -0.7
v 0.1 0.8 -0.7
v 0.8 0.8 -0.7
v 0.9 0.8 -0.7
v 0.1 0.9 0
v 0.3 0.9 0
v 0.6 0.9 0
v 0.8 0.9 0
v 0 0.9 -0.5
v 0.1 0.9 -0.5
v 0.2 0.9 -0.5
v 0.3 0.9 -0.5
v 0.6 0.9 -0.5
v 0.7 0.9 -0.5
v 0.8 0.9 -0.5
v 0.9 0.9 -0.5
v 0.2 0.9 -0.6
v 0.7 0.9 -0.6
v 0 0.9 -0.7
v 0.1 0.9 -0.7
v 0.8 0.9 -0.7
v 0.9 0.9 -0.7
v 0.2 0.9 -1
v 0.7 0.9 -1
v 0.2 0.9 -1.1
v 0.7 0.9 -1.1
v 0.2 0.9 -1.2
v 0.7 0.9 -1.2
v 0.2 0.9 -1.3
v 0.3 0.9 -1.3
v 0.6 0.9 -1.3
v 0.7 0.9 -1.3
v 0.1 0.9 -1.5
v 0.3 0.9 -1.5
v 0.6 0.9 -1.5
v 0.8 0.9 -1.5
v 0.2 1.2 -0.5
v 0.7 1.2 -0.5
v 0.3 1.2 -0.8
v 0.4 1.2 -0.8
v 0.5 1.2 -0.8
v 0.6 1.2 -0.8
v 0.3 1.2 -0.9
v 0.6 1.2 -0.9
v 0.3 1.2 -1
v 0.6 1.2 -1
v 0.2 1.2 -1.3
v 0.7 1.2 -1.3
v 0.3 1.3 -0.8
v 0.4 1.3 -0.8
v 0.5 1.3 -0.8
v 0.6 1.3 -0.8
v 0.3 1.3 -0.9
v 0.4 1.3 -0.9
v 0.5 1.3 -0.9
v 0.6 1.3 -0.9
v 0.3 1.3 -1
v 0.6 1.3 -1

# faces
f 3/3/1 2/3/1 1/3/1
f 4/3/1 2/3/1 3/3/1
f 10/7/1 6/7/1 5/7/1
f 11/7/1 6/7/1 10/7/1
f 12/7/1 6/7/1 11/7/1
f 13/7/1 6/7/1 12/7/1
f 14/7/1 8/7/1 7/7/1
f 15/7/1 8/7/1 14/7/1
f 16/7/1 8/7/1 15/7/1
f 17/7/1 8/7/1 16/7/1
f 19/6/1 10/6/1 9/6/1
f 20/7/1 11/7/1 10/7/1
f 20/6/1 10/6/1 19/6/1
f 21/5/1 12/5/1 11/5/1
f 21/7/1 11/7/1 20/7/1
f 22/7/1 13/7/1 12/7/1
f 22/5/1 12/5/1 21/5/1
f 23/6/1 14/6/1 13/6/1
f 23/7/1 13/7/1 22/7/1
f 24/7/1 15/7/1 14/7/1
f 24/6/1 14/6/1 23/6/1
f 25/5/1 16/5/1 15/5/1
f 25/7/1 15/7/1 24/7/1
f 26/7/1 17/7/1 16/7/1
f 26/5/1 16/5/1 25/5/1
f 27/6/1 18/6/1 17/6/1
f 27/7/1 17/7/1 26/7/1
f 28/6/1 18/6/1 27/6/1
f 29/3/1 20/3/1 19/3/1
f 30/7/1 21/7/1 20/7/1
f 30/3/1 20/3/1 29/3/1
f 30/7/1 22/7/1 21/7/1
f 30/7/1 23/7/1 22/7/1
f 31/3/1 24/3/1 23/3/1
f 31/7/1 23/7/1 30/7/1
f 32/3/1 24/3/1 31/3/1
f 33/7/1 26/7/1 25/7/1
f 33/3/1 24/3/1 32/3/1
f 33/7/1 27/7/1 26/7/1
f 33/7/1 25/7/1 24/7/1
f 34/7/1 27/7/1 33/7/1
f 35/3/1 28/3/1 27/3/1
f 35/7/1 27/7/1 34/7/1
f 36/3/1 28/3/1 35/3/1
f 37/2/1 32/2/1 31/2/1
f 37/2/1 31/2/1 30/2/1
f 37/2/1 30/2/1 29/2/1
f 38/2/1 32/2/1 37/2/1
f 39/5/1 34/5/1 33/5/1
f 39/2/1 32/2/1 38/2/1
f 39/5/1 33/5/1 32/5/1
f 40/2/1 36/2/1 35/2/1
f 40/5/1 34/5/1 39/5/1
f 40/2/1 35/2/1 34/2/1
f 41/2/1 37/2/1 29/2/1
f 42/2/1 37/2/1 41/2/1
f 43/2/1 39/2/1 38/2/1
f 43/2/1 40/2/1 39/2/1
f 44/2/1 36/2/1 40/2/1
f 44/2/1 40/2/1 43/2/1
f 51/5/1 46/5/1 45/5/1
f 51/7/1 47/7/1 46/7/1
f 52/5/1 48/5/1 47/5/1
f 52/7/1 47/7/1 51/7/1
f 53/7/1 49/7/1 48/7/1
f 53/5/1 48/5/1 52/5/1
f 54/5/1 50/5/1 49/5/1
f 54/7/1 49/7/1 53/7/1
f 55/5/1 53/5/1 52/5/1
f 55/5/1 52/5/1 51/5/1
f 55/5/1 54/5/1 53/5/1
f 55/5/1 51/5/1 45/5/1
f 56/5/1 50/5/1 54/5/1
f 56/5/1 54/5/1 55/5/1
f 60/1/1 58/1/1 57/1/1
f 61/6/1 59/6/1 58/6/1
f 61/1/1 58/1/1 60/1/1
f 62/6/1 59/6/1 61/6/1
f 65/6/1 64/6/1 63/6/1
f 66/6/1 64/6/1 65/6/1
f 71/7/1 68/7/1 67/7/1
f 72/7/1 68/7/1 71/7/1
f 73/7/1 70/7/1 69/7/1
f 74/7/1 70/7/1 73/7/1
f 75/7/2 76/7/2 79/7/2
f 79/7/2 76/7/2 80/7/2
f 77/7/2 78/7/2 81/7/2
f 81/7/2 78/7/2 82/7/2
f 83/6/2 84/6/2 85/6/2
f 85/6/2 84/6/2 86/6/2
f 87/4/2 88/4/2 90/4/2
f 88/6/2 89/6/2 91/6/2
f 90/4/2 88/4/2 91/4/2
f 91/6/2 89/6/2 92/6/2
f 93/5/2 94/5/2 99/5/2
f 94/7/2 95/7/2 99/7/2
f 95/5/2 96/5/2 100/5/2
f 99/7/2 95/7/2 100/7/2
f 96/7/2 97/7/2 101/7/2
f 100/5/2 96/5/2 101/5/2
f 97/5/2 98/5/2 102/5/2
f 101/7/2 97/7/2 102/7/2
f 100/5/2 101/5/2 103/5/2
f 99/5/2 100/5/2 103/5/2
f 101/5/2 102/5/2 103/5/2
f 93/5/2 99/5/2 103/5/2
f 102/5/2 98/5/2 104/5/2
f 103/5/2 102/5/2 104/5/2
f 105/7/2 106/7/2 110/7/2
f 110/7/2 106/7/2 111/7/2
f 111/7/2 106/7/2 112/7/2
f 112/7/2 106/7/2 113/7/2
f 107/7/2 108/7/2 114/7/2
f 114/7/2 108/7/2 115/7/2
f 115/7/2 108/7/2 116/7/2
f 116/7/2 108/7/2 117/7/2
f 109/6/2 110/6/2 119/6/2
f 110/7/2 111/7/2 120/7/2
f 119/6/2 110/6/2 120/6/2
f 111/5/2 112/5/2 121/5/2
f 120/7/2 111/7/2 121/7/2
f 112/7/2 113/7/2 122/7/2
f 121/5/2 112/5/2 122/5/2
f 113/6/2 114/6/2 123/6/2
f 122/7/2 113/7/2 123/7/2
f 114/7/2 115/7/2 124/7/2
f 123/6/2 114/6/2 124/6/2
f 115/5/2 116/5/2 125/5/2
f 124/7/2 115/7/2 125/7/2
f 116/7/2 117/7/2 126/7/2
f 125/5/2 116/5/2 126/5/2
f 117/6/2 118/6/2 127/6/2
f 126/7/2 117/7/2 127/7/2
f 127/6/2 118/6/2 128/6/2
f 119/3/2 120/3/2 129/3/2
f 120/7/2 121/7/2 130/7/2
f 129/3/2 120/3/2 130/3/2
f 121/7/2 122/7/2 130/7/2
f 122/7/2 123/7/2 130/7/2
f 123/3/2 124/3/2 131/3/2
f 130/7/2 123/7/2 131/7/2
f 131/3/2 124/3/2 132/3/2
f 125/7/2 126/7/2 133/7/2
f 132/3/2 124/3/2 133/3/2
f 126/7/2 127/7/2 133/7/2
f 124/7/2 125/7/2 133/7/2
f 133/7/2 127/7/2 134/7/2
f 127/3/2 128/3/2 135/3/2
f 134/7/2 127/7/2 135/7/2
f 135/3/2 128/3/2 136/3/2
f 131/2/2 132/2/2 137/2/2
f 130/2/2 131/2/2 137/2/2
f 129/2/2 130/2/2 137/2/2
f 137/2/2 132/2/2 138/2/2
f 133/5/2 134/5/2 139/5/2
f 138/2/2 132/2/2 139/2/2
f 132/5/2 133/5/2 139/5/2
f 135/2/2 136/2/2 140/2/2
f 139/5/2 134/5/2 140/5/2
f 134/2/2 135/2/2 140/2/2
f 129/2/2 137/2/2 141/2/2
f 141/2/2 137/2/2 142/2/2
f 138/2/2 139/2/2 143/2/2
f 139/2/2 140/2/2 143/2/2
f 140/2/2 136/2/2 144/2/2
f 143/2/2 140/2/2 144/2/2
f 145/3/2 146/3/2 147/3/2
f 147/3/2 146/3/2 148/3/2
f 153/3/3 151/3/3 150/3/3
f 153/2/3 152/2/3 151/2/3
f 154/2/3 152/2/3 153/2/3
f 155/6/3 150/6/3 149/6/3
f 156/3/3 153/3/3 150/3/3
f 156/6/3 150/6/3 155/6/3
f 157/5/3 154/5/3 153/5/3
f 157/3/3 153/3/3 156/3/3
f 158/2/3 152/2/3 154/2/3
f 158/5/3 154/5/3 157/5/3
f 159/2/3 152/2/3 158/2/3
f 161/3/3 157/3/3 156/3/3
f 161/3/3 159/3/3 158/3/3
f 161/3/3 158/3/3 157/3/3
f 162/3/3 159/3/3 161/3/3
f 163/3/3 159/3/3 162/3/3
f 164/3/3 159/3/3 163/3/3
f 165/3/3 162/3/3 161/3/3
f 165/5/3 163/5/3 162/5/3
f 166/2/3 164/2/3 163/2/3
f 166/5/3 163/5/3 165/5/3
f 167/6/3 161/6/3 160/6/3
f 168/3/3 165/3/3 161/3/3
f 168/6/3 161/6/3 167/6/3
f 169/2/3 166/2/3 165/2/3
f 169/3/3 165/3/3 168/3/3
f 170/2/3 164/2/3 166/2/3
f 170/2/3 166/2/3 169/2/3
f 173/6/3 172/6/3 171/6/3
f 174/6/3 172/6/3 173/6/3
f 177/7/3 176/7/3 175/7/3
f 178/7/3 176/7/3 177/7/3
f 181/7/3 180/7/3 179/7/3
f 182/7/3 180/7/3 181/7/3
f 185/3/3 184/3/3 183/3/3
f 186/3/3 184/3/3 185/3/3
f 189/5/3 188/5/3 187/5/3
f 190/5/3 188/5/3 189/5/3
f 191/7/3 190/7/3 189/7/3
f 192/5/3 188/5/3 190/5/3
f 192/7/3 190/7/3 191/7/3
f 193/5/3 192/5/3 191/5/3
f 194/5/3 188/5/3 192/5/3
f 194/5/3 192/5/3 193/5/3
f 197/3/3 196/3/3 195/3/3
f 198/3/3 196/3/3 197/3/3
f 201/1/3 200/1/3 199/1/3
f 202/1/3 200/1/3 201/1/3
f 203/5/3 202/5/3 201/5/3
f 204/5/3 202/5/3 203/5/3
f 205/4/3 204/4/3 203/4/3
f 206/4/3 204/4/3 205/4/3
f 209/7/3 208/7/3 207/7/3
f 210/7/3 208/7/3 209/7/3
f 213/7/3 212/7/3 211/7/3
f 214/7/3 212/7/3 213/7/3
f 215/7/4 216/7/4 217/7/4
f 217/7/4 216/7/4 218/7/4
f 219/7/4 220/7/4 221/7/4
f 221/7/4 220/7/4 222/7/4
f 223/3/4 224/3/4 225/3/4
f 225/3/4 224/3/4 226/3/4
f 227/3/4 228/3/4 229/3/4
f 229/3/4 228/3/4 230/3/4
f 231/6/4 232/6/4 233/6/4
f 233/6/4 232/6/4 234/6/4
f 235/5/4 236/5/4 237/5/4
f 237/5/4 236/5/4 238/5/4
f 237/7/4 238/7/4 239/7/4
f 238/5/4 236/5/4 240/5/4
f 239/7/4 238/7/4 240/7/4
f 239/5/4 240/5/4 241/5/4
f 240/5/4 236/5/4 242/5/4
f 241/5/4 240/5/4 242/5/4
f 243/7/4 244/7/4 245/7/4
f 245/7/4 244/7/4 246/7/4
f 247/7/4 248/7/4 249/7/4
f 249/7/4 248/7/4 250/7/4
f 252/3/4 253/3/4 255/3/4
f 253/2/4 254/2/4 255/2/4
f 255/2/4 254/2/4 256/2/4
f 252/3/4 255/3/4 257/3/4
f 255/3/4 256/3/4 257/3/4
f 257/3/4 256/3/4 258/3/4
f 251/6/4 252/6/4 259/6/4
f 252/3/4 257/3/4 260/3/4
f 259/6/4 252/6/4 260/6/4
f 257/2/4 258/2/4 261/2/4
f 260/3/4 257/3/4 261/3/4
f 261/2/4 258/2/4 262/2/4
f 267/7/5 264/7/5 263/7/5
f 268/7/5 264/7/5 267/7/5
f 269/7/5 266/7/5 265/7/5
f 270/7/5 266/7/5 269/7/5
f 275/7/5 272/7/5 271/7/5
f 276/7/5 272/7/5 275/7/5
f 277/7/5 274/7/5 273/7/5
f 278/7/5 274/7/5 277/7/5
f 283/6/5 280/6/5 279/6/5
f 284/6/5 282/6/5 281/6/5
f 285/6/5 283/6/5 279/6/5
f 285/6/5 284/6/5 283/6/5
f 286/6/5 284/6/5 285/6/5
f 287/6/5 282/6/5 284/6/5
f 287/6/5 284/6/5 286/6/5
f 288/6/5 282/6/5 287/6/5
f 290/6/5 287/6/5 286/6/5
f 291/6/5 287/6/5 290/6/5
f 293/6/5 290/6/5 289/6/5
f 293/6/5 292/6/5 291/6/5
f 293/6/5 291/6/5 290/6/5
f 294/6/5 292/6/5 293/6/5
f 295/6/5 292/6/5 294/6/5
f 296/6/5 292/6/5 295/6/5
f 298/6/5 295/6/5 294/6/5
f 299/6/5 295/6/5 298/6/5
f 301/6/5 298/6/5 297/6/5
f 301/6/5 300/6/5 299/6/5
f 301/6/5 299/6/5 298/6/5
f 302/6/5 300/6/5 301/6/5
f 305/3/5 304/3/5 303/3/5
f 306/3/5 304/3/5 305/3/5
f 311/3/5 308/3/5 307/3/5
f 312/3/5 308/3/5 311/3/5
f 313/3/5 310/3/5 309/3/5
f 314/3/5 310/3/5 313/3/5
f 315/2/6 316/2/6 320/2/6
f 320/2/6 316/2/6 321/2/6
f 316/3/6 317/3/6 322/3/6
f 321/2/6 316/2/6 322/2/6
f 317/2/6 318/2/6 323/2/6
f 322/3/6 317/3/6 323/3/6
f 323/2/6 318/2/6 324/2/6
f 324/2/6 318/2/6 325/2/6
f 320/2/6 321/2/6 327/2/6
f 324/2/6 325/2/6 328/2/6
f 319/3/6 320/3/6 329/3/6
f 320/2/6 327/2/6 330/2/6
f 329/3/6 320/3/6 330/3/6
f 325/3/6 326/3/6 331/3/6
f 328/2/6 325/2/6 331/2/6
f 331/3/6 326/3/6 332/3/6
f 330/2/6 327/2/6 333/2/6
f 328/2/6 331/2/6 334/2/6
f 330/2/6 333/2/6 335/2/6
f 334/2/6 331/2/6 336/2/6
f 330/2/6 335/2/6 337/2/6
f 336/2/6 331/2/6 338/2/6
f 330/2/6 337/2/6 339/2/6
f 338/2/6 331/2/6 342/2/6
f 330/2/6 339/2/6 343/2/6
f 339/2/6 340/2/6 343/2/6
f 340/3/6 341/3/6 344/3/6
f 343/2/6 340/2/6 344/2/6
f 341/2/6 342/2/6 345/2/6
f 344/3/6 341/3/6 345/3/6
f 342/2/6 331/2/6 346/2/6
f 345/2/6 342/2/6 346/2/6
f 347/5/6 348/5/6 349/5/6
f 349/5/6 348/5/6 350/5/6
f 350/5/6 348/5/6 351/5/6
f 351/5/6 348/5/6 352/5/6
f 347/5/6 349/5/6 353/5/6
f 352/5/6 348/5/6 354/5/6
f 347/5/6 353/5/6 355/5/6
f 354/5/6 348/5/6 356/5/6
f 347/5/6 355/5/6 357/5/6
f 355/5/6 356/5/6 357/5/6
f 356/5/6 348/5/6 358/5/6
f 357/5/6 356/5/6 358/5/6
f 359/1/6 360/1/6 363/1/6
f 360/5/6 361/5/6 364/5/6
f 363/1/6 360/1/6 364/1/6
f 361/4/6 362/4/6 365/4/6
f 364/5/6 361/5/6 365/5/6
f 365/4/6 362/4/6 366/4/6
f 363/6/6 364/6/6 367/6/6
f 364/6/6 365/6/6 367/6/6
f 365/6/6 366/6/6 367/6/6
f 367/6/6 366/6/6 368/6/6
